<svg xmlns="http://www.w3.org/2000/svg" xmlns:xlink="http://www.w3.org/1999/xlink" width="445.185" height="828.618" viewBox="0 0 445.185 828.618"><defs><clipPath id="a"><rect width="445.185" height="828.618" fill="#f9c5b3"/></clipPath></defs><g opacity="0.311"><g clip-path="url(#a)"><path d="M444.551,146.973v0q-1.168-6.068-2.331-12.139c-.893-1.2-.127-2.832-1.073-4.013q-.536-.729-1.075-1.459v0a.993.993,0,0,0-.3-1.03,4.057,4.057,0,0,0-1-3.185l0,0c-.145-.6-.288-1.206-.433-1.808-.139-4.4.836-8.862-.586-13.177a7.245,7.245,0,0,0-.29-.87.689.689,0,0,0-.151-.968c-1.067-5.406-.854-11.109-3.737-16.095a20.137,20.137,0,0,0-3.862-7.538,8.251,8.251,0,0,0-2.28-3.786c-.762-2.117-1.22-4.358-2.548-6.246a1.5,1.5,0,0,0-.194-1.124c-.674-5.494.38-11.078-.87-16.542v0c-.149-2.072.11-4.234-1.326-6.021-.135-3.241-.8-6.608-4.505-7.035-4.908-.568-9.965-1.516-14.816.443a4.975,4.975,0,0,0-.8.311l-.01,0a21.648,21.648,0,0,0-8.714,3.6c-6.173-.078-11.242,4.009-17.272,4.6-1.253.123-1.647,1.714-1.579,3.057q-1.805,1.2-3.61,2.4c-4.336-.11-5.7-3.619-7.2-6.661a69.555,69.555,0,0,1-2.916-8.193,39.513,39.513,0,0,0-4.36-17.578c-1.363-3.114-2.816-6.156-6.285-7.5a4.789,4.789,0,0,0-4.125-2.3l-.018-.006c-11.209-3.817-20.369.3-28.757,7.421a7.491,7.491,0,0,0-4.885,2.9c-4.73,2.9-6.918,7.887-9.979,12.157-2.965-.137-4.892,1.183-6.455,3.76a48.535,48.535,0,0,0-4.726,11.252c-2.346,2.673-3.351,6.066-4.669,9.238-.934,2.243-2.389,1.706-3.952,1.624a14.251,14.251,0,0,0-4.988-2.387q-2.5-2.483-5-4.963-1.434-2.424-2.869-4.845a1.151,1.151,0,0,0-.8-1.365,9.3,9.3,0,0,0-2.654-4.908l.022-.018c-.08-2.754-1.4-5.071-2.6-7.435l-.1-1.25c0-1.714.386-3.525-1.161-4.875-.509-5.2-2.389-10.079-3.553-15.126a2.836,2.836,0,0,0-1.351-2.5c-1.342-4.3-5.035-5.321-8.763-6.291-2.389-1.794-5.2-1.492-7.762-1.034-9.842,1.755-19.75,1.359-29.654,1.34Q206.675,8,201.718,7.209a20.454,20.454,0,0,0-5.979-2.458l-4.056-2.37a1.541,1.541,0,0,0-2.111-.17,3.26,3.26,0,0,0-1.324-.327.855.855,0,0,0,.086-.208c.061-.223-.1-.388-.482-.5l.074.022C186.784.027,185.055.854,183.819,0c-2.75.59-5.709-.323-8.341,1.138-1.767-.119-3.553-.353-5.065.924l-1.212.411a2.639,2.639,0,0,0-2.517,1.013,1.208,1.208,0,0,0-1.128.353c-6.816,2.7-13.306,5.948-18.718,11.025-2.174.664-3.449,2.481-5.012,3.925-1.065.268-1.451,1.12-1.753,2.041a18.447,18.447,0,0,0-6,7.413,1.352,1.352,0,0,0-1.02,1.514l-.012.027c-2.335,1.786-2.478,4.793-3.935,7.068a3.453,3.453,0,0,0-.966,2.924.833.833,0,0,0-.3.889c-1.849,1.8-2.113,4.168-2.335,6.549A51.87,51.87,0,0,0,123.406,59.6c-.356,2.231-.613,4.454.729,6.5a.877.877,0,0,0,.243,1.126v0c.6,2.912,1.751,5.811.182,8.768q-1.49,4.8-2.975,9.591a1.356,1.356,0,0,0-.948,1.59l-.006.016a37.111,37.111,0,0,0-6.549,13.426A77.372,77.372,0,0,0,99.506,99.59a5.815,5.815,0,0,0-3.811-.037c-4.816-1.8-10.118-.648-14.934-2.456a6.207,6.207,0,0,0-7.687-.125,1.175,1.175,0,0,0-1.087.188,2.1,2.1,0,0,0-2.409,1.291l-.033.018c-1.377.137-1.5,1.159-1.565,2.217l.11.065c-.264.28-.8.75-.756.809,2.8,3.915,2.27,9.037,4.763,13.05a6.526,6.526,0,0,0,.016,3.739,5.644,5.644,0,0,0-.027,3.621c1.171,4.36,2.724,8.712,3.132,13.161.4,4.413,2.489,7.611,5.106,10.756.484,2.861-.889,5.8.382,8.629a6.536,6.536,0,0,1-2.572,5.876,12.021,12.021,0,0,0-3.476,4.178l-.1.09a1.086,1.086,0,0,0-1.165,1.079c-1.534,1.408-3.151,2.746-4.035,4.712a1.825,1.825,0,0,0-1.347,1.342l-.012,0c-7.3,4.561-13.32,10.684-19.764,16.287A1.55,1.55,0,0,0,47,189.354a1.525,1.525,0,0,0-1.3,1.206,2.141,2.141,0,0,0-1.653,1.109h0c-1.906.2-2.4,2.581-4.3,2.8l-2.871,3.4,0,.016a1.673,1.673,0,0,0-1.4,1.326,18.794,18.794,0,0,0-5.966,4.969c-2.115,1.24-3.5,3.588-6.124,4.056q-5.1,4.122-10.2,8.242c-3.057,1.457-6.117,2.908-8.569,5.335a1.444,1.444,0,0,0-1.238,1.244C1.314,224.126.711,225.9.971,228.082a.544.544,0,0,0-.217.83c-1.526,3.083-.358,6.1.217,9.133a17.96,17.96,0,0,0,2.3,10.163,2.723,2.723,0,0,1,.394-.523l.041.016c-.145.17-.29.339-.435.507,2.4,7.636,5.8,14.871,8.841,22.251a45.109,45.109,0,0,0,6.16,13.749h0l0,0a3.086,3.086,0,0,0,1.283,2.56,1.141,1.141,0,0,0,.85,1.375c3.239,7.145,8.034,12.778,15.416,15.907q2.406,1.352,4.816,2.7c2.787,1.334,5.617,2.513,8.78,2.554,1.487,1.51,3.335,1.165,5.147,1v0l7.36.184a3.815,3.815,0,0,0,3.841.01c4.227.262,8.441.37,12.454-1.347a33.737,33.737,0,0,0,13.083-2.1,4.257,4.257,0,0,0,.893-.3c1.778-.043,3.559-.063,5.106-1.134h0L109.4,303.9l4.889.421a1.41,1.41,0,0,0,.116,1.038c-1.888,3.359.817,5.312,2.337,7.625,5.443,7.458,10.933,14.865,19.783,18.722a3.19,3.19,0,0,0,2.572,1.4,1.47,1.47,0,0,0,1.5.852l.086.043a2.4,2.4,0,0,0,2.354,1.189l1.165.417a7.329,7.329,0,0,0,3.8,1.855q1.18.257,2.358.511a3.247,3.247,0,0,0,2.75.795,10.556,10.556,0,0,0,7.247,1.42v0l0,0,1.512.178h0c4.759,2.021,10.112.3,14.867,2.358,4.246.286,8.069,2.838,12.464,2.321,1.363.082,2.773.354,3.813-.905,5.693.325,10.576,3.177,15.774,5.047a3.626,3.626,0,0,1,1.573.887c-.525-.294-1.048-.591-1.573-.887a1.379,1.379,0,0,0,1.573.887l1.183.484c.431.958,1.289,1.1,2.2,1.15a14.646,14.646,0,0,0,5.406,3.277q3.678,2.1,7.358,4.2c1.447,5.807,2.456,6.473,8.888,5.876l.519.288.588-.082a17.7,17.7,0,0,1,3.4,1.25c5.182,3.214,12.392,3.427,15.19,10.19q3.745,6.13,7.488,12.262,2.522,6.274,5.043,12.548c.474,2.638.907,5.288,2.4,7.6v0q3.059,12.517,6.122,25.038a1.5,1.5,0,0,0,.247,1.018,18.975,18.975,0,0,0,1.4,7.337c.627,4.7.439,9.536,2.215,14.058q.141,1.073.282,2.147a10.1,10.1,0,0,0,1.3,6.209c1,5.026,1.056,10.292,3.7,14.91q1.931,3.154,3.866,6.3a3.959,3.959,0,0,0,1.216,2.468,8.648,8.648,0,0,0,2.34,5.03,68.583,68.583,0,0,1,5.574,20.68c.6,5.245-.239,10.647,1.628,15.749v0a1.006,1.006,0,0,0,.245,1.052c-.076,2.6-.392,5.229,1.107,7.595-.135,5.106,2.434,9.726,2.646,14.769a103.609,103.609,0,0,1,1.33,19.973,1.85,1.85,0,0,0-.284,1.1c-.956,1.349-1.516,2.689.1,3.974v0a9.1,9.1,0,0,0-1.126,6.162,2.6,2.6,0,0,0-.055,1.177,3.067,3.067,0,0,0-.562,1.964c-1.038,4.585-.38,9.325-.9,13.958a4.478,4.478,0,0,0-.778,2.928q-.064,15.545-.163,31.09c-.633,1.214-.331,2.859-1.917,3.878-1.138-2.989-2.252-5.911-3.365-8.835.084-.689-.092-1.222-.838-1.408-.041-2.748-1.306-5.067-2.583-7.384a65.1,65.1,0,0,0-3.682-16.4,7.318,7.318,0,0,0-1.892-4.734h0l0,0a3.6,3.6,0,0,0-1.81-2.552c-.231-.445-.46-.889-.691-1.332.1-.525-.141-.783-.658-.821a6.671,6.671,0,0,0-2.37-2.942l-5-6.281q-2.685-4.916-5.368-9.834a1.186,1.186,0,0,0-.893-1.4l0,0c-2.762-7.591-6.888-14.149-13.978-18.465A71.6,71.6,0,0,0,235.4,545.907a3.911,3.911,0,0,0-2.6-1.116c-.913-1.25-2.229-1.385-3.623-1.3a5.321,5.321,0,0,0-3.792-1.226,3.081,3.081,0,0,0-2.552-1.12l-.078-.037c-1.461-1.794-3.768-1.426-5.65-2.017-3.147-.991-7.517,1.82-7.666,5.092-.243,5.339-1.03,10.764.568,16.038a1.426,1.426,0,0,0,.276.932h0c.065,5.386,1.236,10.286,6.26,13.3a190.768,190.768,0,0,1,17.576,12.533v0q.714.69,1.426,1.381l0,0v0l5.75,5.3h0v0q.647.659,1.3,1.316h0a1.187,1.187,0,0,0,1.324,1.128,6.424,6.424,0,0,0,5.116,3.561c3.968,1.8,8.263,2.033,12.492,2.577a15.325,15.325,0,0,0,8.669,2.556,2.152,2.152,0,0,0,2.5.864c3.935-.264,5.492,2.718,7.3,5.351q2.007,4.907,4.017,9.816v0c.725,3.551.789,7.237,2.066,10.676a1.647,1.647,0,0,0,.239.648v0a1.555,1.555,0,0,0,.26,1.132,5.417,5.417,0,0,0,.919,3.939.934.934,0,0,0,.235,1.081q1.964,8.729,3.931,17.453a27.651,27.651,0,0,0,2.045,10.03c.143,1.406-.21,3.19.521,4.146,2.382,3.12,1.445,6.312.86,9.569l.19,4.953a1.239,1.239,0,0,0-.055,1.165v0q-.07,3.129-.139,6.258a.675.675,0,0,0-.112.889,10.887,10.887,0,0,0-.437,2.215,28.005,28.005,0,0,0-.388,8.036q-.046,1.278-.09,2.558a5.549,5.549,0,0,0-.116,3.809h0c-1.087,1.034-1.982,2.393-1.085,3.706,1.481,2.168.658,4.187.319,6.352-.374,2.374-.431,4.8-.627,7.2q-1.134,8.824-2.27,17.65h0a.85.85,0,0,0,.067,1.138c-.008.468-.014.938-.02,1.406l0,0h0l-.264,3.547c-1.424,3.243-.94,6.688-1.058,10.069a12.326,12.326,0,0,0,.133,5.041c.384,2.066-1.389,4.448.924,6.228,0,.825-.01,1.653-.014,2.476v0c-1.228,9.656-2.791,19.256-4.879,28.767a4.874,4.874,0,0,1,.68-.2,6.8,6.8,0,0,0-.68.2,5.115,5.115,0,0,0-1.3,3.706l0,0h0c-2.552,5.206-2.421,11.183-4.814,16.5a3.8,3.8,0,0,0,2.948,5.233c2.857.666,4.916-.39,5.486-3.375.7-3.653,2.72-6.933,2.816-10.721a75.618,75.618,0,0,0,3.792-13.765l0,0a2.139,2.139,0,0,0,.893-2.632q.129-1.22.26-2.44h0c1.373-4.088,1.518-8.394,2.221-12.6a18.722,18.722,0,0,0,1.571-9.873c1.387-3.222,1.1-6.618,1.026-9.99a26.679,26.679,0,0,0,.161-7.546c1.156-4.487.723-9.1,1.087-13.649l.27-6.148c1.68-10.784,4.277-21.473,3.469-32.522a1.059,1.059,0,0,0,.264-1.011c1.755-3.261.815-6.806,1.077-10.226l.184-1.167h0c1.9-7.368,1.808-14.952,2.421-22.459,2.28-7.17,3.8-14.6,7.417-21.309.17-.315.014-.805.01-1.214a25.743,25.743,0,0,0,2.417-9.94q1.9-8.741,3.792-17.478a.4.4,0,0,1-.454-.372l0-.016a2.438,2.438,0,0,0,.452.388.787.787,0,0,0,.329-.981,1.19,1.19,0,0,0,.65-1.461c.129-.388.259-.774.388-1.163,1.114-.971,1.124-2.348,1.349-3.645q1.624-3.883,3.251-7.77L335,590.825a1.689,1.689,0,0,0,.48-.623,47.343,47.343,0,0,0,6.036-9.137c2.938-3.69,2.789-8.21,3.363-12.533q.242-1.223.482-2.448c1.959-2.227,5.235-.662,7.319-2.534a5.059,5.059,0,0,0,4.834-2.577c1.134-.255,1.416-1.163,1.622-2.125v0a1.712,1.712,0,0,0,1.011-1.463,5.329,5.329,0,0,0,2.44-3.8,5.08,5.08,0,0,0,2.188-2.652h0l.11-.112a4.993,4.993,0,0,0,2.591-2.3l11.365-7.231a6.566,6.566,0,0,0,3.872-2.393,6.036,6.036,0,0,0,3.449-2.834l.041-.033c3.155-1.289,5.4-3.719,7.681-6.105a20.233,20.233,0,0,0,8.559-11.234v0c1.532-.4,3.126-1.293,4.587-1.114,3.4.417,5.014-1.622,6.63-3.917,3.418-2.462,4.148-6.258,4.973-10.01,1.009-5.9-.815-11.175-3.582-16.242q-.147-2.47-.292-4.939c.022-2.619.149-5.249-.828-7.76-1.6-7.5-4.614-14.111-11.571-18.211a16.286,16.286,0,0,0-8.547-4.125h0c-3.488-1.884-7.413-2.513-11.087-3.866a16.2,16.2,0,0,0-10.085-5.016,13.418,13.418,0,0,0-5.075-2.233,1.345,1.345,0,0,0-.445-.278c-3.459-2.045-5.568-5.907-9.6-7.182a6.027,6.027,0,0,0-6.2-1.308c-3.821,1.132-7.873,1.545-11.436,3.516v0h0l-1.05.617v0c-2.217,1.3-2.744,3.745-3.9,5.766a1.383,1.383,0,0,0-1.052,1.412c-2.337,1.506-2.887,3.682-2.354,6.267q-.107.613-.217,1.226l0,0,0,0a.791.791,0,0,0-.255,1.005v0l0,0a12.492,12.492,0,0,0-.027,10.1c1.13,2.423-1.048,2.668-1.823,3.851a8.474,8.474,0,0,0-2.95,3.709,1.525,1.525,0,0,0-1.236,1.289c-2.066,2.217-1.261,4.894-1.193,7.454-1.522,9.7-2.444,19.368,1.089,28.873a4.978,4.978,0,0,0,1.23,3.725c.2-.155.392-.309.588-.462l.039.078c-.208.129-.417.255-.627.384a72.845,72.845,0,0,0,6.152,14.981,7.4,7.4,0,0,0,1.463,3.559q.126,6.206.251,12.415-.162,1.306-.329,2.611c-2.705,6.716-.815,12.783,2.636,18.628q.12,3.7.235,7.392h0q-.159.638-.317,1.271a2.711,2.711,0,0,0-.619,1.193c-.21.441-.423.881-.633,1.322a13,13,0,0,0-3.541,5.063,8.553,8.553,0,0,0-2.952,4.8h0l0,0a1.313,1.313,0,0,0-.915,1.351c-2.043,2.051-2.861,4.781-4.033,7.313v0a8.465,8.465,0,0,0-2.417,5.126,150.634,150.634,0,0,0-4.869,12.292,35.672,35.672,0,0,0-3.568,12.709l-.133-.084a8.653,8.653,0,0,0-2.5,3.968,20.429,20.429,0,0,0-.21-5.8,5.444,5.444,0,0,0,.746-.815,23.793,23.793,0,0,0-.18-7.382q-.074-1.162-.147-2.319c1.616-3.151.439-6.553.881-9.81q.083-1.352.163-2.7v0l.11-3.643c.548-2.905,1.539-5.768.9-8.8h0l2.538-16.172,0,0h0a21.65,21.65,0,0,0-1.1-11.26c-.656-3.428-.566-7.01-1.915-10.292a3.712,3.712,0,0,0-.419-.95v0l-.069.029a10.717,10.717,0,0,0,.074-2.446c-2.127-10.672-3.968-21.374-3.964-32.31a3.971,3.971,0,0,0-.85-2.877l-.012-.035h0a2.626,2.626,0,0,0-.172-2.252,4.313,4.313,0,0,1-.5-.335c.168.11.335.221.5.335.045-2.2.172-4.418-1.173-6.365-.658-4.154-2.589-7.76-4.855-11.219a17.88,17.88,0,0,0-2.4-5.646,1.378,1.378,0,0,0-.292-.462l-.006-.006-.106.045a2.262,2.262,0,0,0-1.187-2.495l-.008-.018q-1.14-4.416-2.278-8.837-.162-2.427-.329-4.851c.145-10.134,1.316-20.34-2.117-30.224-.186-1.273-.063-2.646-1.167-3.625h0a7.086,7.086,0,0,0-1.357-4.037.486.486,0,0,0-.18-.807,5.619,5.619,0,0,0-.832-3.5c-3.347-6.655-4.583-13.845-5.357-21.15a11.868,11.868,0,0,0-1.324-5.28,5.714,5.714,0,0,0-.4-3.766.986.986,0,0,0-.684-1.375c-.589-2.854.108-5.9-1.279-8.637-.245-3.856-1.465-7.493-2.5-11.17a80.819,80.819,0,0,0-2.542-17.408c1.328-1.878,1.058-4.107,1.361-6.211,1.518-2.92,3.465-5.633,4.248-8.9a8.291,8.291,0,0,0,2.125-4.74,3.136,3.136,0,0,0,1.15-2.532,9.886,9.886,0,0,0,2.493-4.988l-.593-.172c0-.039-.008-.078-.01-.116.2.1.4.19.6.288q4.738-6.3,9.474-12.593v0h0a11.639,11.639,0,0,0,4.213-4.718,1.4,1.4,0,0,0,1.12-1.434,23.923,23.923,0,0,0,4.877-5.263v0c3.138-3.478,6.334-6.912,8.647-11.038a6.572,6.572,0,0,0,2.754-3.4A28.947,28.947,0,0,0,322.686,283a1.479,1.479,0,0,0,1.25-1.2c2.007-1.1,2.722-3.226,3.958-4.936v0a11.282,11.282,0,0,0,3.647-3.723c1.4-1.077,2.879-2.09,3.484-3.886l1.3-1.383q4.888-4.974,9.777-9.953c1.9-1.5,4-2.793,5.329-4.916l0,0h0q1.775-1.983,3.547-3.966a.89.89,0,0,0,.956-1.011h0c.27-.368.537-.734.807-1.1a9.66,9.66,0,0,0,4.409-7.6c.464-1.788,1.43-3.612,1.3-5.355-.362-4.8,2.119-7.125,6.271-8.365,2.188-.554,3.549-2.26,5.116-3.678,1.635-.838,3.684-.848,4.92-2.474,4.628-.521,8.226-2.9,11.281-6.256a7.434,7.434,0,0,0,3.77-1.369c2.043-.762,4.039-1.976,6.138-2.184a8.874,8.874,0,0,0,7.47-5.251,1.39,1.39,0,0,0,1.287-1.21l-.439-.4c.008-.027.01-.053.018-.08.141.161.282.321.421.482,3.136-4.225,6.371-8.4,7.39-13.759a1.049,1.049,0,0,0,.221-1.138c1.009-2.464,2.325-4.828,2.46-7.576l3.568-7.587A1.433,1.433,0,0,0,423.6,171.9l13.594-12.486c2.922-2.084,6.831-3.143,7.666-7.388h0a7.043,7.043,0,0,0-.309-5.057M304.376,589.507c-.022.057-.053.1-.074.155l-.018-.155c.031,0,.061,0,.092,0m-47.048,4.346c.163-.149.327-.3.488-.448a2.192,2.192,0,0,0-.472.68.6.6,0,0,1-.016-.233m1.573-1.277a3.875,3.875,0,0,0-1,.7l0,0c-.143.049-.288.1-.431.143.282-.527.789-1.04,0-1.616a13.382,13.382,0,0,0-9.313-1.293c-.143.235-.219.423-.333.637-.008-.074-.01-.155-.02-.223l-.008-.008a4.188,4.188,0,0,0-1.532-2.129,4.884,4.884,0,0,0-.18-1.152c-2.058-3.094-3.743-6.653-8.187-6.712.208-2.613-1.872-2.858-3.651-3.408-.133,0-.259.012-.388.018a8.492,8.492,0,0,0-2.376-2.1,10.778,10.778,0,0,0-.668-1.363c-4.712-4.992-11.52-8.212-13.289-15.7-.022-.092-.372-.106-.574-.155l-.022.01a8.83,8.83,0,0,0-.059-4.35c.088-.061.182-.119.266-.186,1.532-3.98,4.082-5.306,8.185-3.441a9.963,9.963,0,0,0,5.991,1.169,3.074,3.074,0,0,0,.349-.413c.533,1.657,1.635,2.229,3.359,1.6.031-.01.063-.02.094-.029a2.691,2.691,0,0,1-.112.319c1.475,2.854,4.058,3.715,7.033,3.886.286-.1.564-.184.823-.249.166.439.57.607,1.152.574l.1.059a3.353,3.353,0,0,1-.2,1.009c2.186,2.411,4.358,4.877,7.981,4.4a19.7,19.7,0,0,0,6.643,8.68c.257,0,.5.016.746.027a64.075,64.075,0,0,0,6.091,10.931c.057,0,.09-.006.143,0a3.4,3.4,0,0,1-.813.413c-.286,1.626.206,2.769,1.782,3.243-.166.131-.331.26-.5.4-1.263,4.918,2.519,7.464,5.01,10.619a2.916,2.916,0,0,0,.245.206.551.551,0,0,1-.979-.419c-3.339-2.6-6.982-4.348-11.358-4.095m39.97,116.743c-.027.065-.031.106-.055.167-.047-.055-.092-.108-.137-.163l.192,0m23.518-91.9a.688.688,0,0,1,.482-.1v.014a3,3,0,0,0-.482.082m81.2-108.852a2.489,2.489,0,0,0-3.155-.392,2.9,2.9,0,0,0-.309.474,1.383,1.383,0,0,1-.074-.157v-.006c-1.083-2.626,1.645-3.97,2.045-6.1l0,0h0a13.307,13.307,0,0,0,3.051-6.181v0h0c1.4-.856.507-2.715,1.007-3.966a3.769,3.769,0,0,0,2.585,2.7c.043.035.065.076.106.112a5.086,5.086,0,0,0-.991.46c-.347,4.7-2.73,8.737-4.211,13.067l-.057-.008m-38.434-51.183a11.875,11.875,0,0,0,3.529,3.89c.844,1.935,1.97,3.41,4.321,3.749,4.82.7,9.611,1.584,14.415,2.391l0,0v0a2.875,2.875,0,0,0,2.5,1.124l.468.374.6-.031q3.215,1.747,6.434,3.492c3.449,2.664,6.4,5.7,7.57,10.075-.378,1.105.462,2.448-.648,3.4a37.033,37.033,0,0,0-4.426-1.708,10.279,10.279,0,0,0-3.592-.143c-1.921.212-3.529-.6-5.208-1.248q-2.437-1.453-4.869-2.9l0,0,0,0c-2.015-2.791-4.655-4.867-8.128-4.863-3.159,0-6-1.271-9.052-1.5-4.693-2.748-8.261-.022-11.882,2.444-2.219.217-3.1,1.759-3.612,3.657v0c-3.568-1-2.926-5.5-5.856-7.023-1.146-1.727-2.4-3.253-4.659-2.84a5.064,5.064,0,0,0-.991-1.2,3.373,3.373,0,0,1-.413-.3.774.774,0,0,0-.08-.38c1.718-4.205,1.255-8.4.337-12.59.025-.065.055-.123.078-.188a4.962,4.962,0,0,0,.061-1.729c.049-.5-.687-.791-.75-1.25l.006-.1a.762.762,0,0,1,.245-.474,2.35,2.35,0,0,0,.033-.356q2.581-1.56,5.163-3.118a4.837,4.837,0,0,0,.938.251c3.935-1.526,6.912-.513,9.624,2.818,2.1,2.581,4.358,5.288,7.84,6.269m-.27,77.619c-1.473.615-2.662,1.447-2.546,3.271-5.343.785-9.225,3.467-11.154,8.69a2.23,2.23,0,0,0,.206.131c-.084.008-.17.012-.247.024l0-.006v0l0,0a1.949,1.949,0,0,0-1.639,1.173c-1.551.4-2.117-.308-2.06-1.784.039-.962.016-1.927.02-2.891a3,3,0,0,0,.02-2.536q-.018-1.26-.039-2.517c-.006-.411-.014-.819-.02-1.228a87.19,87.19,0,0,0-2.35-23.722,5.97,5.97,0,0,0-1.093-3.892,7.109,7.109,0,0,0-1.463-4.834q-.469-1.925-.94-3.845v0l-.184.09q-.144-1.94-.286-3.874h0l0,0a6.427,6.427,0,0,0-.779-4.373c.2-.259.425-.5.611-.776a10.576,10.576,0,0,0,.627-4.358,6.153,6.153,0,0,0-.613-2.538c.057-.172.123-.341.178-.515.443-1.412-.836-3.555,1.628-4.1,2.223-.49,3.427.879,4.393,2.63a19.183,19.183,0,0,0,1.426,1.976c3.929,7.783,5.253,8.426,12.864,6.248h0c1.222.088,2.458.3,3.586-.415v0l0,0,.6.137.572-.223v0c2.527.492,5.21.1,7.6,1.344l.022.061a15.041,15.041,0,0,0,7.268,5.245,5.571,5.571,0,0,0,3.8,2.362,3.452,3.452,0,0,0,2.35,1.649,1.613,1.613,0,0,1,.184-.674h0l.084.006a1.6,1.6,0,0,0-.27.668c2.062,1.739,2.2,3.764.805,5.948-1.306,2.043-2.675,4.046-4.017,6.064-1.267,1.743-2.936,3.179-4.234,4.9q-.953.742-1.97,1.416c-1.469,1.33-3.549,2.3-2.791,4.9.108.022.2.051.3.076a1.643,1.643,0,0,1-.284-.008l-.041-.049a66.852,66.852,0,0,0-9.195,10.063c-.313.037-.625.08-.942.088m17.331-46.547.012.006-.014,0,0-.008m7.75,26.419h0c-.018.029-.047.041-.067.067-.016-.027-.035-.051-.053-.078.041,0,.082.008.12.01m12.36,2.362c0,.059.008.116.014.174-.055.027-.11.057-.165.08.051-.084.1-.157.151-.253m5.112-41.016h0v-.043l.037,0c-.012.016-.025.022-.037.041m-72.264-32.4v0l-.084.041.086-.053,0,.01Zm2.384,117.148h0l0,.01-.008,0,.006-.006M407.4,51.01c-.012.018-.031.029-.045.047a.785.785,0,0,0-.045-.072c.031,0,.059,0,.088,0l0-.049c.02.018.043.027.061.043-.018.01-.037.014-.057.027M367.484,65.95v0c-.047,0-.092,0-.139,0-.01-.116-.012-.231-.014-.343.051.114.106.227.153.343m3.138-6.812c.2-.264.392-.527.57-.8a2.933,2.933,0,0,1-.57.8m-71.836,8.208c2.207-4.65,4.589-9.246,4.393-14.619a1.391,1.391,0,0,0-.129-.243c.166-.082.331-.163.494-.247a5.186,5.186,0,0,0,.944-1.018,13.272,13.272,0,0,0,.723-1.189,9.959,9.959,0,0,1,2.658-2.476c2.517-2.417,4.152-5.549,6.522-8.11,1.428-1.543,3.506-3.063,2.056-5.7.029-.006.055-.018.084-.025a.082.082,0,0,1,0,.022c.033-.022.059-.049.092-.072.2-.125.392-.247.582-.376.08-.086.157-.176.235-.262a5.471,5.471,0,0,0,.9-.993c.49-.546.985-1.091,1.475-1.633a5.645,5.645,0,0,0,.609-4.834c.061.014.114.039.178.051,6.669-1.951,12.75-5.75,19.877-6.287a2.264,2.264,0,0,1,.615-1.089l.241.3c0,.272,0,.544.012.815a7.854,7.854,0,0,0,.556,1.532c1.234,1.894,1.063,4.963,4.277,5.174-.01.035-.016.072-.027.1l-.027-.006a33.944,33.944,0,0,0,2.5,7.719v0c.208,4,1.1,7.752,3.786,10.884a2.5,2.5,0,0,0-.3.208c-1.575,4.42,1.2,7.607,3.512,10.566,2.891,3.7,6.122,7.164,9.148,10.78a3.306,3.306,0,0,0,.429.157c-.445,2.009-.642,4.113-2.276,5.662q-3.43,6.718-6.861,13.434a95.959,95.959,0,0,0-7.523,12.635,23.049,23.049,0,0,0-2.63,4.142,66.905,66.905,0,0,1-4.661,9.438c-1.953,3.443-3.241,7.345-2.478,11.524.19,3.545-2.092,6.514-2.327,9.961a.944.944,0,0,0-.376.956v0c-.979,2.566-2.811,4.17-5.145,5.678-8.833,5.707-17.464,11.724-24.793,19.38a1.372,1.372,0,0,0-1.183,1.132,1.455,1.455,0,0,0-1.308,1.312c-3.678,1.919-5.529,6.126-9.55,7.615q-1.162-1.333-2.325-2.666-1.447-4.211-2.9-8.424.049-1.254.1-2.507a19.513,19.513,0,0,0,1.12-3.484,206.644,206.644,0,0,1,5.87-28.234c1.708-6.293,3.766-12.627,3.069-19.345,1.7-5.754,2.779-12.092,1.285-17.476-1.191-4.293-1.062-8.314-1.481-12.462,1.075-2.619-1.026-4.8-1.018-7.274a2.6,2.6,0,0,0,.979-.139m-145.373,57,.01.08c-.047,0-.092,0-.139,0,.043-.027.086-.049.129-.076m-47.836-22.163c-.08-.006-.149,0-.227-.008.035-.047.069-.092.1-.139.039.057.088.084.125.147M169.291,220.6v.309a4.836,4.836,0,0,1-.419-.311c.145,0,.266.006.419,0m120.995-92.41a.821.821,0,0,0-.149.084.579.579,0,0,0-.059-.037c.084-.037.168-.063.249-.1l-.041.055m-67.268,50.074c-.039-.041-.082-.061-.121-.1l.182-.01a1.232,1.232,0,0,0-.061.114m-6.4,14.893h-.076a1.24,1.24,0,0,0,.19-.174.977.977,0,0,0,.106-.141,2.725,2.725,0,0,1-.231.456c.006-.047,0-.09.012-.137Zm-9.969,16.2h0v0l0,0h-.074c.037-.039.076-.078.11-.119l-.033.116.025-.02-.029.041v-.018m10.537-17.84a2.086,2.086,0,0,1,.543-1.716,5.232,5.232,0,0,0-.543,1.716m3.147-5.844.008.014-.029.008.02-.022m28.975-4.518c4.068,1.868,5.486,5.413,6.028,9.513l-2.525,2.487-.018.01a1.45,1.45,0,0,0-1.569.981h0l-.041,0a.7.7,0,0,0-.541-.008c-.012-.057-.014-.112-.027-.17-1.477-2.5-1.118-5.423-1.906-8.075a7.839,7.839,0,0,0-.468-.891,10.85,10.85,0,0,0,1.071-3.849m38.736-83.428c.176,0,.353,0,.531,0-.176.014-.353.02-.529.033l.043-.018-.045-.016m-59.9,101.531-.025,0c2.027-.913,4.091-2.152,5.772.1-2.3-.335-3.308.778-3.6,2.693a18.538,18.538,0,0,0-2.145-2.789m65.631-29.319-.411-.245h0a1.361,1.361,0,0,1,.719-.343l-.306.588m-32.226,6.849c0,.025,0,.049,0,.074l.035.037h-.022l-.012-.037c-.031-.031-.065-.053-.1-.084.031,0,.061.008.092.01m-18.728-3.578c-.006-.045-.006-.088-.012-.133l.135.1c-.041.01-.082.018-.123.031M169.479,6.3c2.65.838,4.908.725,5.974-2.284,3.093,1.657,6.214,3.085,9.722,1.089l.018.121A5.227,5.227,0,0,0,186.215,6.6a10.835,10.835,0,0,0,1.4,1c.736.482,1.465.977,2.233,1.4,3.3,1.124,6.51,3.185,10.116,1.224.018.129,0,.239.033.374,6.951,3.833,14.119,4.736,21.589,1.624.147-.468.558-.646,1-.8a3.163,3.163,0,0,1-.331,1.706c6.371,1.98,12.56,1.058,18.667-1.21a2.922,2.922,0,0,1,.172-1.1l.462.378q1.686,1.073,3.375,2.143a6.5,6.5,0,0,0-.059,1.6,63.584,63.584,0,0,1,4.84,14.585c.989,5.247,1.543,10.676,3.88,15.512s3.725,10.656,9.906,12.56a3.786,3.786,0,0,1,.3-.911c0,.3,0,.619,0,.975-.133,2.758.922,4.605,3.856,5,.016-.006.029-.018.045-.025a5.779,5.779,0,0,0,2.626,3.351c.037.762.39,1.2,1.2,1.177h0l.012.01c1.494,2.646,3.827,4.462,6.185,6.256a1.406,1.406,0,0,0,.844,1.453c1.782,6.485,1.9,13.112,1.688,19.766-.063.7-.127,1.4-.192,2.1a15.27,15.27,0,0,0-.46,1.663,29.82,29.82,0,0,0-.66,8.7.679.679,0,0,0-.121,1.015q.095,7.586.188,15.171a72.334,72.334,0,0,0-.206,23.454c-1.081,1.461-1.51,3.576-3.815,3.815h0a3.286,3.286,0,0,0-3.5,1.506c-7.323-.174-8.584.74-9.867,7.826-.315,1.745-.366,3.284-2.591,3.39-2.074-.909-4.152-1.363-6.242-.043a18.332,18.332,0,0,0-6.222-.022q-.641-.021-1.281-.041c-1.9-.558-3.692-.635-5.008,1.22-3.318,3.8-4.965,8.083-3.88,13.187.125.59-.039,1.238.055,1.839.588,3.776-1.485,4.54-4.99,4.195v-6.665a172.361,172.361,0,0,0,1.426-24.176c.024-2.881-.018-5.819-1.3-8.543-.574-1.22-1.322-2.023-2.818-1.917a9.522,9.522,0,0,0-8.815,9.436c-.143,3.488-.576,6.963-.734,10.449a7.192,7.192,0,0,1-3.024,5.762.365.365,0,0,0-.6-.09,2.331,2.331,0,0,0-2.389-1.584c-6.089.6-8.87,3.572-9.211,9.834-.067,1.275-.057,2.634-1.43,3.126-1.346.486-2.458-.425-3.165-1.424a24.192,24.192,0,0,0-6.835-6.191c-2.295-1.5-4.558-3.02-7.329-1.024a.818.818,0,0,0-1.083.2v0c-6.238,3.807-6.177,3.968-5.065,10.4.648,3.749,2.411,7,3.743,10.455.654,1.7,2.047,3.187,1.357,5.229l-3.635,1.034a1.4,1.4,0,0,0-1.332-1.06c-4.681-4.851-8.453-10.692-14.875-13.643l-.006,0,.006,0q-.141-2.47-.282-4.936c.429-7.55.568-15.087-.932-22.555-.194.039-.39.08-.584.121l0-.065h0l.284-.145.307.09a28.094,28.094,0,0,0-1.05-8.578c-1.044-4.63-2.771-9.117-3.03-13.917h0l0,0c.033-4.922-.582-9.693-3.3-13.966a11.942,11.942,0,0,0-5.127-7.249c-5.2-5.2-11.908-7.1-18.818-8.553l-2.648-1.191a4.912,4.912,0,0,0,.194-.525c.3-2.683,1.048-5.308,1.011-8.036A4.288,4.288,0,0,0,130,92.657a2.887,2.887,0,0,0,.568-1.485,2.311,2.311,0,0,0,.59-.368,5.676,5.676,0,0,0,1.124-2.258,4.583,4.583,0,0,0,0-.556c3.527-3.7,3.39-8.708,4.456-13.283l0,0h0a10.138,10.138,0,0,0,1.577-4.981l0,0h0c1.865-6.453,1.622-6.884-4.507-8.24a9.692,9.692,0,0,1-1.5-.548,3.083,3.083,0,0,0,.546-.687c1.59-5.709,3.521-11.381,1.8-17.411.123-.112.253-.217.366-.339.736-.864,1.479-1.714,2.184-2.595,1.686-3.251,4.42-6.044,4.332-10.057a3.954,3.954,0,0,0-.194-.574q2.256-3.016,4.516-6.034a5,5,0,0,0,.944.01c6.162-4.217,11.763-9.186,17.974-13.324.456-.558.905-1.118,1.308-1.708a9.335,9.335,0,0,0,3.2-2.076h-.022c.014-.043.035-.084.049-.127a2.485,2.485,0,0,0,.161.282M9.605,233.112l-.012-.01.012,0v.014M3.472,236.62l.008-.01,0,.112h0c-.084-.059-.141-.127-.219-.186.074.027.137.059.215.084m88.6,63.884.016,0-.027.045c-.02.045-.035.074-.055.116-.014-.033-.031-.063-.045-.1.033-.006.067-.012.1-.02l.01-.043m16.475-5.57a2.028,2.028,0,0,0-.6,1.577L94.4,299.17l-2.442.178a18.144,18.144,0,0,0-5.231.063,15.016,15.016,0,0,1-2.307-.233,4.411,4.411,0,0,0-2.462.848,1.435,1.435,0,0,0-.237.47c-2.1-.2-4.2-.407-6.1.86-1.52-1.393-3.065-2.168-4.722.061-.043-.049-.072-.106-.116-.153a3.426,3.426,0,0,0-1.579-.4,3.57,3.57,0,0,0-1.275.492.82.82,0,0,0-.313-.129,3.775,3.775,0,0,0-1.41-1.635c-6.873-.5-13.412-2.748-20.153-3.937-.235.061-.47.106-.707.153a11.427,11.427,0,0,0-3.265-1.729c-.157-.7-.552-1.062-1.3-.911a1.208,1.208,0,0,0-.981-.454c-.535-3.782-2.983-6.028-6.222-7.632-.088,0-.176,0-.264,0,.01-.119.025-.237.035-.356a5.4,5.4,0,0,0-.137-1.61c-.682-2.217-1.917-3.9-4.309-4.46l-.286.006a.61.61,0,0,0-.125-.676c.738-1.684-.182-2.711-1.43-3.608l-2.1-4.479a7.589,7.589,0,0,0,.378-.958c.174-2.548-.47-4.636-2.871-5.742.037-.067.061-.139.1-.206.192-2.129-.147-4.039-2.145-5.28a2.211,2.211,0,0,0-.746.112A7.014,7.014,0,0,0,18.2,254.2h0l0,0a1.072,1.072,0,0,0-.621-1.4l-.029-.006a2.118,2.118,0,0,0,.3-.417c.253-5.2-1.8-9.507-5.182-13.291a2.888,2.888,0,0,0-.507-.131c.2-2.652-.611-5.174-1.054-7.742.3-.687.527-1.406.758-2.125-.114-3.929,3.14-6.34,4.342-9.673-.037-.084-.088-.153-.127-.233,7.215-1.528,12.143-6.248,16.389-11.914-.045-.141-.119-.255-.172-.386a17.759,17.759,0,0,0,6.089-4.924l0-.037c3.694.3,5.453-2.793,7.862-4.742a23.391,23.391,0,0,0,1.271-2.008c.276-.427.556-.848.811-1.289.041-.076.106-.135.153-.206a14.74,14.74,0,0,0,2.65-2.256,5.087,5.087,0,0,0,1.767-.084c6.12-4.358,11.485-9.644,17.515-14.115a3.743,3.743,0,0,0,1.79-3.95c1.69.637,2.548-.727,3.588-1.649a8.116,8.116,0,0,0,1.3-2.54c.022-.174.049-.343.076-.515.006-.051.022-.1.027-.149.114.039.194.1.315.137,6.044-2.4,9.936-6.849,12.245-12.807-.094-.121-.21-.2-.311-.309,3.68-3.954,3.294-8.018.1-12.161q-2.234-6.053-4.471-12.11A8.074,8.074,0,0,0,85.457,129c.262-1.829.458-3.631-1.61-4.657-.219.092-.423.151-.637.231.025-.029.047-.045.072-.072l.012.012v-.051c.049-.284.1-.566.145-.85.174-2.094.047-4.2.163-6.289-.21-2.4.443-5.069-2.139-6.722a1.594,1.594,0,0,0-.544.072c0-.074.01-.149.016-.223a2.269,2.269,0,0,0,.4-2.068c-.08-.231-.19-.445-.286-.668a1.92,1.92,0,0,1,.856-.417c.28.086.564.161.852.231a2.221,2.221,0,0,0,1.075-.106c.125.257.235.519.364.776a132.315,132.315,0,0,0,17.662,7.916c.012-.014.018-.029.031-.041,6.849,7.1,15.157,7.1,23.92,4.875v0l2.282-.172v0a12,12,0,0,0,5.01-.067l4.881.362q1.2,3.12,2.4,6.242c.3,3.032.836,5.993,2.644,8.559h0l0,0c.441,2.848,1.988,5.2,3.429,7.595h0v0q.23,1.189.458,2.372l0,0h0c.129,8.032,0,16.1,3.535,23.622.345.731.885,1.443.174,2.258-2.219,2.54-.237,5.1-.043,7.656.6.858,1.156,1.8,2.362,1.537.3,3.151-.11,6.432,1.571,9.329a1.482,1.482,0,0,0-.353.129c-.1,0-.18.182-.223.546a.917.917,0,0,0,.527.887c1.42,1.712.832,3.856,1.065,5.766.4,3.29,1.653,5.635,4.91,6.675.121.682.323,1.3,1.107,1.487.738,1.584,1.586,3.161.259,4.855-2.591,2.008-4.422,4.689-6.41,7.233a2.961,2.961,0,0,1,.715,1.843c-.458-.664-.962-1.334-.715-1.843-4.691,3.976-6.565,9.119-6.281,15.157a2.44,2.44,0,0,0-1.271,2.237,19.109,19.109,0,0,0-3.592,6.444,35.7,35.7,0,0,0-7.548,16.289,32.865,32.865,0,0,0-4.771,13.477,2.038,2.038,0,0,0-.339.106,7.75,7.75,0,0,0-1.373,1.908,15.094,15.094,0,0,0-.713,1.344c-.351.678-.715,1.353-1.038,2.039-.092.194-.155.4-.239.6a23.051,23.051,0,0,0-3.827,6.6c-.045-.037-.072-.08-.119-.114-4.965,1.843-4.669,7.738-8.206,10.68-.041.053-.076.106-.116.161-2.372-1.518-4.863-1.109-7.411.178m24.936-23.362c-.031-.022-.061-.047-.094-.069a1.235,1.235,0,0,1,.938-.2,3.682,3.682,0,0,1-.844.274M216.255,343c-.147-.049-.294-.1-.439-.151a3.817,3.817,0,0,0-.785-.987c-.866-.7-1.763-1.377-2.687-2-3.38-1.749-6.61-4.14-10.776-2.466-.031.176-.069.321-.1.474-2.583-1.389-5.411-1.506-8.255-1.528a62.458,62.458,0,0,0-12.486-1.216l-9.652-3.408a3.073,3.073,0,0,0-.037-.748c-.96-1.577-2.1-2.732-4.031-2-4.076-5.112-8.175-10.2-13.626-13.976a5.185,5.185,0,0,0-.394.429,14.487,14.487,0,0,0-5-3.8,20.346,20.346,0,0,0-6.743-5.77,5.63,5.63,0,0,0-.141-.576,4.6,4.6,0,0,0-2.967-2.194c-.072-.025-.131-.016-.2-.035a8.849,8.849,0,0,1-.433-5.635c.188-1.1.3-2.209.4-3.322a5.306,5.306,0,0,0,.19-2.246c.033-.4.061-.8.1-1.2a4.069,4.069,0,0,0,.347-.877,22.988,22.988,0,0,0,1.994-8.093.713.713,0,0,0,.249-.854c1.745-3.265,3.731-6.451,3.459-10.386-.108-2.192.877-4.107,1.543-6.1v0l0,0a77.125,77.125,0,0,0,6.25-13.541l.018-.037v0a3.959,3.959,0,0,0,1.923-2.752,13.693,13.693,0,0,0,2.771-5.1v0c1.892-1.631,2.824-3.878,3.89-6.042a26.881,26.881,0,0,0,4.934-6.187l13.843-13.755a2.869,2.869,0,0,0,2.311-1.373v0l.609.014.574-.2,0,0,0,0,2.4.531a2.054,2.054,0,0,0,2.446.668l1.543.1h0a118.466,118.466,0,0,0,23.17-.437,7.343,7.343,0,0,0,3.1-.486l.517.165.5-.2c1.41,3.022,3.308,3.966,6.859,2.971a82.667,82.667,0,0,0,17.3-6.618,34.873,34.873,0,0,0,13.369-5.035l0,0a2.619,2.619,0,0,0,2.713-1.289c5.6-1.841,10.333-5.145,14.873-8.776a.951.951,0,0,0,1.212-.815,59.721,59.721,0,0,0,13.853-10.128c5.915-3.034,9.857-8.385,14.781-12.586a8.211,8.211,0,0,0,3.657-3.929,1.374,1.374,0,0,0,1.381-1.126,3.4,3.4,0,0,0,2.8-2.446c1.806-.588,2.374-2.323,3.384-3.647a14.517,14.517,0,0,0,3.063-1.966c6.661-7.139,14.728-12.433,22.8-17.75,1.857-1.222,4.076-2.021,5.425-3.96l0,0,0,0L360.02,133.1a8.981,8.981,0,0,0,5.327-.84h0c.591.006,1.183.012,1.774.02,3.7,1.426,7.679.466,11.448,1.312h0c.7,1.671,3.57,2.09,2.709,4.669a.969.969,0,0,0-.423.964,2.979,2.979,0,0,0-2.164,2.006c-2.912,6.673-8.731,11.222-12.521,17.245-2.272,2.346-2.209,6.246-4.738,8.163-4.307,3.265-5.286,7.942-6.532,12.621a3.389,3.389,0,0,0-1.173,2.711c-.689,7.956-1.494,15.9-2,23.873-.262,4.072-1.228,8.138-.45,12.253q-2.657,7.187-5.312,14.374a12.886,12.886,0,0,1-1.353,1.338,5.6,5.6,0,0,0-.588,1.712,8.68,8.68,0,0,0,.033,1.179q-2.725,4.282-5.447,8.565a1.389,1.389,0,0,0-1.1,1.451A6.188,6.188,0,0,0,334.8,250.4a6.141,6.141,0,0,0-2.223,2.812c-.709.1-1.007.629-1.238,1.22v0L321.178,266.47a11,11,0,0,0-3.729,3.835,1.228,1.228,0,0,0-1.244,1.224l-.02.025v0c-2.18.854-3.408,2.8-4.914,4.391-3.069,3.237-6.068,6.538-9.076,9.832a4.89,4.89,0,0,0-2.527,1.018c-1.91.971-3.5,2.219-3.886,4.507a3.566,3.566,0,0,0,.09.417,8.272,8.272,0,0,0-4.689,4.716L290,297.691a1.268,1.268,0,0,0-1.2,1.279l.012,0c-.02.027-.031.059-.049.088a.469.469,0,0,1-.006-.053,48.343,48.343,0,0,0-9.66,12.611.832.832,0,0,0-.417.968c.106.012.215.025.321.039a1.562,1.562,0,0,0-.223.272,2.56,2.56,0,0,1-.141-.266,3.224,3.224,0,0,0-2.039,2.693l-1.308,1.631c-3.161,2.5-4.9,5.942-6.344,9.577-3.557.584-4.407,3.984-6.418,6.177a1.206,1.206,0,0,0-1.054,1.306l-.008.006a19.163,19.163,0,0,1-2.715,2.266c-1.767.548-3.553,1.056-4.818,2.556a19.891,19.891,0,0,0-7.372,4.007v0c-1.861.343-3.694.754-5.057,2.231a13.223,13.223,0,0,0-8.629,2.826,3.29,3.29,0,0,0-.386-.6,22.571,22.571,0,0,1-11.418-3.388c-1.4-.854-2.926-2.309-4.822-.917M413.578,188.53l-.137-.1,0,0c.047.031.086.061.135.092l0,.012m-157.5,184.634c-.078-.057-.145-.112-.235-.172-.478-.319-1.244-.887-.552-1.287.176-.1.347-.217.515-.337a12.137,12.137,0,0,0,.272,1.8M297.91,303.9s-.061.061-.123.121l-.006-.006.127-.139,0,.025m22.2-28.444.018-.018h.006l-.025.018v.051l-.047-.039.047-.012M281.5,428.761c.008.01.01.025.018.035-.008,0-.022-.014-.029-.014l.01-.02m-14.95-64.716c0-.249-.01-.5-.014-.748.345.057.666.129.966.208-.319.178-.633.366-.952.539M259,357.76h0c.006.067.022.129.029.2-.09,0-.165.016-.253.018.076-.07.149-.147.225-.215m12.533,49.929c0,.037,0,.078,0,.114-.025-.016-.047-.035-.072-.051l.067-.063m9.64,51.059a8.627,8.627,0,0,1-.889-.029,1.463,1.463,0,0,1,.889.029m6.587-7.4v0c-.016-.09-.025-.186-.035-.28.029.018.069.027.1.043-.022.08-.045.159-.067.237M331.21,260.485l.045-.033,0,.029-.043,0M370.1,160.994c-.033-.082-.063-.165-.1-.251l-.008-.01-.047,0,.047-.043c0,.014,0,.027,0,.041l.008.01c.063,0,.11-.014.172-.014a2.323,2.323,0,0,1-.074.266M226.5,359.186v0l0,0h0M292.74,467.436c-.016-.01-.031-.012-.045-.022l.047-.039A.6.6,0,0,1,292.74,467.436ZM417.8,158.429a1.844,1.844,0,0,1,.029,1.42c-.041.049-.082.1-.121.151a2.287,2.287,0,0,1-1.743.509c-7.174,5.531-9.291,13.23-9.27,21.834a4.981,4.981,0,0,0,.911.844c-.725,1.365-1.2,2.914-2.73,3.688l-1.206-.018c-2.4-.672-3.986.38-5.108,2.413-6.592.664-11.875,4.317-17.331,7.58h0a1.474,1.474,0,0,0-1.414,1,3.958,3.958,0,0,1-.11.492,5.069,5.069,0,0,1-.276-.789c-3.369-.276-5.964.905-7.533,4.013a3.285,3.285,0,0,0,.041.386,19.656,19.656,0,0,0-5.617,3.639h0l-2.532-.006c-.437-4.939.834-9.867.106-14.809l-.01,0c1.461-2.372,1.044-4.983.973-7.552.1-.417.206-.832.309-1.248a106.785,106.785,0,0,0,6.1-13.761,3.219,3.219,0,0,0,1.381-2.46v0l12.268-15.012c2.462-1.874,3.688-4.644,5.227-7.19,4.095-5.87,3.312-8.988-2.9-11.256-1.543-.564-3.177-.868-4.769-1.291l-2.125-.419c-1.584-1.424-3.486-1.163-5.368-1.009l-2.143-.221c-4.8-1.156-9.6-1.935-14.409-.053h0c-3.271-.2-6.207,1.939-9.532,1.363a1.115,1.115,0,0,0-.153-1.06.922.922,0,0,0,.29-1.036q1.912-5.6,3.827-11.2a1.231,1.231,0,0,0,.846-1.524l.245-1.246c-.114-2.08.821-3.923,1.312-5.868a3.136,3.136,0,0,0,1.122-2.805l5.259-8.6,7.417-12.468c1.232-1,2.423-2.029,2.446-3.809a12.34,12.34,0,0,0,3.41-6.367,5.1,5.1,0,0,0,1.25-4.748c.045-.008.08,0,.127-.01,1.706-6.107,7.4-7.082,12.043-9.458,2.07-1.058,5.233-1.013,5.388-4.326.125.02.253.035.376.065a2.512,2.512,0,0,0,1.69-.022,5.6,5.6,0,0,1,.535-.523q7.273-1.621,14.55-3.241a1.911,1.911,0,0,0,.131.341,6.743,6.743,0,0,0,7.264,2.084,2.94,2.94,0,0,0-.695,1c-.862,4.3-.621,8.676-.562,13.005.057,4.272-.047,8.759,3.212,12.268a5.429,5.429,0,0,0,.717-.2c-.027.092-.055.184-.08.276a1.958,1.958,0,0,0-.407,1.829,3.4,3.4,0,0,0,1.109,1.579l.11.057c.043.031.106.051.155.08s.1.051.149.078c-.092.141-.2.272-.286.419-.529,3.245.488,5.568,3.337,6.806-.035.088-.063.178-.106.262.268,1.927.9,3.527,3.114,3.733-.094.157-.19.311-.28.474.3,6.021,2.452,11.518,4.781,16.969a2.762,2.762,0,0,0,.907-.223c-.008.082-.012.165-.02.245a3.858,3.858,0,0,0-.644,3.228c.033.08.057.172.086.255-1.608,2.852-1.2,5.752.529,8.682a3.289,3.289,0,0,0,1.3.349c-.95,1.6-1.175,2.975,1.1,3.6a2.961,2.961,0,0,0-.409.47,31.479,31.479,0,0,1-5.78,17.176c-.1.149-.053.4-.074.6a2.275,2.275,0,0,0,.159.229l-.159-.031q-.981.72-1.96,1.443c-.027-.043-.037-.086-.063-.129-5.392.7-7.885,4.509-9.7,9.05" transform="translate(0)" fill="#f9c5b3"/><path d="M199.387,24.955v.02h0l.018-.02h-.021" transform="translate(208.01 26.034)" fill="#f9c5b3"/></g></g></svg>