<svg xmlns="http://www.w3.org/2000/svg" xmlns:xlink="http://www.w3.org/1999/xlink" width="1006.049" height="942.924" viewBox="0 0 1006.049 942.924">
  <defs>
    <clipPath id="clip-path">
      <rect id="Retângulo_7" data-name="Retângulo 7" width="856.199" height="535.477" fill="#f9c5b3"/>
    </clipPath>
  </defs>
  <g id="ROSA_BG_02" transform="matrix(0.799, -0.602, 0.602, 0.799, 0, 515.273)" opacity="0.3">
    <g id="Grupo_11" data-name="Grupo 11" clip-path="url(#clip-path)">
      <path id="Caminho_37" data-name="Caminho 37" d="M853.992,95.11c-1.621-.53-2.254,1.025-3.057,1.979a17.177,17.177,0,0,0-1.443,2.4c-5.343-.8-10.69-1.566-16.115-.872l-1.171.038h0c-5-.861-10.175-.72-15.024-2.515a2.218,2.218,0,0,0-2.479-.749l-3.174-.411c-2.481-1.946-5.545-1.553-8.379-2.081l-8.027-3.349c-1.964-.644-3.2-2.728-5.478-2.754a1.71,1.71,0,0,0-1.564-.726l-.184-.127c-.734-1.287-2.045-1.129-3.23-1.3-4.832-3.859-10.5-6.031-16.233-8.09a2.225,2.225,0,0,0-2.308-1.011.636.636,0,0,0-.791-.35c-2.433-1.163-4.64-2.817-7.343-3.393a28.493,28.493,0,0,0-12.855-4.511,1.183,1.183,0,0,0-.933-.42c-1.2-1.369-2.636-2.3-4.526-1.908-3.093.644-6.119-.289-9.179-.259-5.254-2.5-10.9-1.627-16.41-1.9v0l0,0-2.541-.144h0l-1.213-.057c-3.883-.114-7.62.9-11.416,1.462-3.288-1.017-6.271.6-9.384,1.093a19.335,19.335,0,0,0-9.32,4.419,30.673,30.673,0,0,0-6.862,4.682h0a1.582,1.582,0,0,0-1.475.848.7.7,0,0,0-.865.382,6.35,6.35,0,0,0-3.442,2.294l-.044.019a1.249,1.249,0,0,0-1.41.815,7.725,7.725,0,0,0-3.72,2.368h0c-2.064.764-3.509,2.41-5.22,3.676v0a1.36,1.36,0,0,0-1.152,1.211l-.116.1a1.123,1.123,0,0,0-1.243.954,3.7,3.7,0,0,0-2.214,1.511,1.476,1.476,0,0,0-1.116,1.163c-1.542.65-3.039,1.355-3.79,3-1.218,1.032-2.471,2.036-2.9,3.691h0a1.22,1.22,0,0,0-.641.869,10.332,10.332,0,0,0-3.477,4.663c-1.509,1.77-1.715,3.908-1.713,6.1-.116.365-.234.732-.35,1.1l-.241-.063c-.952.551-.943,1.376-.652,2.283h0q-.04,1.146-.08,2.291l-.433,2.367c-1.348,1.81-1.083,4.106-1.846,6.092q-1.334,2.17-2.667,4.342l-1.224-1.2.086-3.233c.03-.4.059-.808.089-1.211a118.112,118.112,0,0,0,1.283-22.147.52.52,0,0,0,.112-.8h0c1.462-4.68.72-9.5.945-14.266q-.043-1.123-.084-2.249a4.872,4.872,0,0,0-.1-3.458c.2-2.437.262-4.859-.922-7.117h0a113.018,113.018,0,0,0-3.359-13.768l0,0v0c-.084-1.293-.082-2.606-1.061-3.632-.371-1.945.266-4.123-1.342-5.78l0,0,0,0c-.186-1.331.182-2.809-1.042-3.861a.44.44,0,0,0-.12-.7c-1.409-4.22-1.407-8.81-3.378-12.884h0c-.909-2.671-.456-5.756-2.454-8.1-.291-1.561.015-3.264-1.1-4.627a7.305,7.305,0,0,0-2.074-4.589,12.442,12.442,0,0,0-1.715-4.545,1.319,1.319,0,0,0-.783-1.376v0c-.047-2.254-1.363-3.817-2.851-5.309-1.718-1.722-3.471-2.076-5.36-.295a1.509,1.509,0,0,0-1.133,1.179,2.5,2.5,0,0,0-1.507,1.869h0l-.939.6-3.326,4.467c-2.287,3.473-4.246,6.978-8.012,9.495-2.532,1.694-6,3.766-6.014,7.868a8.284,8.284,0,0,1-3.731,3.442,15.132,15.132,0,0,0-5.682,4.651C569.654,39.195,565.8,45.7,560.7,51.05c-1.979.979-2.1,3.266-3.351,4.758-2.56,1.6-3.247,4.435-4.514,6.885a6.214,6.214,0,0,0-1.448,4.475,2.084,2.084,0,0,0-1.2,2.344c-1.545,1.188-1.171,2.922-1.275,4.518-.922,4.286-2.119,8.531-2.04,12.975a9.648,9.648,0,0,0-.135,4.492c-.511,1.992.042,3.959.139,5.938a.647.647,0,0,0-.215.852c-1.342,3.1-.848,6.358-.863,9.575q-.108,1.7-.213,3.393v0a3.156,3.156,0,0,0-.762,3.385c-.021.49-.044.983-.065,1.473l0,0h0c.335,2.6-1.078,5.1-.471,7.725q-1,.088-2.007.173c-3.323-5.5-6.062-11.38-10.447-16.2a3.336,3.336,0,0,0-2.346-2.233l-.063-.063h0c-3.431-2.676-5.976-6.524-10.407-7.883l-2.243-1.4c-1.336-1.443-3.136-2.148-4.821-3.039l-1.025-.473a2.168,2.168,0,0,0-2.344-.935l-1.142-.308a.952.952,0,0,0-1.2-.614A23.282,23.282,0,0,0,493.527,88c-4.609-.783-9.219-1.568-13.844-.1-.47.112-.937.222-1.4.335l0,0,0,0c-5.037-.441-10.175-.188-15-2.121l-4.746-1.631C457,82.9,454.687,83.319,452.937,82.3c-2.526-1.654-4.342-4.222-7.132-5.531a.486.486,0,0,0-.644-.348,3.541,3.541,0,0,0-2.583-2.553c-2.674-4.488-6.873-7.62-10.225-11.508a26.121,26.121,0,0,0-7.293-7.843c-.715-1.633-2.218-2.57-3.366-3.819-2.372-2.247-3.678-5.543-6.873-6.98a15.12,15.12,0,0,0-4.784-4.383l.124-.207a11.415,11.415,0,0,0-3.61-3.163l-3.4-3.165a7.684,7.684,0,0,0-3.627-2.61c-.555-.954-1.051-1.962-2.2-2.361l-7.092-5.862-10.242-7.086a1.247,1.247,0,0,0-1.424-.8l-3.551-2.446A18.187,18.187,0,0,0,362.4,5.873a11.2,11.2,0,0,0-9.244-.146,23.72,23.72,0,0,0-15.133,7.079v0c-4.583,4.452-9.09,8.966-11.684,14.971q-.622,1.109-1.241,2.216a1.085,1.085,0,0,0-.825,1.327.869.869,0,0,0-.365.968,14,14,0,0,0-3.252,6.02,2.281,2.281,0,0,0-1.218,2.235q-1.648,2.954-3.292,5.908a.883.883,0,0,0-.3.985c-.838.58-.935,1.526-1.188,2.4a1.05,1.05,0,0,0-.8,1.237,2.685,2.685,0,0,0-.528.96c-1.585,1.716-1.95,4.051-3.047,6.012-4.26,6.168-6.91,13.194-10.5,19.717.114.084.23.165.346.247-.023.01-.042.025-.067.034l-.279-.281c-1.65.54-2.538-.388-3.108-1.716a6.09,6.09,0,0,0-2.418-3.083c-.574-2.249-.914-4.581-2.327-6.531a14.1,14.1,0,0,1-2.754-5.011c.082-.806-.31-1.116-1.064-1.044-.876-3.425-.861-7.3-4.63-9.282-1.112-4.028-4.454-6.423-6.78-9.571-2.072-2.8-4.056-3.7-7.174-2.745l-5.457-.534c-2.847-.015-5.493-1.54-8.4-1.129a9.5,9.5,0,0,0-4.676.131h0c-2.218.011-4,1.3-5.965,2.045l-.006,0a.774.774,0,0,0-.914.357c-1.823.66-3.667,1.289-4.777,3.06h0c-2.866.475-3.416,3.672-5.685,4.849a6.14,6.14,0,0,0-5.17,3.172c-1.821,3.61-5.53,5.294-7.533,8.558-1.142.671-1.285,1.853-1.526,2.984-1.2,1.023-2.175,2.165-2.049,3.887a6.131,6.131,0,0,0-1.31,3.317c-1.581,1.656-1.31,4-2.2,5.91a23.2,23.2,0,0,0-2.5,7.9c-.937,4.668-1.528,9.5-5.809,12.627-2.825,1.848-4.651,4.661-6.864,7.1-1.023.509-1.044,1.494-1.165,2.433a2.331,2.331,0,0,0-2.157,1.4q-2.307,2.78-4.615,5.56-1.765,1.714-3.53,3.431v0h0c-2.469.354-4.02,2.2-5.843,3.6q-1.728,1.109-3.456,2.216v0h0a4.138,4.138,0,0,0-3.486,2.49v0h0a3.871,3.871,0,0,0-2.424,2.2c-2,.644-3.165,2.289-4.486,3.747h0c-3.777.882-6.967,3.017-10.257,4.9-1.667.956-3.385,2.137-1.566,4.437l.011.027h0a.517.517,0,0,0-.186.743c-.758,3.473-4.043,5.273-5.488,8.291-2.038,1.983-4.283,3.824-4.642,6.929a6.154,6.154,0,0,0-2.245,4.693c-1.38,2.123-4.073,3.638-3.172,6.824-2.156,3.271-4.442,6.476-5.2,10.447a4.142,4.142,0,0,0-2.1,3.629,26.449,26.449,0,0,0-3.133,9.158l-.587,3.256a2.09,2.09,0,0,0-.77,2.488q0,.687-.009,1.37h0c-.7,1.428-1.572,2.808-1.161,4.518-.112.393-.222.785-.335,1.177l0,0,0,0a49.086,49.086,0,0,0,.125,27.758h0l0,0c.087,1.3.044,2.638,1.131,3.625.139.93.207,1.876.426,2.787,1.5,6.254,4.079,12.222,4.76,18.7a5.987,5.987,0,0,0,1.728,4.106c.8,2.863,1.192,5.9,3.383,8.181h0c2.828,5.185,7.71,8.432,11.766,12.46l5.817,4.9a1.173,1.173,0,0,0,1.158,1.144,2.773,2.773,0,0,0,1.23,2.258h0c1.511,2.823,4.222,3.767,7.058,4.52h0c1.61.494,2.684,1.34,2.112,3.254-3.406,1.924-2.638,5.482-3.319,8.474a4.136,4.136,0,0,0-1.3,3.112c-.663,5.03-2.524,9.689-4.461,14.321q-1.411,3.376-2.821,6.75c-1.011.949-1,2.171-.909,3.414-4.176,6.225-1.935,11.954,1.359,17.6.935,1.707,1.34,3.792,3.368,4.722,1.631,2.749,1.545,6.421,4.545,8.432v0c.217,1.618,1.682,2.239,2.579,3.323,1.218,1.469-.257,1.692-1.222,2.06a13.069,13.069,0,0,0-7.035-.871l-1.15-.3h0c-4.279-.433-8.512-1.538-12.865-.869l-6.786-.22a6.961,6.961,0,0,0-3.537.205,2.9,2.9,0,0,0-2.34-.215c-2.384-.068-4.841-.652-6.978.994v0l0,0c-3.1.175-6.248-.025-9.17,1.348a24.71,24.71,0,0,0-10.538,3.368,7.511,7.511,0,0,0-3.458,1.329c-2.528.087-4.062,1.77-5.575,3.482l-1.312.975a2.259,2.259,0,0,0-2.275,1.211c-1.654.6-3.444.933-4.7,2.338a1.5,1.5,0,0,0-1.456.992c-1.047.494-2.049,1.034-2.268,2.334h0c-4,2.2-6.231,6.157-9.274,9.307A7.61,7.61,0,0,0,70,398.147h0c-1.851.846-2.828,2.469-3.716,4.172-1.969,1.625-3.089,3.87-4.368,6a5.231,5.231,0,0,0-2.427,3.446,10.966,10.966,0,0,0-3.353,4.725c-1.591,2.636-3.853,4.866-4.8,7.9a.987.987,0,0,0-.793,1.289,1.369,1.369,0,0,0-.393,1.023h0a9.821,9.821,0,0,0-3.292,4.76h0v0a.589.589,0,0,0-.209.266c-.308.393-.618.789-.926,1.18v0c-4.315,3.75-6.168,9.23-9.563,13.627a8.134,8.134,0,0,0-2.96,3.631c-2.133,3.382-4.716,6.507-5.948,10.405h0c-1.123,2.353-3.045,4.271-3.731,6.862a23.37,23.37,0,0,0-3.357,9.356,10.665,10.665,0,0,0-2.218,4.589,13.377,13.377,0,0,0-2.557,5.761l0,0h0c-3.813,3.9-3.908,9.559-6.6,13.994a.894.894,0,0,0-.483.924,2.785,2.785,0,0,0-.855,2.57c-1.515,1.561-1.964,3.56-2.31,5.6l0,0h0a5.638,5.638,0,0,0-1.213,4.819c-.059.363-.116.726-.175,1.089-1.068,3.262-2.235,6.5-3.184,9.791-1.5,5.22-.143,7.044,5.644,7.879.878,1.152,2.142,1.057,3.382,1.042.5.217,1.11.734,1.5.6,4.7-1.585,9.567-1.667,14.437-1.789a2.08,2.08,0,0,0,1.834-1.1,1.21,1.21,0,0,0,.741-.177c4.043.338,8.111,1.025,11.981-.9,2.351-.475,4.935.471,7.1-1.15a37.833,37.833,0,0,0,14.766-2.559l4.554.093c.749.827,1.561,1.125,2.505.293,4.281-.306,8.628-.285,12.534-2.482,5.587,1.087,10.991.006,16.372-1.369l3.767-.177,0,0v0c1.891.217,3.811.61,5.436-.857,3.885-1.414,7.695-3.165,12.028-2.469a2.053,2.053,0,0,0,1.9-1.032v0h0a3.366,3.366,0,0,0,2.646-1.329l0,0,0,0c4.414-.2,8.339-2.287,12.559-3.237a8.748,8.748,0,0,0,6.991-4.6c2.154-1.521,5.423-.783,7.006-3.461,3.155-1.846,6.662-3.144,9.232-5.906.582-.086,1.047-.3,1.11-.981l3.69-1.441c.7.059,1.082-.243,1.1-.962l.021-.023a38.637,38.637,0,0,0,10.493-10.517,5.37,5.37,0,0,0,2.315-3.421,1.272,1.272,0,0,0,.985-1.141,17.922,17.922,0,0,0,4.638-7.067c.981-.428,1.139-1.374,1.416-2.247,1.73-1.629,1.973-4.018,3.066-5.974l.042-.03a.909.909,0,0,0,1.013-1.1c.975-1.483,2.56-2.616,2.652-4.608a3.127,3.127,0,0,0,1.319-2.275,21.97,21.97,0,0,0,3.452-5.763,149.91,149.91,0,0,0,11.3-15.207c1.447-2.321,4.611-3.011,5.537-5.83,2.043-2.712,5.792-4.083,6.305-8a14.523,14.523,0,0,0,4.4-6.986q.547-.687,1.091-1.374l1.245-1.095a2.612,2.612,0,0,0,1.04.148c1.044,1.412.884,3.423,2.311,4.644q.553,3.444,1.108,6.889c-.958.407-.713.867-.059,1.346,1.14,3.007-.975,6.822,2.3,9.3,2.526,2.112,4.332,5,7.246,6.689l.219.038a.64.64,0,0,0,.711.646c.021,0,.03.015.053.015l0,0,5.94,4.009c1.762,1.2,3.328,2.889,5.8,2.351a1.141,1.141,0,0,0,1.213.783c4.184,1.726,7.829,4.783,12.583,5.106,1.006,1.171,2.3,1.177,3.663.9a1.15,1.15,0,0,0,1.047.26v0c.464.711.9.92,1.249-.07,1.034.618,2.023,1.355,3.336,1.186,2.209,1.205,4.623,1.034,7.01,1.034a32.366,32.366,0,0,0,7.875,2.6c1.1,1.049,2.464.973,3.83.886l.029.011a2.037,2.037,0,0,0,2.249,1.118,62.509,62.509,0,0,1,10.333,3.724l3.61,2.022q8.069,5.4,16.136,10.808a2.436,2.436,0,0,0,1.255,1.971,14.9,14.9,0,0,0,8.143,8.073c.711.454,1.264,1.234,2.262,1.1a1.216,1.216,0,0,0,.983.393c.222.665.608,1.061,1.372.814v0l0,0a31.514,31.514,0,0,1,9.671.572c1.737.466,3.728,1.04,5.541-.129a.92.92,0,0,0,.992-.4c3.522.283,6.927-.758,10.407-.931A26.857,26.857,0,0,0,379,492.069h0c4.993-.623,10.175-.013,14.914-2.294a1.144,1.144,0,0,0,1-.264c3.634-.673,7.466-.747,10.405-3.488.378,0,.758,0,1.139,0,2.555,1.19,4.646-.5,6.91-1.112a10.209,10.209,0,0,0,7.056-1.38h0c1.346-1.294,3.45,1.139,4.636-.941a4.833,4.833,0,0,0,3.479-1.144l3.351-.336c4.313-.973,8.719-1.576,12.872-3.19q3.479-.077,6.955-.15v0a107.169,107.169,0,0,1,16.29,1.2c5.353,1.737,10.639,3.7,16.235,4.581,5.262,3.484,10.287,3.266,15.06-.956,3.792-.766,5.95-4.035,9.027-5.906,6.02-3.657,8.3-9.122,7.383-16.018,1.707-1.289,1.059-3.045.941-4.7a57.7,57.7,0,0,0-.566-7.322c-.452-2.237-.806-4.355.057-6.531,0-.006-.327-.141-.5-.215l-2.555-4.6a6.261,6.261,0,0,0-.926-3.733l0-.006a.618.618,0,0,0-.194-.884,2.987,2.987,0,0,0-.956-2.595.481.481,0,0,0,.023-.692,9.51,9.51,0,0,1,8.392-4.57l.428.059.306-.3c4.76-.169,8.386-3.564,12.871-4.518a7.094,7.094,0,0,0,4.528-1.344l1.175-.192v0c2.33-1.083,4.874-1.711,6.972-3.285a3,3,0,0,0,2.3-1.112,2.652,2.652,0,0,0,2.334-1.156c1.73-.376,3.515-.644,4.57-2.34l.042-.04a27.48,27.48,0,0,0,9.438-5.526v0a21.759,21.759,0,0,0,11.386-8.394c2.262-2.844,4.935-5.4,6.147-8.968a2.426,2.426,0,0,0,1.04-2.452c2.026-3.212-.046-6.9,1.173-10.2,2.116-3.418,1.494-7.094,1.023-10.759l.952-8.1v0q.24-1.135.477-2.27l2.165-3.693v0h0l11.416-13.808h0a3.328,3.328,0,0,0,1.38-2.2c1.861-1.716,3.786-3.382,4.762-5.824,2.235-1.73,2.243-4.583,3.448-6.832a1.259,1.259,0,0,0,.876-1.41,3.423,3.423,0,0,0,.475-1.236,18.969,18.969,0,0,0,.544-10.42c.361-2.479.912-4.948,1.042-7.438.232-4.5,1.042-9.059-.823-13.437-.758-3.855-.485-7.917-2.323-11.553,1.625-3.066-.454-5.014-2.133-7.086a16.55,16.55,0,0,1-4.687-9.162v0a4.091,4.091,0,0,0-1.616-2.3h0c-1.7-2.8-2.908-5.934-5.554-8.08q-2.284-2.994-4.571-5.984-.088-1.058-.177-2.118c.639-1.73.954-3.745-.92-4.572-2.711-1.2-4.068-4.121-6.951-4.938a2.943,2.943,0,0,0-2.285-1.173c-3.106-.833-5.06-3.83-8.3-4.425-4.708-2.781-9.567-5.174-15.089-5.862a6.245,6.245,0,0,0-5.721-1.091,5.584,5.584,0,0,0-2.45-2.034,12.249,12.249,0,0,0-4.49-1.549,10.332,10.332,0,0,0-5.837-2.363c-1.207-1.623-3.393-1.061-4.834-2.163h0c-.815-1.277-2.515-.66-3.473-1.61-1.08-1.07-1.724-2.146.167-3.066,3.925.032,7.908.713,11.677-1.028l2.224-.295,9.586-1.872c2.6-.595,5.395,0,7.9-1.234l2.3-.154v0h10.373a7.7,7.7,0,0,0,4.309.209l0,0v0c1.464,1.249,3.243.441,4.828.764,2.619.532,5.632-1.026,7.877,1.452a1.021,1.021,0,0,0,.392,1,48.525,48.525,0,0,0,6.643,9.941,1.154,1.154,0,0,0,.34.42c2.026,1.631,2.671,4.265,4.421,6.1,2.5,5.621,6.689,10.014,10.62,14.593l2.311,2.585a1.386,1.386,0,0,0,1.006,1.574v0a.459.459,0,0,0,.336.663,5.905,5.905,0,0,0,2.091,3.591,2.513,2.513,0,0,0,1.274,2.23l.006.017c.336,2.4,1.92,4.132,3.19,6.035a2.951,2.951,0,0,0,1.1,2.268c1.2,3.577,3.621,6.4,5.82,9.35l0-.01,0,.011a6.983,6.983,0,0,0,2.484,3.441v0l3.53,7.949,3.866,8.041a6.459,6.459,0,0,0,1.935,3.606,5.829,5.829,0,0,0,2.14,3.762.632.632,0,0,0,.363.736c.574,1.965,1.361,3.79,3.212,4.923.43,1.376.648,2.908,2.433,3.279.648,2.973,3.095,4.722,4.752,7.008l5.6,5.856,0,0a.963.963,0,0,0,.331.935c1.065,1.6,2.178,3.14,4.193,3.644l0,0,1.237,1.353,0,0a1.276,1.276,0,0,0,1.294.931,1.243,1.243,0,0,0,1.179,1.116c1.878,1.8,4.368,1.941,6.71,2.484l18.767,3.142,0,0v0a21.76,21.76,0,0,0,8.179,1.4,6.753,6.753,0,0,0,4.6.945v0a3.085,3.085,0,0,0,2.361.133,20.018,20.018,0,0,0,7.792,1.357c2.275,1.386,4.879.842,7.322,1.249a3.06,3.06,0,0,0,3.406.795q1.132.183,2.264.361a3.874,3.874,0,0,0,3.543.918l.019.006c2.431,1.825,5.292,2.758,8.037,3.954s5.077.863,7.13-1.323a5.677,5.677,0,0,0,2.443-3.61v0c1.137-3.034-.182-5.71-1.22-8.428a.761.761,0,0,0-.276-.941q-.143-.73-.283-1.46c.211-.528.093-.9-.492-1.066.12-2.654-1.407-4.7-2.536-6.9h0c-1.255-7.351-4.167-14.144-7.024-20.955v0c-1-3-2.041-5.976-4.484-8.185-1.64-4.207-4.551-7.6-7.145-11.2h0q-.539-.77-1.078-1.538h0l0,0c-1.772-4.155-5.233-6.982-8.082-10.291l0,0,0,0-.1.006a1.011,1.011,0,0,0-.9-1.312q-1.953-2.315-3.9-4.63c-.057-.675-.43-.912-1.074-.776a1.539,1.539,0,0,0-.945-.335c-1.7-2.834-3.15-5.856-6-7.811-1.1-1.315-2.013-2.811-3.617-3.621-1.988-3.068-4.891-5.163-7.755-7.3a4.8,4.8,0,0,0-2.1-2.252c-3.041-3.958-7.233-6.643-10.915-9.894a1.017,1.017,0,0,0-.96-.43,1.219,1.219,0,0,0-1.253-1.013l1.22,1.015v0a7.435,7.435,0,0,1-1.218-1.019l-.063-.04a.936.936,0,0,0-1.051-.789l0,0,0,0a2.908,2.908,0,0,0-2.256-.783,4.07,4.07,0,0,0-3.446-2.209c-1.836-1.388-3.536-3.024-6-3.26-.882-1.11-2.127-1.129-3.382-1.12a5.978,5.978,0,0,0-4.855-2.152h0c-1.123-.388-1.886-1.661-3.3-1.35q-1.212-.65-2.422-1.3c-2.439-1.705-5.4-2.091-8.075-3.211-3.576-2.23-7.634-3.338-11.485-4.923a3.641,3.641,0,0,1-1.215-.968l0,0a4.327,4.327,0,0,0-1.874-1.4,15.662,15.662,0,0,1,3.169.1l2.1.386a.819.819,0,0,0,1.064.03,4.54,4.54,0,0,0,1.648.694c3.79.688,7.092,3.619,11.285,2.456a2.725,2.725,0,0,0,2.363-.021c2.72.585,5.436.133,8.151-.034v0l0,0c3.553,0,7.157.633,10.588-.865l2.114-.285,1.209-.1v0l0,0c4.37.16,8.478-1.2,12.648-2.19,2.4.015,4.893.833,7.094-.84l6.9-1.543c3.131-.572,6.489-.023,9.35-1.91q1.109-.177,2.22-.352a25.361,25.361,0,0,0,6.957-2.209,25.661,25.661,0,0,0,8.136-2.285,3.417,3.417,0,0,0,2.3-1.2,3.883,3.883,0,0,0,3.492-1.146c1.3.049,2.311-.72,3.414-1.228h0c1.743.15,3.163-.861,4.735-1.319v0l0,0,2.34-1.161c2.749-.561,5.626-.641,8.1-2.2a5.964,5.964,0,0,0,3.663-.933l2.091-.308a2.909,2.909,0,0,0,2.414-.182l0,0,0,0c7.582-2.31,15.323-4.218,21.989-8.814a8.166,8.166,0,0,0,3.731-2.425.692.692,0,0,1-.738-.133c.017-.027.023-.053.04-.08l.027.03c.226.059.449.122.673.182q2.783-2.315,5.569-4.629h0q5.249-3.969,10.5-7.936a45.809,45.809,0,0,0,7.978-6.269q2.891-2.261,5.784-4.52a4.473,4.473,0,0,0,2.222-2.306l.057-.036a1.084,1.084,0,0,0,1.173-1.03l2.359-2.361,6.05-5.48c2.38-2.262,5.014-4.279,6.813-7.1l.118,0c1.532-2.319,3.885-3.813,5.784-5.763h0a1.439,1.439,0,0,0,1.049-1.241c1.623-1.9,3.938-3.233,4.7-5.826a3.544,3.544,0,0,0,2.076-2.422l.046-.068a2.428,2.428,0,0,0,1.363-2.129l.025.072a1.475,1.475,0,0,0,1.186-1.131,8.82,8.82,0,0,0,3.235-4.834c1.564-1.348,1.85-3.256,1.986-5.109.127-1.728-.253-3.517-2.184-4.148m-70.456,67.107c.011.034.038.076.051.112-.042.006-.08,0-.124,0a1.07,1.07,0,0,1,.072-.116m-11.58.221c-.017-.019-.027-.034-.044-.053l.051,0-.008.051m20.911-11.717,0-.029v0l.046.042c-.017-.006-.032-.008-.048-.011m8.048.122h0c-.008.055,0,.108-.011.163l-.163-.025C800.8,150.93,800.852,150.9,800.915,150.842Zm-76.75-80.185c0,.061-.009.1-.008.156-.042-.032-.08-.067-.122-.1.046-.023.08-.038.129-.061m-39,6.117h.049q2.15-.656,4.3-1.313c1.678-.108,3.5.357,4.809-1.213v0l0,0a87.182,87.182,0,0,0,15.271-1.083,7.991,7.991,0,0,0,1.692.994c3.119.8,6.292.542,9.453.464A12.885,12.885,0,0,0,723,74.109a49.233,49.233,0,0,0,7.335,1.1,8.212,8.212,0,0,0,.821.8c2.445.833,4.859,2.45,7.379.165.217-.2.321-.148.58.146,3.119,3.553,7.482,4.1,11.751,4.874a6.794,6.794,0,0,0,.968-.165,14.4,14.4,0,0,0,3.182,1.22,4.767,4.767,0,0,0-.006.639c3.138,3.821,7.907,4.155,12.127,5.661a3.745,3.745,0,0,0,.616-.369,25.257,25.257,0,0,0,7.364,3.678c.96.9,2.213.928,3.4,1.135l3.131,1.671c.053.091.091.186.15.274a1.78,1.78,0,0,0,.937.489,6.224,6.224,0,0,0,4.14,1.981l2.532,1.19a1.916,1.916,0,0,0,2.167,1.133c-.013.027-.023.055-.036.084a1.825,1.825,0,0,0,.348,1.492c6.7,3.646,13.686,6.374,21.47,6.345-.006.021-.01.046-.013.067a4.673,4.673,0,0,1-.886,1.247c-1.64.093-3.456-.6-4.745,1.064l-6.769,2a2.285,2.285,0,0,0-1.285.38h0c-3.416-.614-5.621,3.167-9.052,2.494-1.34,1.258-3.5-.331-4.716,1.353l.162-.07a1.187,1.187,0,0,0-.6.711,1.594,1.594,0,0,0-1.96.295c-2.1,2.665-5.7,1.652-8.193,3.345a29.9,29.9,0,0,0-8.006,2.532l-1.262.135a2.422,2.422,0,0,0-2.477.7c-1.557.236-3.159.317-4.467,1.367a10.223,10.223,0,0,0-5.788,1.306c-3.435,1.1-7.054,1.006-10.559,2.3-7.14,2.635-14.585,4.444-21.905,6.594a2.5,2.5,0,0,0,.268.593,3.2,3.2,0,0,0-.363.1.526.526,0,0,1,.1-.7,55.851,55.851,0,0,0-12.774,2.638q-1.143.1-2.285.2c-2.642.812-5.558.321-8.075,1.715-2.7,1.37-5.925.91-8.556,2.494h0a.473.473,0,0,0-.72.2l-5.921,1.26v0c-3.895,1.466-8.143,1.964-11.715,4.307v-.049q-.961.225-1.922.449c-3.271,1.209-6.788,1.872-9.514,4.29-.9.2-1.846.31-2.365,1.236l.144.224c-.019.025-.04.04-.059.063L657,154.21c-1.245.124-2.541.11-3.435,1.224l.144.205,0,0c-.048-.07-.1-.141-.143-.209l-3.46,1.142c-3.357.515-6.176,2.53-9.413,3.38a11.951,11.951,0,0,0-4.524,2.372q-.579.023-1.154.042l-1.169.236q-.8.382-1.587.766h0c-5.349.84-9.711,4.119-14.665,5.938-1.656,0-2.6,2.463-4.589,1.313a3.311,3.311,0,0,0,.184-1.078,1.158,1.158,0,0,0,.724-1.38h0q1.235-2.272,2.467-4.549a.934.934,0,0,0,.319-.971,5.4,5.4,0,0,0,2.27-3.551,3.592,3.592,0,0,0,2.049-2.543l.036-.048a.884.884,0,0,0,.88-1.023,19.674,19.674,0,0,0,3.733-4.874c2.513-2.878,5.332-5.509,7.185-8.917l0,0h0a1.274,1.274,0,0,0,.964-1.353,26.025,26.025,0,0,0,4.8-6.927v0h0c.971-.314,1.175-1.152,1.361-2l-.055-.1a2.123,2.123,0,0,0,.5.061c3.711-3.684,5.558-8.014,4.612-13.315a1.989,1.989,0,0,0-.681-.747c.027,0,.053-.011.08-.011l.011-.008c.549-.2.869-.525.61-1.154l.057-.886a3.168,3.168,0,0,0,1.163-1.11,6.09,6.09,0,0,0-.158-4.847,3.855,3.855,0,0,0-.352-.407,13.054,13.054,0,0,0,2.005-4.2c2.8.192,3.921-2.03,5.375-3.769.287-.418.574-.834.835-1.27.135-.213.289-.412.424-.622a10.662,10.662,0,0,0,.812-1.277c.046-.1.074-.2.112-.3,2.11-1.028,3.589-2.84,5.29-4.378.253-.036.506-.07.758-.1,1.15-.255,2.258-.568,2.806-1.775a2.432,2.432,0,0,0-.167-.745,1.308,1.308,0,0,0,1.332-1.007l2.294-1.313v0l0,0c3.167-.966,5.516-3.155,7.921-5.262a5.487,5.487,0,0,0,.859.259c3.912-.755,7.389-2.1,8.75-6.354m22.9,61.332a8.975,8.975,0,0,0,.591,1.642,1.257,1.257,0,0,1-.591-1.642m4.769,7.008a4.2,4.2,0,0,1-2.005-1.848,7.255,7.255,0,0,0,2.005,1.848M650.2,162.606l-.017.029,0-.038.019.008h0l0,0m50.805,160.081h0l0,0h0v0M285.9,455.862l-.006-.008.011,0-.006,0v0M277.683,56.713l-.036.017.01-.038.027.021m123.066,89.315.152.272-.226.219-.03,0c.036-.162.07-.325.1-.489m20.7-86.229.023-.006c-.034.137-.078.262-.122.388.038-.125.066-.255.1-.382M486.54,95.1l.006,0-.006,0V95.1l-.089,0c.015-.025.032-.048.049-.072.015.023.023.046.04.068m66.1-23.2c-.021-.006-.034-.019-.057-.027.025-.017.044-.036.067-.055,0,.029-.01.055-.01.082l.03.036-.017.013-.013-.049M640.8,221.6l.067.034c-.021.017-.036.04-.057.057,0-.03-.008-.061-.01-.089l-.021-.034-.034,0,.034-.025v.023l.021.032M456.35,271.431l.038.038-.038-.038M231.273,66.033a1.806,1.806,0,0,1-.137.238,1.718,1.718,0,0,1,.051-.224c.029-.006.055-.006.086-.013M541,130.956c.017.025.036.044.055.067.051.118.137.316.139.316l0,0c-.16,0-.317-.008-.477-.013l.287-.367m-26.665,77.809v0c-.087.008-.175.01-.262.017a1.709,1.709,0,0,1,.221-.361c.013.112.021.217.042.342m23.207-24.008c.027-.015.057-.029.082-.044a2.3,2.3,0,0,0,.488-1.39c-.025-.143-.053-.283-.082-.424a3.216,3.216,0,0,0,.785-1.652,1.96,1.96,0,0,0,.407.059c1.439-.464,1.916-1.737,2.376-2.95.546-1.443.922-1.023,1.285-.492-.03.251-.061.5-.07.76a4.3,4.3,0,0,0,1.209,2.865c-.836,1-.969,2.365-1.511,3.518a4.624,4.624,0,0,0-4.387-.23c-.169.055-.338.112-.506.169-.019-.065-.051-.125-.076-.19m-5.946-60.127c0,.015,0,.038,0,.057a5.438,5.438,0,0,1-.585-.129,4.27,4.27,0,0,0,.587.072m-13.821,51.522.072.011c-.027.021-.047.034-.074.055l0-.067m8.208-8.923-.067.042v0l0,0c-.01-.034-.01-.07-.017-.106.027.023.059.042.086.063m9.5.971c-.053-.057-.108-.114-.161-.173h0c.034,0,.068,0,.1,0,.021.059.038.114.057.169m-8.438-47.365a.436.436,0,0,1-.042.042l.036-.044.006,0m-53.115,76.49.011.048h0l-.057,0c.017-.011.03-.03.048-.044M481.9,234.39c0-.025,0-.046,0-.07l-.008,0,.006,0,0,.008.061.03-.059.04m39.458-74.311c-.029,0-.051.006-.078,0,.013-.032.025-.065.038-.1l.04.1M417.229,196.027a49.338,49.338,0,0,0,10.342,9.28c2.54,2.96,5.206,5.756,9.059,7.02a16.868,16.868,0,0,0,4.813,3.454,3.685,3.685,0,0,0,.572.312c1.6.869,3.125,1.9,5.026,2.043,1.8,1.064,3.594,2.188,5.822,1.2,3.452,3.034,7.582,2.376,11.635,2.131q1.714.12,3.429.236l3.45,2.327a1.062,1.062,0,0,0,1.152,1.1l.006,0c3.518,3.264,4.956,7.115,3.83,11.688-.152.165-.316.312-.462.489a2,2,0,0,0-.177,1.015,6.4,6.4,0,0,0-4.811,2.781c-.046.1-.055.2-.1.3a70.827,70.827,0,0,1-10.219-.051,85.173,85.173,0,0,0-21.63.954v0c-2.346,0-4.834-.688-6.754,1.384-2.171.376-3.439,3.252-6.126,2.2-2.6-1.013-5.239-.24-7.864-.143-1.517-1.785-3.631-2.566-5.718-3.395-1.384-4.716-6.056-5.028-9.449-7.054-.361-1.173.1-2.583-1.013-3.543a59.58,59.58,0,0,1-2.642-16.018q-.029-.984-.061-1.965c-1.182-.992-1.45-2.551-2.321-3.735-2.6-2.9-5.212-5.784-9.1-7.008a46.349,46.349,0,0,0-11.548-5.63l-1.975-.439a14.6,14.6,0,0,0-5.984-3.412c-1.848-2.188-4.72-2.271-7.062-3.444-.019-.928.1-1.924-1.129-2.241l-4.955-5.891c-1.068-2.515-3.4-2.062-5.433-2.317h0a1.1,1.1,0,0,0-1.1-1.3c-.694-1.038-1.827-.89-2.842-1.047l-.006,0,0,0c-5.609-1.842-5.609-1.842-5.723-7.9,2.268-4.486.928-9.3,1.251-13.958a35.208,35.208,0,0,1-.084-8.126c1.12-2.062,1.593-4.518,3.65-6.014,2.511-.179,4.632-.738,6.026-3.306,1.139-2.1,2.971-3.824,4.5-5.716l3.406.049h0a6.619,6.619,0,0,0,3.728,1.865,1.213,1.213,0,0,0,.812.4c1.443,2.747,4.589,3.115,6.759,4.845A8.887,8.887,0,0,0,374.953,143a3.18,3.18,0,0,0,2.214,2.119c.557,2.241,2.728,3.02,4.092,4.53,2.684,1.908,3.748,5.292,6.5,7.14,1.49,1.139,1.049,3.442,2.7,4.48-.013.658.367.949.964,1.042l.044.063a1.132,1.132,0,0,0,1.017,1.264,28.016,28.016,0,0,0,4.391,6.668c-.07.112-.135.226-.2.338-.658,2.884,1.458,4.322,3.138,5.988a7.9,7.9,0,0,1,1.578,1.388,3.984,3.984,0,0,0,.776,1.175,4.7,4.7,0,0,1,.43,1.46c.585,1.085,1.264,1.983,2.54,1.665-.017.076-.032.143-.049.22a62.356,62.356,0,0,0,12.141,13.488m43.544,95.236.734-.074a5.783,5.783,0,0,1-.815.234c.544,3.2,2.279,5.02,5.689,4.916a2.8,2.8,0,0,0,.346-.325l0,.013a3.723,3.723,0,0,0,2.386,2.112,1.589,1.589,0,0,0,1.121,1.051,2.057,2.057,0,0,0-.217.283,1.892,1.892,0,0,0,.947,1.62c-.618.5-1.6.665-1.633,1.686q-.456,1.759-.912,3.522c-.31.228-.633.439-.935.681a3.7,3.7,0,0,0-1.266,2.84,2.134,2.134,0,0,0,.116.445l-4.406,6.335c-3.043,2.979-4.594,6.927-6.79,10.455-2.064,1.454-1.954,4.127-3.336,5.963a2.009,2.009,0,0,0-1.142,2.142.883.883,0,0,0-.184,1.044,3.828,3.828,0,0,0-.9,2.517c-.519.755-1.359,1.462-.354,2.437a8.064,8.064,0,0,0,1.241,4.63h0a38.54,38.54,0,0,0,2.471,10.323l.017.682a3.374,3.374,0,0,0-1.127,1.629c-.418,2.942-1.308,5.965,1.456,8.352a1.566,1.566,0,0,0,.665-.124l-.034.076c-3.7,2.578-2.6,6.113-1.9,9.569a2.591,2.591,0,0,0,.477.658c-1.479-.224-2.04.732-2.317,2.055a2.635,2.635,0,0,0,.11.247,12.029,12.029,0,0,0-3.306,3.821l0,0h0c-1.614,1.087-3.279,2.129-3.762,4.224-1.23,1.414-3.26,1.912-4.2,3.661-1.036.793-2.6.859-3.163,2.311-.958,1.315-2.617,1.454-3.855,2.3a31.986,31.986,0,0,1-9.476,1.336L413.5,396.9v0l-1.251-.046a1.11,1.11,0,0,0-1.085-.12l0-.061h0c-3.6-.829-6.687-3.239-10.5-3.44-1.093-.848-1.8-2.241-3.389-2.386a1.947,1.947,0,0,0-2.37-.945q-3.439-1.3-6.881-2.6a4.708,4.708,0,0,0-3.418-2.353l.006-.017c-3.093-2.684-6.953-3.975-10.521-5.8a6.886,6.886,0,0,0-4.463-2.348,26.006,26.006,0,0,0-9.3-5.607c-.116-.758-.3-1.591-1.04-1.88-3.116-1.23-4-3.671-3.895-6.737a1.994,1.994,0,0,0-.9-1.914c-.108-.779-.642-1.042-1.34-1.108q-1.753-1.7-3.507-3.389a9.51,9.51,0,0,0-3.935-4.454c-1.855-1.272-1.889-2.943-1.825-4.79.985-5.564-2.76-7.639-6.93-9.4-.384-1.093-1.323-1.3-2.3-1.447-.046-.658-.517-.823-1.055-.911-.726-1.473-3.583-1.747-2.414-4.286q2.78.351,5.566.7h0c4.952-.519,9.877-1.41,14.9-.9a7.319,7.319,0,0,0,4.946-1.281c2.5-.312,5-.635,7.128-2.157l.511.04.452-.24c3.172-.717,6.554-.473,9.525-2.1,1.226-.1,2.538.1,3.488-.985l1.114-.376a41.88,41.88,0,0,0,12.631-4.357,6.719,6.719,0,0,0,4.783-2.11A57.416,57.416,0,0,0,412.31,306.27c1.977-1.133,3.2-3.022,4.659-4.667,1.141-.152,1.2-1.1,1.416-1.927v-.006l0,.006c2.059-1.131,3.015-3.2,4.245-5.028,1.785-1.363,2.76-3.528,4.91-4.6a4.731,4.731,0,0,0,2.361-4.281c1.1-1.262,2.912-1.851,3.429-3.659l0,0,0,0c1.639-1.9,4.178-3.108,4.589-5.955l2.239-.063h0c2.2,2.555,5.273,3.94,7.942,5.868,3.48,4.115,8.3,6.4,12.671,9.306m-23.108,104.4.032.013-.03.019,0-.032m17.754-19.63c-.025.082-.046.163-.07.243l-.156-.211c.074-.011.152-.017.226-.032m.914-46.563a.215.215,0,0,1,.163.1,1.542,1.542,0,0,0-.163-.1v0c-.029-.013-.038-.036-.063-.051.025,0,.051-.013.076-.019l-.013.07v0M418,400.082l.034-.015-.006.029a.131.131,0,0,0-.029-.013M263.741,308.969a3.933,3.933,0,0,1-.454.6c-1.047-.631-1.842-.057-2.545.935-.025.1-.036.2-.059.3a2.247,2.247,0,0,0-1.5,1.025,2.409,2.409,0,0,0-.758-.635,8.7,8.7,0,0,0-8.565,1.931,1.823,1.823,0,0,1,.268.988,1.356,1.356,0,0,1-.217-.11c-.5.192-1,.384-1.492.572l0,0v0c-2.414-.808-4.381,1.082-6.657,1.1a24.6,24.6,0,0,1-4.539-5.993l-.063-6.919q1.756-5.791,3.515-11.578c3.121-4.642,5.214-9.955,9.17-14.051l1.2-1.112v0a26.323,26.323,0,0,0,4.965-5.469,7.93,7.93,0,0,0,3.228-3.678,3.785,3.785,0,0,0,2.2-3.556,1.384,1.384,0,0,0,.173-1.049l0,0h0c4.925-7.16,4.912-10.1-.036-17.488a3.894,3.894,0,0,1-.323-1.1c.709-1.464,1.631-2.866,1.359-4.621q1.682-4.143,3.363-8.282c1.224-2.325,2.066-4.984,3.75-6.908,3.644-4.163,6.64-8.569,7.942-14.005q4.072-4.02,8.141-8.044l.013,0a2.153,2.153,0,0,0,2.351-1.07l.025-.029c1.483-.108,2.973-.527,4.435.112a1.218,1.218,0,0,0,1.2,1.237q1.62,1.679,3.239,3.357a10.7,10.7,0,0,0,3.513,3.608l3.9,6.837h0l0,0q.054,2.2.11,4.4c-.785,3.579-3.593,6.132-4.82,9.487a.906.906,0,0,0-.741,1.047l-.47,1.148a6.523,6.523,0,0,0-2.424,4.56l-.03-.013c-2.482,5.611-5.223,11.158-4.321,17.6-.354,1.34-.4,2.6.89,3.517a2.368,2.368,0,0,0,.876,2.469c.447,1.743.848,3.511,2.619,4.48,1.365,2.1.806,4.878,2.4,6.9.154,2.346-.194,4.779,1.2,6.91-.47,4.585.743,9.345-1.437,13.751h0l-4.307,4.9a4.605,4.605,0,0,0-2.481,2.144,8.243,8.243,0,0,0-3.9,2.771,7.536,7.536,0,0,0-1.177.086c-1.855.49-4.224.051-5.123,2.26a5,5,0,0,0-1.739-.325c-5.49,1.028-11.048,1.846-15.864,5m-78.8-181.332h0l0,0h0v0M332.3,155.374v0l0,0,0,.006Zm41.712-20.824c.011-.025.025-.048.036-.07l.027.059-.063.011,0,.008,0,0,0,0H374l.008-.008m12.753,14.481c.027.144.072.285.1.428a2.477,2.477,0,0,1-.367-.032c.1-.143.169-.26.262-.4m-26.61-20.193-.048-.017.019-.013c-.017-.089-.011-.175-.021-.264.063.027.125.061.188.082-.055.065-.114.114-.167.182l.029.03M259.116,323c-.338,2.9-2.1,5.165-3.458,7.6l-3.57,4.389a12.986,12.986,0,0,0-3.477,3.659,7.666,7.666,0,0,0-3.093,3.515c-1.2,1.536-3.207,2.321-3.969,4.264a9.374,9.374,0,0,0-3.313,2.686,4.082,4.082,0,0,0-2.072,2.429l-.133.158c-3.646,4.771-6.594,9.858-7.223,15.99q-.59,1.659-1.18,3.317a2.5,2.5,0,0,0-.969,2.363,12.008,12.008,0,0,0-5.531-1.365c-.091.048-.148.116-.232.169-.54-4.005-3.783-5.085-6.968-6.221a3.392,3.392,0,0,0-.386.141c-1.791-3.71-4.959-4.885-8.955-4.528-.122.135-.2.289-.308.43l-8.824-5.134a5.328,5.328,0,0,0-3.486-2.827q-3.433-2.523-6.868-5.045a4.67,4.67,0,0,0-2.958-2.264c-.162-.086-.321-.171-.485-.255l-.013,0a2.465,2.465,0,0,0-1.5-1.832c-.937-1.846-2.771-2.54-4.435-3.454a8.189,8.189,0,0,1-2.562-3.642h0q.479-1.3.96-2.6a6.1,6.1,0,0,0,2-.07c3.916-2.224,6.657-4.921,4.245-9.689.154-.146.312-.289.464-.437a5.92,5.92,0,0,0,.342-4.992c0-.622-.458-.825-.947-.964a1.011,1.011,0,0,0,.192-.8c-.008-.021-.01-.049-.017-.07.435.228.9.373,1.285-.165a14.525,14.525,0,0,0,1.85-11.823,2.688,2.688,0,0,0-.912-1.114c1.756-2.853,3.939-4.442,7.5-2.534a9.03,9.03,0,0,0,3.288.724,30.582,30.582,0,0,0,3.2.327,2.332,2.332,0,0,0,1.317-.608l.893.367a25.615,25.615,0,0,0,6.9,4.4v0c1.834,1.485,3.887,2.479,6.259,1.819a4.051,4.051,0,0,1,4.111,1.152c3.083,2.787,6.872,4.4,10.479,6.307a1.57,1.57,0,0,0,1.182,1.211l.359,1.1c-.2.612-.087,1.087.582,1.319v0l.188-.238-.158.26a5.475,5.475,0,0,0,2.41,4.537h0c1.758,3.627,2.061,3.75,6.263,2.361l.061-.019.445.11.4-.224c2.808-.469,5.723-.542,8.2-2.235,1.675.048,3.326,0,4.644-1.264,2.606-.175,5.087-1.669,7.989-.69M142,245.129l-.084.048c.013-.034.021-.068.034-.1.017.017.03.036.049.053M378.31,310.813a.633.633,0,0,1,.479-.711c-.16.217-.319.452-.479.711m-77.147-214.9a.519.519,0,0,1-.049.042l.021-.051a.168.168,0,0,0,.029.01m-4,2.878c-.013-.065-.044-.131-.061-.2.112,0,.224,0,.336,0l-.015.017-.26.181M266.041,70.808c.013.023.032.044.048.065-.034,0-.065,0-.1,0Zm30.269,33.618v-.006l.042-.021.021.008c-.021.008-.042.011-.063.019M271.9,61.455c0-.034-.013-.055-.017-.089l.063.049-.046.04m-5.932,9.432a1.194,1.194,0,0,0,.966,1.283,2.658,2.658,0,0,0-.1,1.173,10.473,10.473,0,0,0,.871,2.176,6.149,6.149,0,0,0,2.629,2.941c-1.034,2.448-.2,4.212,2.41,5.328-.365,1.023-.238,1.8.973,2.04a4.138,4.138,0,0,0,.471.745,5.6,5.6,0,0,1,.489.557,13.323,13.323,0,0,0,1.595,2.564c.295.616.587,1.232.933,1.815.19.16.378.329.565.492l.017,0c.072.458.431.705.924.853q3.068,7.128,6.14,14.256a5.559,5.559,0,0,0-.162,2.194,10.527,10.527,0,0,0,5.372,8.1,3.014,3.014,0,0,0,.709-.011c.65,1.464.506,3.266,1.878,4.423l0,0v0a3.159,3.159,0,0,0,2.5,2.3c.321.412.641.825.962,1.239.23,1.526,1.367,2.49,2.249,3.614v0a8.387,8.387,0,0,0,2.718,5.587c1.312,3.463,4.113,5.76,6.539,8.35.259,1.215.015,2.655,1.494,3.321v0a15.048,15.048,0,0,0,2.121,9.287,2.022,2.022,0,0,0,1.133,2.368c1.534,4.878,4.068,9.4,5.147,14.441.065.3.532.517.814.774,0,.665.262,1.1,1,1.095v0c-.047,1.321-.04,2.625,1.2,3.507.4,2.652-1.087,5-1.22,7.569-2.068,5.09-5.49,9.232-9.227,13.15h0q-.508.516-1.019,1.028c-1.5,1.179-2.914.509-4.332-.186a2.845,2.845,0,0,0-1.3-2.262,4.927,4.927,0,0,0-1.513-3.2,11.057,11.057,0,0,0-4.309-7.284c-.534-1.372-1.707-2.2-2.7-3.184a13.113,13.113,0,0,0-6.833-5.649v0c-1.268-1.346-2.517-2.726-4.6-2.631h0a4.186,4.186,0,0,0-3.8-.681q-5.03,1.029-10.055,2.074l-1.121.084a2.692,2.692,0,0,0-2.431.855,8.492,8.492,0,0,0-4.672,2.3c-2.053,1.042-4.514,1.688-4.556,4.686a10.545,10.545,0,0,0-2.576,4.452c-1.061.49-1.015,1.563-1.294,2.463a2.913,2.913,0,0,0-1.787,2.484,5.854,5.854,0,0,0-1.447,3.416v.01l0-.008c-.259.489-.8,1.023-.732,1.462.852,5.588-2.057,9.388-5.893,12.81a7.537,7.537,0,0,0-2.446,3.093,4.751,4.751,0,0,1,.431.4h0l0,0c0,.021-.008.042-.01.065-.141-.154-.281-.308-.422-.464-2.1,2.144-3.345,4.917-5.64,7.024a10.244,10.244,0,0,0-3.553,6.94c-1.072,4.233-.747,8.082,2.975,11.034a18.784,18.784,0,0,1,1.534,1.53l6.324,6.064q.488.507.975,1.019l3.041,4.8q1.158,2.965,2.313,5.934a1.068,1.068,0,0,0,.217,1.013l0,0,0,0a11.391,11.391,0,0,1-1.334,4.4,22.072,22.072,0,0,0-4.752,6.984,4.716,4.716,0,0,0-2.228,3.418,14.668,14.668,0,0,0-4.855,5.754c-1.53,2.209-3.389,4.271-3.2,7.238-.637,2.262-1.274,4.524-2.064,7.337-1.665-1.251-2.631-3.2-4.7-2.916l0,0,0,0c-4.155-2.923-8.252-5.936-12.872-8.12-.156-.675-.679-.882-1.274-.992a1.892,1.892,0,0,0-2.222-1.023l-1.108-.34c-.72-2.152-2.77-2.61-4.473-3.507q-5.229-3.413-10.46-6.824c-.388-1.218-1.4-1.095-2.321-1.146.84-4.182-2.144-5.218-5.223-6.172a4.094,4.094,0,0,0-.722.122c.23-1.595-.878-2.2-2.258-2.6a4.177,4.177,0,0,0-.527.078,4.465,4.465,0,0,0-1.724-1.9c-.03,0-.046.008-.072.008.07-.154.141-.306.213-.46-.928-2.522-1.935-4.971-5.089-5.4-.082.074-.143.165-.217.245l-3.064-2.435a14.891,14.891,0,0,1-3.762-5.982h-.008l.006,0c.409-1.39-.6-2.273-1.182-3.307v0l.068-2.737a9.133,9.133,0,0,0,1.1-.865c3.359-5.381,0-11.131.907-16.642a3.649,3.649,0,0,0-.169-.346,2.229,2.229,0,0,0,1.937-1.433c.686-.019.947-.412.931-1.053l.074-.086c2.853-2.958,3.022-4.235,1.064-7.989-.234-.935-2.465-1.433-.24-2.923s4.75-3.085,4.7-6.391l0,0h0q.14-1.665.281-3.328a4.3,4.3,0,0,1,.53.019,3.082,3.082,0,0,0,2.03-3.693c3.555-2.072,3.2-6.438,5.406-9.3h0q.066-.567.131-1.131,1.833-3.932,3.669-7.864h0c1.313-.846,1.194-2.161,1.131-3.46a5.768,5.768,0,0,0,.253-.88,25.486,25.486,0,0,1,4.44-9.278c2.857-3.693,5.319-8.063,4.374-13.264l0,0h0c.532-1.1,1.62-1.559,2.538-2.213,1.61-.011,3.288.24,4.547-1.156l.568,0,.5-.27a4.284,4.284,0,0,0,3.6-.962c2.865-.07,4.973-1.637,6.932-3.5l.036-.011c.891-.011,1.789-.013,2.213-1.032,1.859-2,3.1-4.577,5.813-5.8a2.6,2.6,0,0,0,1.082-2.513,4.766,4.766,0,0,0,1.293-3.473,5.377,5.377,0,0,0,2.386-4.6q1.22-2.327,2.441-4.651l0,0h0c1.616-1.279-.07-3.307,1.064-4.7,1.015-1.8,2.511-3.4,2.313-5.691l.006-.021a1.967,1.967,0,0,0,.441-.614,7.8,7.8,0,0,0,.124-1.007,62.052,62.052,0,0,0,2.625-11.888,4.231,4.231,0,0,0,.922-.815,7.574,7.574,0,0,0,1.146-2.2,5.85,5.85,0,0,0,.162-1.418c.553-1.315.148-2.806.211-4.21A3.414,3.414,0,0,0,244,86.258c1.773-2.017,2.726-4.245,1.817-6.963a3.857,3.857,0,0,0-.635-.4l.03-.011c2.587.148,2.665-1.6,2.616-3.456a3.591,3.591,0,0,0-.513-.471c.086-.228.169-.456.255-.684,2.287-1.323,4.765-2.488,4.714-5.733l4.63-3.992a1.273,1.273,0,0,0,.9-.373,7.285,7.285,0,0,0,4.332,2.8c.2.013.392.019.589.03a13.545,13.545,0,0,0,3.228,3.88M411.856,256.268a2.036,2.036,0,0,0,1.456.317c-.148,1.762,1.2,1.937,2.53,2.119-.509,2.349,1.762,3.174,2.893,4.619-.158.154-.3.325-.464.471-.827.732-1.739,1.412-1.458,2.737l0,.082a1.793,1.793,0,0,0-.865-.184c-.127.059-.22.093-.336.144q-.753-.844-1.5-1.686c.291-.66.435-1.215-.169-1.232-1.53-2.941-4.246-3.488-7.2-3.551a4.809,4.809,0,0,0-.764.259,8.083,8.083,0,0,0-2.948-.471,8.907,8.907,0,0,1,5.113-6.622,4.374,4.374,0,0,0,1.867,1.869c.624.367,1.23.76,1.846,1.129M248.717,271.4v0c-.008-.034-.013-.068-.019-.1.038,0,.078,0,.114,0-.036.032-.057.072-.1.1m17.372-91.622h0c.067.046.125.086.19.131-.059.008-.118.027-.177.038,0-.057-.013-.112-.013-.169m3.517,10.477Zm-10.768,17.189a.492.492,0,0,0-.177.089c.023-.034.053-.087.087-.148a.81.81,0,0,0,.089.059M251.1,241.28v-.023l.032.029-.011.011-.021-.017m-2.441,8.136c.01.015.025.025.036.042l0-.011.013.011h-.011l-.042,0,.006-.046m6.849,8.13c.057-.008.11-.017.167-.023l0,0v0h0c-.021.042-.042.086-.063.129-.034-.036-.07-.076-.1-.106m8.358-48.7v0l-.008.006a1.742,1.742,0,0,1-.04-.217c.044.059.087.12.129.182-.027.017-.057.032-.084.049l0-.019m25.389-15.233h0c-.013-.019-.027-.034-.04-.055.021-.029.034-.057.051-.086-.006.048-.006.1-.011.141m96.3,102.29c-.354.31-.7.618-1.036.95-.35.3-.707.58-1.053.876-.578.393-1.18.758-1.724,1.2a4.5,4.5,0,0,0-.6.745,22.029,22.029,0,0,0-5.206,2.5c-.127.01-.239-.008-.374.013a2.913,2.913,0,0,0-.855.578,7.576,7.576,0,0,0-4.06,1.937c-.551.076-1.112.2-1.667.3a5.351,5.351,0,0,0-2.8,1.65c-.1.158-.215.306-.319.46-1.9-.027-3.807.941-5.545.262-2.083-.812-.766-3.5-1.831-5.064a8.2,8.2,0,0,0-.293-1.616c-5.229-4.123-11.238-3.163-17.182-2.621a4.285,4.285,0,0,0-1.572.872c-4.477-1.321-7.016-4.608-8.44-9.029a.92.92,0,0,0-.987-1.095v0l-.08-.053a1.868,1.868,0,0,0-2.089-1.308q-.619-.519-1.239-1.038c-.241-2.665,2.036-2.114,3.431-2.688,3.68-1.515,4.332-2.7,3.688-6.687l-.165-1.908c4.167-1.106,8.706-.31,12.66-2.488a1.662,1.662,0,0,0,1.083-.217,1.026,1.026,0,0,0,1.448-.688l-.036,0a9.861,9.861,0,0,0,6.642-4.99h0l.048-.034a1.6,1.6,0,0,0,1.477-.918c2.083-.321,2.152-2.465,3.292-3.638a19.35,19.35,0,0,0,2.167-4.562c.473.547,1.431.61,3.433-.367l4.948-5.429a1.25,1.25,0,0,0,.914-.468,1.508,1.508,0,0,0,1.35-.933l0,0c1.734-.584,2.268.745,2.943,1.846l-1.9,1.9c-2.8.392-4.269,2.446-5.706,4.545a24.362,24.362,0,0,0-3.41,12.77c-1.087.608-1.53-1.371-2.152-.8-1.12,1.023.9,1.256.855,2.125-.015.361-.049.719-.074,1.078q-2.341.607-4.678,1.217c-1.783-.6-3.515-1.5-5.389-.1-1.452,1.089-3.355.563-4.976,1.123-3.439.173-6.258,1.393-7.883,4.644a4.867,4.867,0,0,0-1.536,4.52,6.365,6.365,0,0,0-.129,6.039c.116,1.583,1.121,2.079,2.538,2.076a8.87,8.87,0,0,0,6.948,1.382c.3.219.6.608.914.629,5.67.382,11.371-.251,17.037.519a1.489,1.489,0,0,0,1.623-1.283q1.232-1.8,2.465-3.608a2.448,2.448,0,0,0,1.353-2.036,1.164,1.164,0,0,0,.924-1.331l.023-.047c1.325-.962,1.161-2.386.956-3.68a3.663,3.663,0,0,1,1.4-3.536c3.235-1.6,6.617-2.937,9.5-5.178l2.135.861c4.207.9,6.738,3.326,7.126,7.757.023.251.534.458.819.684.029.618.055,1.234.084,1.85-2.589.23-2.424,2.382-2.766,4.174a4.64,4.64,0,0,0,.222.618,7.953,7.953,0,0,0-3.093,3.2c-1.513-.285-2.541.688-3.61,1.555M317.477,261.48a1.472,1.472,0,0,0-.086-.22c1.255.935,2.315,1.941,1.9,3.463-.365-.92-1.093-.945-2.013-.5.143-.9-.614-2.022.2-2.747m50.754,17.982v.032l-.03-.015.03-.017M329.723,170.356c.053,0,.112.006.163,0-.038.015-.078.027-.116.044l-.048-.048m53.834,76.556c.029.091.055.184.084.278A2.426,2.426,0,0,0,382,248.1a4.583,4.583,0,0,1-.924-.129c-.074-.441-.15-.88-.224-1.319a3.307,3.307,0,0,0,.6-.736,2.111,2.111,0,0,0-.108-1.8,2.923,2.923,0,0,0,2.623.049,3.852,3.852,0,0,0-.418,2.741m-38.591-41.573c.029,0,.051.009.082.011-.017.019-.032.03-.049.049-.011-.021-.023-.04-.032-.061m11.384,18.668a2.249,2.249,0,0,0-.013,1.049,2.937,2.937,0,0,0,1.523,1.6c-.508.975-1.977.819-2.517,1.754-1.133.274-2.313-.937-3.418.112-1.536-.331-2.785-1.722-4.541-1.23-.656-.707-1.561-.574-2.387-.7-1.274-1.04-3.874-.882-3.334-3.555.046.019.084.051.131.068a1.8,1.8,0,0,0,1.213-.416,1.114,1.114,0,0,0,1.808-.137c.057-.048.116-.1.175-.141a3.941,3.941,0,0,0,.509,1.051c3.568,1.391,7.119,3.125,10.852.546m-20.183-13.559c2.659-1.025,5.294-1.722,7.74.211a48.719,48.719,0,0,1-7.74-.211M378.435,247.3c.027,0,.053,0,.08,0l-.051.082Zm-35.067,13.912a8.563,8.563,0,0,0,1.11.479,12.869,12.869,0,0,1-1.4.251,7.659,7.659,0,0,0,.285-.73m-12.217-41.277a8.446,8.446,0,0,1-3.739.69c1.35-.355,2.741-.736,3.684-1.013.023.106.027.217.055.323M324.107,320.15c-.027.04-.068.067-.1.1.008-.057.015-.114.021-.171l0-.046.032.019-.032.027.076.067m-9.441-33.582a6.39,6.39,0,0,0-.675-1.758c.726.506,1.017,1.247.675,1.758m10.386,7.936c-.025,0-.055-.006-.078-.006l.068-.1c0,.034.006.07.009.1m50.07-62.539c.021-.03.03-.059.051-.089l.048.034c-.032.023-.065.03-.1.055m-49.169-38.642a3.2,3.2,0,0,0,.021-.9,1.457,1.457,0,0,1-.021.9M313.518,212.2h0v0c.013-.082.049-.156.068-.236a4.6,4.6,0,0,1,.84-.112,3.27,3.27,0,0,1-.907.35m3.828,48.376-.108.287a1.994,1.994,0,0,0-.2-.24l.31-.048h0M302.828,310.5c.027.426.462.724.872,1.032-.791-.129-1.688-.207-.872-1.032m87.448-71.509c0-.032-.008-.065-.009-.1a.644.644,0,0,0,.1.032C390.333,238.944,390.31,238.971,390.276,238.99Zm-34.806-30.155h0l.025,0-.008.013-.017-.011m-53.427-7.018h0c-.011-.006-.015-.015-.027-.021.013-.01.023-.021.034-.03a.487.487,0,0,1-.008.051M320.614,326h.008l-.008.008V326m56.993-20.784c0,.023,0,.049,0,.074a.516.516,0,0,1-.051-.015c.019-.019.032-.04.051-.059m-159-.566c-.006.059-.01.118-.015.179a.2.2,0,0,1,.015-.179M201.144,126.418l.017.011-.019,0,0-.015m35.947-47.57v.008l-.01,0,0,.019-.015-.009.013-.01.01-.01m-35.922,47.587.04.025-.04,0v-.023m-53.244,81.139c-.063.013-.114.011-.179.029l0,0,0,0c.04-.084.08-.165.118-.249.021.068.042.146.061.221m16.391-12.608v-.013l.03.006-.03.008m-2.616,40.5.013.017c.1-.015.182-.032.276-.049a2.236,2.236,0,0,1-.1.268c-.055-.068-.11-.139-.169-.2l-.053.053.034-.086m-1.112-46.337a.358.358,0,0,1-.057.023c.011-.019.021-.025.032-.046l0,0,.021.019m25.376-26.577c.038-.009.082-.006.122-.013l.006.04c-.044,0-.082-.027-.127-.027m-13.051,48.975-.03,0c.12-.1.238-.205.357-.306-.009.008-.327.31-.327.31m52.708-99.132a1.356,1.356,0,0,1-.143.1l.034.029a.327.327,0,0,0-.046.008l.011-.036c-.006-.07,0-.144-.008-.215.048.042.1.076.15.114m-69.2,148.571c.01.057.03.11.04.165l-.181.011a2.521,2.521,0,0,0-.025-.314,5.812,5.812,0,0,0-1.639-1.806,3.3,3.3,0,0,1,1.8,1.943m-3.72,1.882c.057,0,.114.006.171.009a2.473,2.473,0,0,0-.222.333.634.634,0,0,1,.051-.342m33.059,14.674,0-.034.019,0a.212.212,0,0,0-.017.036m-2.011-3.71.021-.017v.038l-.021-.021M251.942,60.285l.011-.017c.008.01.019.013.027.023Zm-32.3,59.264h0l-.057-.063c.023,0,.048,0,.068,0,0,.021-.008.038-.011.059v0m11.681,200.4c0,.048,0,.093,0,.141-.009.027-.006.059-.017.084-.027,0-.051.006-.078.008a1.05,1.05,0,0,0,.1-.232m84.652-64.8.006.01.025.009-.034.011.006-.009h-.009l.008-.021m14.144,90.767.021.046-.065.034c.019-.025.025-.055.044-.08M352.955,319.1c.065-.023.131-.053.194-.072v.013c-.021.049-.038.1-.059.148-.046-.029-.091-.059-.135-.089M134.562,203.087a3.442,3.442,0,0,0,.184.348c-.087-.1-.154-.2-.23-.3a.519.519,0,0,0,.046-.046m31.8,120.617h0c.055.046.114.089.171.135a1.582,1.582,0,0,1-.219.087c.015-.078.029-.156.048-.222m12.821,30.045.169-.181.029.006c-.067.059-.131.118-.2.175a4.455,4.455,0,0,0,.219.827,1.8,1.8,0,0,0-.414-.878l.2.051m5.851-.912v0l-.2-.156c.017-.025.034-.036.051-.063l.15.217,0,0,0,0m60.186,47.4-.006-.006c.049-.065.1-.131.144-.2,0,.019,0,.038.008.057,0,0-.1.1-.146.144m-2.456,18.442a1.426,1.426,0,0,0,.154.1c0,.04-.013.072-.017.114a1.633,1.633,0,0,1-.137-.215m-.023-40.121c-.01-.046-.015-.093-.027-.139l0-.034.044.036,0,0-.049,0c.049.049.1.082.143.125-.04,0-.074.01-.116.013m.547-20.506a1.379,1.379,0,0,1,1.08.622c-.555.133-1.015.253-1.38.371.1-.329.2-.671.3-.992m-5.009,5.039,0-.1c.032.017.063.04.093.055-.029.019-.059.025-.089.046m-24.114,15.266a2.849,2.849,0,0,1,.859-1.331l.055-.01a2.859,2.859,0,0,1-.914,1.34m32.073-1.87a.992.992,0,0,1-.106-.139,1.29,1.29,0,0,1,.091-.47,2.737,2.737,0,0,1,.015.608m62.231-145.328c-.1-.1-.158-.2-.243-.293,1.669-.768,1.608-3.606,4.072-3.422,1.412,3.8,5.558,2.844,8.107,4.663h0l0,0c1.534,1.076.819,2.3.24,3.517a2.449,2.449,0,0,0-1.291,2.1c-2.184,3.629-4.4,7.252-2.268,11.715a1.221,1.221,0,0,0-.133.874v0q-.516.69-1.032,1.376l0,0a4.642,4.642,0,0,0-2.517,3.121q-.576.65-1.156,1.3h0c-1.988,1.447-5.463,1.262-5.417,4.94a.857.857,0,0,0-.114.165,6.621,6.621,0,0,0-2.828-2.239c.561-1.568.715-3-1.369-3.655a14.511,14.511,0,0,0-.6-3.2c-1.551-3.463.572-6.573.928-9.858a3.6,3.6,0,0,0-.378-1.18.944.944,0,0,0,.344-.4,3.478,3.478,0,0,0,.593-.106c2.853-2.515,5.294-5.248,5.068-9.422M294.23,297.233h0l-.2-.2.219.2Zm131.794-14.186a.635.635,0,0,1-.063.116c.01-.046-.019-.067-.015-.108l.078-.008m3.71-13.9,0,0,0,0-.011.011c-.061.029-.086.055-.137.082a.433.433,0,0,1,.067-.171c.023.029.059.047.082.078m-35.979-30.126c.1-.129.179-.279.266-.422.027.087.055.165.078.268-.114.051-.23.1-.344.154M300.927,114.857c-.01.015-.025.029-.034.044-.013-.017-.03-.027-.046-.044h.08l0-.008,0,.008M138.54,250.6l.006.025-.015-.006.01-.019M332.3,155.349v.023l-.015-.008.015-.015M232.514,60.283h0l-.023,0,.008-.023.015.021M217.435,78.869Zm-47.6,227.378v.344a1.24,1.24,0,0,1-.622-.376,4.254,4.254,0,0,1,.622.032M209.362,393.4c.019-.017.038-.034.057-.053l-.044.053Zm.087-.089c.044.025.074.053.118.08-.051-.015-.089-.032-.143-.048a.207.207,0,0,1,.025-.032m-10.569-.059-.034,0,.017-.027.017.029m60.428,50.011,0,0h0l.006.055-.029-.032.021-.027m35.871,12.591a.479.479,0,0,1,.027.04.253.253,0,0,1-.034-.042l.008,0m11.688-2.3c-.021-.025-.038-.03-.059-.053a.387.387,0,0,0,.029-.027c.015.03.036.051.051.086l-.021-.006m-58.342-38.095c.226-.036.416-.068.585-.1a2.437,2.437,0,0,0-.154.392,2.431,2.431,0,0,1-.431-.293M553.81,176.1c-.059.011-.1.034-.162.046a28.925,28.925,0,0,0,.029-7.991,16.344,16.344,0,0,0,.065-5.761,1.138,1.138,0,0,0,.274-1v0a5.034,5.034,0,0,0,.635-2.76c.992-11.584-.918-23.084-.958-34.635v0l1.454-13.494a4.775,4.775,0,0,1-.114-.466,2.856,2.856,0,0,0,1.089.165c2.806-4.155,1.6-8.645,1.061-13.08a4.505,4.505,0,0,0-.757-1.294c1.6-1.908,1.26-4.144.745-6.413a3.242,3.242,0,0,0-1.239-1.137l.061-.055a7.013,7.013,0,0,0,.118-3.492c.133-.049.258-.114.393-.162a2.706,2.706,0,0,0,.148-2.249c-.1-.114-.2-.22-.3-.333L559.686,70.8l.089.046a1.937,1.937,0,0,0,.876-2.273c.106-.3.213-.6.321-.9.139.01.268.053.412.051,4.311-3.693,8.537-7.447,9.871-13.256.139-.061.283-.1.422-.16a4.2,4.2,0,0,0,1.583-1.973c-.044-.241-.046-.46-.074-.7l7.191-7.613a4.575,4.575,0,0,0,2.547-2.323v0a38.257,38.257,0,0,0,7.345-7.083c.433-.057.867-.124,1.3-.209a4.538,4.538,0,0,0,2.737-3.722c-.011-.137-.034-.253-.049-.382,2.138-1.808,4.391-3.5,6.014-5.847a1.384,1.384,0,0,0,1.19-1.217,2.191,2.191,0,0,0,.863-.217c2.11,1.612.715,4.022,1.359,5.967.063.388.124.774.186,1.161q-.228,1.645-.454,3.292v0h0c-1.165,2.275-.872,4.716-.808,7.13-1.353,2.585-.065,5.562-1.211,8.177l.108,2.23c-1.64,2.091-1.462,4.537-1.372,6.968q-.573,3.533-1.144,7.065-.667,3.978-1.332,7.951v0q-.6,5.218-1.205,10.434a5.384,5.384,0,0,0-.96,4.735q-1.611,6.33-3.226,12.663c-.1.447-.205.9-.31,1.342-1.177,1.772-1.171,3.739-.96,5.741a.877.877,0,0,0-.167.966l0,0,0,0a2.378,2.378,0,0,0-.852,2.5,10.866,10.866,0,0,0-1.388,4.708c-1.857,2.342-1.437,5.377-2.435,7.982a4.013,4.013,0,0,0-.949,3.562.958.958,0,0,0-.194,1.023v0c-1.884,4.5-2.005,9.384-3.037,14.07-1.315,1.659-1.532,3.648-1.692,5.653l0,0,0,0q-2.347,6.826-4.691,13.648a5.663,5.663,0,0,0-2.2,3.729q-2.164,2.974-4.33,5.946c-.966,1.017-2.437,1.629-2.638,3.264a12.756,12.756,0,0,0-3.5,2.908c-.217-.055-.431-.114-.661-.158-3,.407-6.4,2.884-8.461-1.6M601.278,17.31l.15.152,0,.017c-.049-.055-.1-.112-.146-.169m18.394,44.983c.019.049.029.1.046.154a1.691,1.691,0,0,0-.922.163c-2.384,5.22.333,9.557,2.433,14a3.014,3.014,0,0,0,.893.048l-.019.036-.091.057,1.42,13.768c-.791,5.653-1.908,11.283-1.236,17.035a5.784,5.784,0,0,0-3.737,3.186,1.621,1.621,0,0,0,.35.9,30.542,30.542,0,0,0-2.479,7.736,63.173,63.173,0,0,1-8.193,23.044c-2.686,4.665-7.457,7.157-11.188,10.732a1.721,1.721,0,0,0-1.3,1.152,1.576,1.576,0,0,0-1.369.981c-2.017.547-3.209,2.156-4.568,3.551a1.641,1.641,0,0,0-.947.266q-.79-.813-1.578-1.627c.245-2.522,1.933-4.733,1.6-7.381,1.922-4.191,2.56-8.7,3.235-13.192a.917.917,0,0,0,.253-.985,20.3,20.3,0,0,0,1.96-8.174,5.387,5.387,0,0,0,1.315-3.615.813.813,0,0,0,.219-.956h0a1.057,1.057,0,0,0,.737-1.369c.7-1.467,1.507-2.9,1.4-4.611a7.217,7.217,0,0,0,1.144-4.634c1.688-3.3,1.412-7,2.125-10.508a27.235,27.235,0,0,0,1.58-8.014c2.758-7.107,3.051-14.693,4.284-22.1,1.492-3.7,1.6-7.584,1.456-11.5a1.911,1.911,0,0,0,.694-2.207c.021-.475.044-.949.065-1.424q.154-1.041.306-2.081c1.608-2.95.992-6.206,1.281-9.335,1.743-2.751.682-5.851,1.114-8.761.24-1.612,1.118-1.753,2.26-.675a45.109,45.109,0,0,0,2.962,12.99,3.3,3.3,0,0,0,.122.447,6.01,6.01,0,0,0-.673,1.448c.087,3.193-.538,6.613,2.085,8.995a3.956,3.956,0,0,0,.954,2.456M640.741,263.3l-.013-.032.03-.011-.017.044m-16.38-25.239,0,0c-.027-.023-.038-.053-.063-.078.025,0,.046,0,.07-.008,0,.027-.006.059-.006.084v0m-38.2-71.6a5.231,5.231,0,0,0-.863-.067,1.93,1.93,0,0,1-1.652.091c.042-.017.087-.027.129-.048a3.541,3.541,0,0,0,1.275-1.867c.068-.207.129-.416.19-.623a3.034,3.034,0,0,0,1.013,2.233,1.608,1.608,0,0,0-.093.279m-19.5,16.864c-.021.032-.032.057-.051.087l-.01-.008c.019-.025.03-.059.049-.084l.011,0m48.468-27.832c-.008-.067-.006-.131-.017-.2a.281.281,0,0,0,.133-.053.732.732,0,0,1,.051.1c.032.1-.042.137-.167.15m-26.724-8.388c.006.04.011.082.015.122-.051-.03-.1-.048-.154-.074.049-.011.089-.036.139-.048M610.368,27.619c-.04-.008-.076-.019-.116-.027.04-.029.08-.055.118-.084,0,.036,0,.072,0,.11M566.418,191.444a.077.077,0,0,1,.021,0c-.006.021-.006.042-.01.063,0-.021-.009-.042-.011-.063M640.741,263.3c.017.1.025.2.04.3-.1.027-.209.055-.316.078a3.125,3.125,0,0,0,.276-.382m48.88,42.978-.038-.03v-.04c.04.017.078.036.12.051l-.082.019M638.342,241.62l.015-.074c.023-.038.051-.07.074-.106l.049.023c-.044.055-.1.1-.139.158M601.289,17.206c0,.038-.01.065-.011.1h0l-.055,0c.025-.034.046-.074.068-.106M451.7,87.227c.1.023.177.01.27.025.008.036.01.076.019.112-.1-.046-.2-.086-.289-.137m55.643,28.813h0l.106-.076v-.006l.008,0h-.006l-.108.091v-.013m-63.7,81.215,0-.011.01-.03.027.048-.04-.006m-16.3-9.377h0l0-.013.006.009,0,0M239.511,52.12l-.025-.015.029,0,0,.019M217.374,78.795c0,.034,0,.07,0,.106l.063-.032c-.006.023,0,.046,0,.07a.627.627,0,0,0-.059-.038c-.049-.029-.082-.072-.129-.1.048,0,.084,0,.131,0m-47.54,228.461v.156l-.032.008c.019-.051.017-.112.032-.163m15.039,98.811.008,0-.009.006,0-.009m32.542,17.271c0,.023,0,.046.008.07-.017-.013-.025-.027-.04-.04l.032-.03m6.725-10.417c.044,0,.082.011.127.01a2.891,2.891,0,0,0-.2.424,1.01,1.01,0,0,1,.072-.433m61.792,42.864h0l-.042.068-.059-.029c.034-.011.067-.029.1-.04m9.115,3.517,0,.289c-.07-.023-.143-.044-.215-.065.072-.072.141-.15.211-.224m25.473,2.308h0v0a.942.942,0,0,1,.12-.19,1.915,1.915,0,0,1,.067.209c-.061-.008-.125-.008-.184-.017M262.979,330.678l-.036.087c-.025-.029-.036-.072-.063-.1l.1.01v0m38.9-3.882v.006l-.006-.006h.006m3.992,12.65-.006,0,.027-.057-.021.053M505.033,419.9c-.01.023-.011.04-.023.065l-.1.032.11-.116.017.019m1,24.506c.023.023.049.04.074.061-.029,0-.057.006-.086.008l.011-.068m194.991-123.26h0v0c.025-.023.053-.034.08-.057a.665.665,0,0,0-.017.066l-.063-.008m5.99-2.213a.432.432,0,0,1-.017.1.4.4,0,0,1-.047,0c.017-.034.046-.063.065-.1m-9.44-6.814c-.042,0-.084-.008-.125-.008.038-.055.082-.1.118-.158l.01,0-.008.006.006.163m-8.16-11.508v0l0,0h0M645.394,190.15c.019-.023.04-.038.059-.061.015.029.034.055.051.084l-.11-.023.089.213c-.087-.025-.175-.048-.262-.07l.173-.143M505.134,97.718c.006-.068,0-.131.009-.2l.23.032c-.08.057-.162.11-.239.169m-94.11-39.465c.506,3.013,2.619,4.872,4.8,6.681l3.235,3.889a6.014,6.014,0,0,0,3.594,4.264c2.84,4.446,5.265,9.192,9.35,12.722.519,2.754,2.576,4.319,4.585,5.919a7.327,7.327,0,0,0,4.543,4.585,9.337,9.337,0,0,0,2.317,3.509,1.329,1.329,0,0,0,1.218,1.213v0c5.037,5.771,10.439,10.945,18.695,11.477a14.412,14.412,0,0,0,8.018,1.032,2.576,2.576,0,0,0,1.047,1.061,5.448,5.448,0,0,0,5.009-.582c.08-.131.125-.26.2-.392,2.6.616,5.208,0,7.812-.023l4.518-.108c2.741.152,5.258,1.6,8.058,1.4a1.37,1.37,0,0,0,.49.291,11.447,11.447,0,0,0,6.5,1.667q1.115.359,2.232.717a66.5,66.5,0,0,1,7.966,7.945,5.4,5.4,0,0,0,2.245,2.178h0q.257,1.1.509,2.2.622,2.424,1.245,4.847l0,0h0l.171,3.439c1.342,3.46-.049,6.885-.133,10.329-.492,2.076-2.393,3.5-2.636,5.687a1.316,1.316,0,0,0-1.169,1.2l-1.137,1.015a1.2,1.2,0,0,0-1.129,1.323,4.708,4.708,0,0,0-2.279,2.359,6.493,6.493,0,0,0-3.562,2.218c-1.656.521-3.41.844-4.625,2.266a3.342,3.342,0,0,0-2.281,1.283l.289.4c-.013.027-.025.051-.04.078-.082-.158-.165-.317-.249-.475-4.326,1.9-9.094,2.781-13.025,5.6-5.438,1.31-9.4,5.106-13.781,8.187-3.129.772-5.035,3.638-8.006,4.678-2.1.912-4.235,1.76-5.779,3.57-3.024.827-3.806,3.925-5.836,5.758a1.264,1.264,0,0,0-1.18,1.163,1.031,1.031,0,0,0-.941,1.188c-3.015,1.722-4.608-1.8-7.119-1.933v0c-4.691-.8-6.989-4.9-10.363-7.512v0c-1.561-3.33-5.37-4.735-6.911-8.08a3.025,3.025,0,0,1-1.532,1.9c.492-.654.992-1.3,1.532-1.9a2.311,2.311,0,0,0-1.167-2.247c-.046-1.251-1.032-2.718-1.69-2.688-3.857.179-3.783-3.57-5.685-5.277a1.259,1.259,0,0,0-.793-1.275,1.331,1.331,0,0,0-1.011-1.378l.011-.008c-.914-3-3.117-4.691-5.881-5.82a4.5,4.5,0,0,0-2.923-4.893c-2.154-.9-2.766-2.83-4.07-4.29-.2-2.285-1.838-3.46-3.536-4.591-1.3-1.756-1.23-5.026-3.851-5.166-3.036-.162-3.986-2.479-5.773-3.969a2.532,2.532,0,0,0-.933-1.07l-.019-.048a2.461,2.461,0,0,0-.945-2.467v0h0l-.017.015c-1.274-2.98-5.17-7.7-9.481-11.485-2.939-.842-3.334-4.265-5.741-5.649v0q-1.044-.719-2.083-1.441c-1.23-1.7-2.425-4-4.473-4.18-3.617-.317-5.007-3.095-7.128-5.128a4.073,4.073,0,0,1-1.18.038c.393-.015.8,0,1.18-.038-2.378-3.431-5.351-5.206-9.592-3.437h0a1.22,1.22,0,0,0-1.23,1.015,3.628,3.628,0,0,0-2.043,2.617l-.027.042q-2.207,2.9-4.412,5.8a.978.978,0,0,0-.367.971c-2.661,1.973-5.99,3.262-7.05,6.875a2.235,2.235,0,0,0-.815,2.4l-.3,1.131c-2.785,3.507-1.095,7.887-2.283,11.705h0l.065.025c-1.294.861-1.141,2.178-1.089,3.461a1.012,1.012,0,0,0-.3,1.063,21.967,21.967,0,0,0-2.249,6.858l-2.2.3-.029-.059h0a1.1,1.1,0,0,0-1.032-1.264,1.332,1.332,0,0,0-1.064-1.165l-.268-1.11c-.777-4.786-4.433-8.3-5.691-12.871l-.319.454c-.067-.03-.118-.044-.181-.072.165-.129.331-.257.5-.382l-5.891-12.555c.182-.983.266-1.935-.717-2.595q-.784-2.261-1.568-4.52v0A39.056,39.056,0,0,0,305.6,98.526q-.12-.573-.241-1.142l0,0h0c-.253-1.9-1.175-3.849.357-5.638a2.284,2.284,0,0,0,1.055-2.38,3.494,3.494,0,0,0,1.264-3.4c2.2-3.079,1.836-7,3.342-10.3a2.41,2.41,0,0,0,1.006-.07,3.891,3.891,0,0,0,1.718-4.725c-.072-.144-.124-.276-.181-.412a33.861,33.861,0,0,0,3.047-5.533c.169-.137.333-.276.485-.422a2.354,2.354,0,0,0,1.492-2.334,2.493,2.493,0,0,0-.167-.445,1.34,1.34,0,0,0,.888-1.272,2.37,2.37,0,0,0,1.171-2.258,7.478,7.478,0,0,0,1.7-2.365c.331-.146.661-.295.987-.464a6.434,6.434,0,0,0,2.9-5.4c-.04-.144-.089-.257-.131-.392,2.486-1.3,2.46-4.186,3.416-6.446a3.993,3.993,0,0,0-.22-1.728,39.2,39.2,0,0,1,7.983-11.261,7.676,7.676,0,0,0,1.133-1.606c.4-.055.789-.108,1.184-.158a3.746,3.746,0,0,0,1.688-1.618,10.85,10.85,0,0,1,1.239-1.84c2.062-.8,4.478-.616,6.514-1.488a5.94,5.94,0,0,0,.943.665,10.194,10.194,0,0,0,6.813-.032,3.964,3.964,0,0,0,.673-.656l.006.029c1.114.825,2.106,1.846,3.524,2.175.825,1.112,1,2.676,2.361,3.418a5.363,5.363,0,0,0,2.372,2.245h0a5.056,5.056,0,0,0,2.135,2.414c.247-.078.5-.158.743-.24-.01.063-.025.127-.032.19a1.8,1.8,0,0,1-.711.051q.57.644,1.142,1.293a29.167,29.167,0,0,0,8.183,7.17c3.726,2.245,7.223,4.982,11.762,5.478a4.78,4.78,0,0,0,3.518.949h0l.532.205.3-.074a2.189,2.189,0,0,0,.217.648c2.114,2.235,4.959,2.4,7.748,2.722.487-.1.937-.2,1.361-.287q3.168,2.315,6.339,4.629c.013.169.027.327.04.508a1.939,1.939,0,0,0,1.758,1.38c.021-.019.044-.03.065-.049M370.535,19.806l-.051,0h0l-.051-.027.021-.038.082.063m23.272,10.468h0l0-.025.017.006-.017.019M365.179,8.413l-.042-.029c.141-.032.272-.057.422-.1-.141.038-.253.087-.38.131M300.045,78.118a3.7,3.7,0,0,0-.266.8c-.03,0-.063,0-.093,0a2.074,2.074,0,0,0,.359-.795M161.32,141.076a.326.326,0,0,0-.063-.046c.029-.048.068-.086.1-.133-.019.059-.017.12-.032.179m-33.865,236.8a4.079,4.079,0,0,0,.815-.872,1.107,1.107,0,0,0,1.2.061c.04-.049.063-.1.1-.154a76,76,0,0,0,13.542-.125v0q2.7.026,5.408.048c.068.15.135.3.207.449a4.757,4.757,0,0,0,5.588.22,5.117,5.117,0,0,0,.412.886c2.646,1.785,5.473,1.5,8.345.72a3.977,3.977,0,0,0,.912-.981l.015.029,4.648,1.177,13.9,3.518c2.876,1.608,6.33,1.08,9.253,2.507.485,1.1,1.41,1.135,2.406,1,1.3,1.1,2.927,1.171,4.5,1.391l5.908,2.22c-1.348,1.555-3.157.939-4.792.954a24.092,24.092,0,0,0-10.295,2.245l.34.468a1.5,1.5,0,0,0-.152.04l-.188-.508c-1.458.027-2.992-.232-4.1,1.091l0,0a4.807,4.807,0,0,0-3.994.162c-2.032-.072-4.106-.378-5.894.992q-1.146.174-2.289.344h0a2.224,2.224,0,0,0-2.294.871c-4.418.452-8.508,2.087-12.661,3.5l-10.5,3.929v0q-2.957,1.691-5.913,3.378l0,0-6.925,4.241a2.134,2.134,0,0,0-2.355,1.213l-5.817,3.4a.9.9,0,0,0-1.013.331,1.067,1.067,0,0,0-1.255.9l-9.46,5.765c-1.334.416-2.718.758-3.366,2.216-1.5.774-3.517.616-4.44,2.443-3.068,2.062-6.948,2.8-9.447,5.786a1.4,1.4,0,0,0-1.344,1.114c-1.69,1.23-2.08,3.3-3.155,4.919l0,0h0c-1.54,1.794-4.165,1.7-5.8,3.332-2.325,1.9-5.043,3.326-6.968,5.716-2.009.66-3.237,2.376-4.843,3.581-.73.023-.99.466-1.011,1.125l-.011.017h0c-3.494,2.167-5.239,6.324-9.134,8.037v0h0c-1.606,1.241-3.266,2.439-3.849,4.545a8.854,8.854,0,0,0-4.355,3.728l-1.422.867a8.5,8.5,0,0,0-3.326,3.688c-2.043,2.129-4.916,3.325-6.607,5.853-3.566,3.454-7.157,6.885-10.69,10.371-2.54,2.505-2.688,4.632-.4,8.231,1.435,2.256,2.954,4.862,6.271,2.348a1.176,1.176,0,0,0,1-1.211q2.25-2.381,4.5-4.76l.12-.112a3.766,3.766,0,0,0,2.4-2.11,3.625,3.625,0,0,0,2.378-2.254A3.173,3.173,0,0,0,54.1,488.67a1.03,1.03,0,0,0,.852-.675h0c2.273-1.15,3.488-3.252,4.76-5.3a12.632,12.632,0,0,0,4.345-3.747l.133-.106c.595.1.912-.112.857-.755l5.075-4.836q2.982-2.794,5.967-5.587v0l4.362-3.524,15.416-12.525v0a4.738,4.738,0,0,0,3.079-2.709c1.53-.753,3.045-1.526,3.838-3.171v0a54.408,54.408,0,0,0,9.225-5.894h0q5.762-3.564,11.527-7.124a7.258,7.258,0,0,0,3.357-2.013c3.256-1.4,6.615-2.608,9.335-5.009a6.017,6.017,0,0,0,4.488-2.336v0c1.981-.768,4.2-.89,5.986-2.175v0c3.779-.285,7.075-2.04,10.481-3.458q5.215-1.748,10.428-3.494c1.22.009,2.509.323,3.473-.795q7.516-2.033,15.03-4.07a4.074,4.074,0,0,0,3.437-.943c.994-.1,2.021-.129,2.659-1.095l.468.015.359-.3a2.784,2.784,0,0,0,2.515-.933,13.408,13.408,0,0,0,6.744-1.243,28.767,28.767,0,0,0,8.212-1.108,4.111,4.111,0,0,0,2.958-.03c.1.125.179.268.287.39,3.906,2.625-1.152,4.819-.338,7.3.086.236.165.475.241.715-4.361,2.534-6.949,6.526-8.862,11.063a7.706,7.706,0,0,0-.112,1.114q-1.061,1.286-2.123,2.57l-1.524,1.285a.99.99,0,0,0-1.085.882c-.032.032-.065.065-.1.1a2.69,2.69,0,0,0-1.026.131c-2.568-1.872-3.1-.063-3.805,1.448a2.808,2.808,0,0,0-1.093.819,1.82,1.82,0,0,0,.2,1.334c-1.338,2.015-4.243,2.638-4.788,5.355-.884.209-1.834.317-2.116,1.42a6.52,6.52,0,0,0-3.56,4.539,1.167,1.167,0,0,0-1.009,1.285q-.6.656-1.192,1.315-1.716,1.668-3.431,3.34l-.048.034c-3.959.768-5.117,5-8.309,6.718l-1.074.428c-.675-.177-1.019.148-1.173.766-2.026,1.127-3.123,3.157-4.636,4.783-2.65,1.171-4.1,4.056-6.974,4.9v0l0,0-6.845,5.5c-1.517,1.256-3.944,1.106-4.923,3.193-1.505,1.766-4.368,1.528-5.566,3.754a3.172,3.172,0,0,0-2.281,1.106,2.533,2.533,0,0,0-2.564,2.078h0c-1.192.219-2.576-.049-3.321,1.306l-8.1,3.716c-1.924.711-4.186.538-5.748,2.2-3.262,1.851-7.056,2.137-10.464,3.555v0a14.366,14.366,0,0,0-6.788,2.4c-5.735.661-11.422,1.5-16.589,4.336a1.242,1.242,0,0,0-.968.27h0c-2.887-.933-5.56-.163-8.175,1.044-4.549,1.878-9.862,1.426-14,4.573l-.086-.1c-.238-.1-.479-.205-.717-.308a2.3,2.3,0,0,0-1.329.241l0-.04c-.622-.975-1.488-.93-2.427-.582-2.237-.194-3.861,1.31-5.752,2.07a7.359,7.359,0,0,0-7.149,1.021h0l-1.112.266a.78.78,0,0,0-1.019.046s.013.249.023.42l-.023-.42c-1.893.336-4.037-.829-5.693.945q-1.26.1-2.524.2a4.22,4.22,0,0,0-4.393.819L23.7,512.611c-2.595-.8-4.572,1.378-6.986,1.445-2.982.2-2.245-1.912-2.222-3.579a4.458,4.458,0,0,0,1.249-3.315l.019-.03c1.19-.466,1.156-1.452,1.051-2.467.99-1.756,2.315-3.363,2.484-5.486.086.008.163.025.251.03,3.148-1.937,4.17-5.049,4.668-8.447-.032-.125-.072-.228-.108-.346,2.009-.772,2.4-2.777,3-4.617.2-1.045.4-2.085.508-3.14a3.877,3.877,0,0,0-.053-.4,4.174,4.174,0,0,0,.8-2.665.131.131,0,0,0,.023-.023A3.869,3.869,0,0,0,29,478.248a1.45,1.45,0,0,1-.017-.181c3.013-5.21,5.058-10.882,7.672-16.283a1.159,1.159,0,0,0,.869-1.3v0l.063.034a.976.976,0,0,0,.865-1.177q.282-.527.561-1.053a19.96,19.96,0,0,0,4.02-5.254,4.086,4.086,0,0,1,1.173-.268c2.165-2.562,5.256-4.572,5.119-8.5a10.315,10.315,0,0,0,2.243-3.239,1.944,1.944,0,0,0,.631.086c1.621-.667,2.184-2.089,2.566-3.633a7.466,7.466,0,0,1,.017-.994c1.8-1.705,2.722-4.005,3.9-6.134.257-.186.515-.373.785-.551a2.013,2.013,0,0,0,.557-1.441c-.025-.063-.067-.112-.1-.173,1.9-.1,2.19-1.633,2.617-3.051a2.6,2.6,0,0,1,1.564-2.7,2.26,2.26,0,0,0,.675-2.469c1.46.021,1.64-1.07,1.745-2.228a2.335,2.335,0,0,0,.732.163c4.978-4.967,8.491-11.268,14.211-15.572a1.944,1.944,0,0,0,.447-2c1.715.281,2.42-.931,3.02-2.289a5.7,5.7,0,0,0,.16-1.4l2.192-2.249.049-.04c.1.068.2.139.295.207,1.87.224,2.935-.872,3.8-2.306.042-.205.046-.409.068-.612a5.537,5.537,0,0,0,1.665-1.585,2.635,2.635,0,0,0,.46.251c2.093.346,3.2-.679,3.661-2.61,1.965.146,3.414-.513,4-2.519a2.035,2.035,0,0,0,.508.3,8.235,8.235,0,0,0,6.185-4.089c.027-.072.036-.144.059-.217l4.974-1.922a9.557,9.557,0,0,0,2.787-.023,9.837,9.837,0,0,0,2.213.42,22.208,22.208,0,0,0,9.449-1.773m-33.1,65.259a.472.472,0,0,0,.068.021l-.015.051c-.015-.027-.04-.046-.053-.072m3.9,5.664c.01.013.013.03.025.046l-.029.011c0-.019,0-.036,0-.057m24.726-24.215c.15.006.3.009.439.009-.141.124-.259.247-.39.369-.017-.125-.032-.251-.049-.378M35.219,461.636c-.067.08-.143.146-.209.222.006-.074.025-.137.029-.215.061,0,.12-.008.181-.008m18.64,59.255h0l.023,0-.011.025-.011-.023m112.421-45.434c-.017,0-.029.01-.048.006.006-.015.023-.025.03-.04l.017.034m-12.648,14.021-.057.091c.03,0,.061,0,.091,0-.017.027-.038.049-.055.076-.009-.027-.029-.044-.038-.072l-.11-.08c.057,0,.108-.013.169-.011m-16.2,16.229,0,0v0l-.01.006c0,.027,0,.051,0,.078-.034-.027-.067-.053-.1-.08l.1,0M97.9,503.441c.036-.049.074-.1.112-.148a1.113,1.113,0,0,1,.342.238c-.141-.03-.279-.061-.454-.089m-1.032,17.267h0l.049.009-.1.068-.008,0,.055-.074m45.217-17.322-.144.118c-.021-.051-.051-.1-.076-.15.074.011.146.023.22.032l0,0,0,0v0m75.338-79.978Zm139.13,70.538h.015s.169.475.171.483a1.3,1.3,0,0,0-.186-.483m141.261-15.574a4.039,4.039,0,0,0,.042.458c-.027-.006-.046-.013-.072-.017-1.678.2-3.119-1.146-4.8-.947-.1-.152-.207-.291-.3-.454-.859-.688-1.741-1.274-2.9-.686-.044.057-.065.118-.1.175a9.006,9.006,0,0,0-5.111-1.479c-.983-1.047-2.332-.983-3.594-1.184-1.032-1.184-2.37-1.082-3.728-.9.048-.249.1-.5.158-.758a22.062,22.062,0,0,0-11.454-2.572,3.844,3.844,0,0,0-.517.234c-1.445-2.574-3.469-1.8-5.592-.456.061.393.084.753.106,1.11-.048-.011-.086-.029-.135-.04-1.811.616-3.718-.671-5.514.215a4.312,4.312,0,0,0-.232-.443c-2.735-1.266-5.026-.566-6.993,1.572-.061.063-.129.122-.194.182a3.932,3.932,0,0,0-.916-1.18c-4.61-.253-8.763,1.576-13.023,2.9-.118.171-.23.346-.342.519-2.4-1.213-4.549-.487-6.571,1.158a3.362,3.362,0,0,0-.141.848l-1.644.167c-.017-.019-.032-.038-.047-.057a1.285,1.285,0,0,0-1.428.07c-.027.044-.03.08-.055.122-.232-.312-.456-.627-.705-.931-1.3-.006-3.06-.964-3.433.911-.074-.019-.139-.042-.215-.059a8.224,8.224,0,0,0-4.917,1.407,4.215,4.215,0,0,1-.644.707c-3.036-1.623-5.332-.449-7.267,2.1-.046-.036-.07-.072-.12-.106a2.634,2.634,0,0,0-2.444.169c-.084,0-.165.156-.243.428a5.353,5.353,0,0,0-1.806.046c-.148,0-.293-.017-.443-.013a7.673,7.673,0,0,0-1.612.363,9.114,9.114,0,0,1-1.443.494,8.227,8.227,0,0,0-1.918.266,11.147,11.147,0,0,1-2.821-.245c-1.819.137-3.971-.471-4.771,1.931a9.6,9.6,0,0,0-9.578.8c-.093.167-.156.348-.239.521-3.507-2.131-6.978-1.414-10.439.456a4.853,4.853,0,0,0-.534,1.192c-.03-.021-.046-.046-.078-.065-2.549-2.37-5.467-1.821-8.415-1.051a2.929,2.929,0,0,0-1.232,1.1l-.677.006a2.932,2.932,0,0,0-.867-.988,8.046,8.046,0,0,0-5.9.025c-.262.171-.538.319-.812.473-1.5-.969-3.982-1.013-3.815-3.568.133-.194.264-.388.369-.578,2.726-.065,4.034-2.053,5.1-4.178.551-1.095-.352-1.669-1.361-1.931q-1.055-1.109-2.11-2.222c-.3-2.418.027-5.2-3.4-5.792l-8.075-8.257c-1.045-1.827-2.832-2.631-4.653-3.393a1.323,1.323,0,0,0-1.2-1.188c-1.089-2.091-3.824-2.315-4.957-4.357-1.477-3.051-5.792-3.414-6.664-7.039-1.11-2.64-4.131-2.9-5.887-4.741-.88-1.131-2.156-1.207-3.431-1.277v0c-3.691-3.18-8.124-3.608-12.72-3.431-1.576-1.53-3.6-.73-5.41-1.025-1.466-.24-3.072.414-4.414-.555-2.631-1.9-5.687-1.783-8.691-1.954-.061.106-.122.213-.184.317a.327.327,0,0,0-.025-.029l.209-.289c-1.981-.642-3.859-1.886-6.09-1.025v0l0,0c-1.768.384-2.866-1.2-4.4-1.492a5.077,5.077,0,0,0-3.5-2.074l-1.429-2.079a12.524,12.524,0,0,0-4.165-3.691c-.825-1.234-2.5-1.745-2.876-3.359h0l0,0c.122-2.507,2.055-4.929.806-7.5a5.752,5.752,0,0,0,.6-1.384c-.184-3.887-.359-7.773-1.555-11.527a1.509,1.509,0,0,0-.979-.2,2.87,2.87,0,0,1,.342-.266q.011-.636.019-1.272c.566-7.911-1.291-15.95,1.272-23.764.16-.487-.148-1.125-.24-1.7a1.262,1.262,0,0,0,.251-.964c1.659-2.169.2-4.809,1.072-7.1,1.749-2.013.787-4.815,2.022-6.978q.168-1.166.336-2.33l0,0c1.31-1.253.819-2.954,1.1-4.461a3.6,3.6,0,0,0,1.448-2.412v0h0a12.8,12.8,0,0,0,1.859-7.033c.43-2.838,2.363-5.2,2.534-8.12v0a2.762,2.762,0,0,0,1.142-2.3,1.279,1.279,0,0,0,.964-1.274h0l.011-.015a18.306,18.306,0,0,0,4.8-5.668c1.768-1.059,2.642-2.787,3.442-4.573,3.015-1.844,5.822-2.768,8.274,1,.517.8,2.007.96,3.049,1.414a1.348,1.348,0,0,0,1.1,1.169,8.847,8.847,0,0,0,5.99,5.632q1.28,4.633,2.562,9.267c.3,2.574,2.517,3.412,4.256,4.684a1.414,1.414,0,0,0,1.367,1.08,4.517,4.517,0,0,0,2.252,2.416c.888,1.443,1.435,3.243,3.566,3.366l1.15-.11c3.416-.257,3.422,3.7,5.82,4.7a34.167,34.167,0,0,0,5.79,7.82c.93,1.523,1.762,3.121,3.311,4.148.728,1.54,1.232,3.226,2.749,4.254v0c.833,1.279,1.412,2.783,3,3.4l6.277,7.166,0,0,0,0a27.843,27.843,0,0,0,6.465,6.959c.118.363.234.726.352,1.091.125.411.253.823.378,1.236-.093.542.179.781.686.829,2.389,3.323,6.229,1.505,9.244,2.612,3.48,3.591,8.369,3.422,12.7,4.752v0c1.312,1.177,3.019,1.044,4.583,1.382.2.623.6.751,1.165.471.449.048.9.1,1.348.146l0,0v0q3.387,1.38,6.775,2.764a.922.922,0,0,0,1.239.819,7.187,7.187,0,0,0,3.587,1.488l.006,0,0,0c3.665,1.908,7.668,2.887,11.542,4.222,3.726,1.737,7.666,1.369,11.587,1.194l1.177.015,1.142.021,1.167-.015,8.122.021c3.809-.2,7.645-.228,11.188-1.889a1.347,1.347,0,0,0,.5-.226,1.439,1.439,0,0,0,1.08-.259l.553.124h.565c1.585,2.019,3.131,1.3,4.668-.065l10.667-5.613.475.04.435-.2a8.2,8.2,0,0,0,5.642-2.351c1.344-1.171,2.393-.489,3.5.289a28.084,28.084,0,0,1,3.226,4.629,11.454,11.454,0,0,0,5.957,5.765,11.5,11.5,0,0,0,3.876,4.222c2.061,1.251,2.771,3.813,4.648,5.243.044.335.087.669.156,1.021a3.351,3.351,0,0,0,1.648,1.716,7.466,7.466,0,0,1,1.211.087,17.584,17.584,0,0,0,5.731,5.041c.061.049.127.091.192.139.051.713.509.987,1.161,1.053,1.886,2.188,4.528,3.214,6.927,4.648,2.595,1.551,4.883,1.589,7.174-.393a1.239,1.239,0,0,0,.958.35,13.468,13.468,0,0,0,.827,2.958,6.857,6.857,0,0,0-.462,1.363,6.96,6.96,0,0,0-.07,1.6,5.805,5.805,0,0,0,1.112,2.819,11.108,11.108,0,0,1,1.371,2.979c.013.038.029.076.044.114.025.068.049.139.076.205.015.03.038.049.053.078a3.13,3.13,0,0,0,.5.753c-.036.122-.118.257-.089.361a2.611,2.611,0,0,0,.188.439,3.228,3.228,0,0,0-.521,1.88c.561,5.269.158,10.713,2.5,15.657-.171.4-.34.812-.527,1.209-1.644,5.866-5.913,9.951-9.732,14.344m18.06-57.447c.021-.017.019-.029.036-.046.023.023.04.049.063.072-.032-.011-.067-.017-.1-.027m12.96-18.134a5.326,5.326,0,0,0-1.608,1.059c-3.708-.059-7.172,1.313-10.747,2.032h0c-2.69.1-5.452-.278-7.923,1.234l-10.4,2.38-8.932-8.32c-1.369-1.863-3.315-3.077-5.068-4.507h0l0,0c-2.53-2.819-4.948-5.754-8.117-7.919a2.283,2.283,0,0,0-2.294-.171.7.7,0,0,0-.831-.1c-.207.118-.414.236-.622.355-.025-.025-.029-.057-.057-.08a1.873,1.873,0,0,1,.679-.276c-1.287-1.034-3.3-1.243-3.72-3.262q1.779-2.84,3.556-5.68c1.331-.884,1.028-2.287,1.131-3.56,2.087-1.983-.129-3.918-.065-5.877a1.2,1.2,0,0,0,1.306-1.093h0c2.737-1.739,2.137-4.48,2.114-7.048.4-2.157-.509-4.026-1.285-5.934a24.36,24.36,0,0,1-2.207-10.325,58.968,58.968,0,0,0,4.655-10.316q.61-1.246,1.218-2.49v0l0,0c3.6-4.372,4.769-9.664,5.7-15.045a.629.629,0,0,0,.247-.8,3.413,3.413,0,0,0,.907-3.819c0-.393.006-.785.008-1.177,1.486-2.125,1.585-4.5,1.253-6.953,1.249-2.726-.084-5.436-.044-8.156.2-2.739-.521-5.37-.956-8.035-.492-3.015-1.965-4.807-4.87-6.47-3.805-2.18-8.139-3.366-11.586-6.17l-10.457-4.613a.52.52,0,0,0-.719-.4,1.579,1.579,0,0,0-1.471-1.121h0c-1.118-1.7-4.222-.47-4.7-3.266,1.228-1.477,3.133-.618,4.6-1.251a43.167,43.167,0,0,0,16.615-2.176c1.829-.635,3.809-.9,5.376-2.188l1.165-.5v0a.985.985,0,0,0,1.253-.863c2.294-.675,4.092-1.893,4.786-4.336v-.04a1.877,1.877,0,0,0,1.817-1.488,3.149,3.149,0,0,0,1.484-2.313h0a24.77,24.77,0,0,0,3.036-14.973c1.184-6.2-.061-12.046-2.6-17.7q-.382-1.588-.764-3.174v0c-.981-4.1,2.49-1.832,3.8-2.657l1.173.127a9.883,9.883,0,0,0,5.782,1.2,3.679,3.679,0,0,0,3.526,1.169l.481.251.544-.023c2.277.949,4.463,2.176,7.025,2.22a3.856,3.856,0,0,0,3.534,1.072,9.6,9.6,0,0,0,5.742,1.268l-.009-.063c3.9,2.581,8.6,2.349,12.852,3.674.547.882,1.464.886,2.342.981a74.138,74.138,0,0,0,12.359,7.164l4.821,2.213c.876,1.336,2.254,1.211,3.581,1.228h0c1.433.89,2.657,2.232,4.558,2.1l0,0v0c.928.57,1.973,1.568,2.984.806,1.686-1.27,3.528-.673,5.294-.911,1.327,1.057,2.454,2.441,4.315,2.617a1.634,1.634,0,0,0,1.357,1.087q1.739,1.671,3.475,3.34c-.087.086-.16.169-.257.257.7,3.171,1.732,6.161,4.476,8.215.241-.042.481-.1.722-.143a51.827,51.827,0,0,0,7.063,11.4A1.2,1.2,0,0,0,592,265.7c.034.966.108,1.908,1.268,2.237l.019.025a1.56,1.56,0,0,0,.945,1.45,2.628,2.628,0,0,0,1.14,2.171,3.153,3.153,0,0,0,.527,1.69,8.394,8.394,0,0,0,.306,1.53c.3.945.439,1.962.833,2.863a5,5,0,0,0,.76,1.789,12.509,12.509,0,0,0,1.348,4.84c-.127,1.58-.42,3.2.918,4.44-.029.059-.063.114-.087.173a2.487,2.487,0,0,0,.057,1.572c.137.163.266.331.4.5-.148,4.14,1.262,8.149,1.218,12.281a4,4,0,0,0-.981,1.007,12.273,12.273,0,0,0-.279,8.257,4.129,4.129,0,0,0,.943,1.456q-.051,1.882-.1,3.762a2.242,2.242,0,0,0-.173-.146c-2.952,1.283-2.585,4.1-3.017,6.56a4.566,4.566,0,0,0,.249,1.038,4.858,4.858,0,0,0-.977,1.319,3.013,3.013,0,0,0-.631.257,3.068,3.068,0,0,0-.768,1.353c0,.038,0,.074,0,.112-2.1.6-2.667,2.437-2.99,4.465.029.1.065.2.093.3a.912.912,0,0,0-.814.95,14.894,14.894,0,0,0-3.5,3.72c-.1-.125-.2-.241-.3-.384a19.172,19.172,0,0,0-8.246,10.591c.017.025.036.042.051.065-1.962-.266-2.2,1.534-2.847,2.847a5.086,5.086,0,0,0-.082,1.416,2.5,2.5,0,0,0-.441,1.585,5.025,5.025,0,0,0-2.2,3.226,7.391,7.391,0,0,0-1.131.319,4.066,4.066,0,0,0-.641,4.952c-3.083,2.741-.857,6.615-1.751,9.822-.156.76-.329,1.515-.441,2.285a4.062,4.062,0,0,0,.112,1.467c.011.021.017.042.027.061a12.97,12.97,0,0,0-3.218,6.628,12.423,12.423,0,0,0-3.142,3.821l-.11.143a5.132,5.132,0,0,0-2.2,2.167c-2.68,3.172-6.119,5.476-9.278,8.1l-5.786,3.42a6.477,6.477,0,0,0-.922-.536c-2.714.253-5.741-.555-7.685,2.292.08.156.186.287.274.437a8.088,8.088,0,0,0-4.376,1.209,4.277,4.277,0,0,0-.589-.584,6.348,6.348,0,0,0-4.938-.224m64.324-141.787.017.008-.015.008v0l0,0v-.015m4.543,69.432c.053-.017.1.023.148.116-.059-.032-.093-.08-.148-.116m1.466-4.264v-.01l.009,0-.009.008M569.06,398.108c0-.025-.011-.048-.017-.072.034,0,.068.006.1,0l0,0,0,0-.086.068m39.44-80.333c0-.063.009-.125.013-.188l0,0h0c.057.006.1.019.156.027-.057.053-.112.108-.169.163m-49.243-94.916c-.019-.013-.038-.029-.059-.042.133-.044.253-.074.4-.129-.11.059-.224.114-.336.171m147.552,96.41c-.008-.051-.042-.072-.055-.118.063-.044.131-.072.192-.122,0,.025.008.044.009.067a.74.74,0,0,1-.146.173m-47.422-97.937c0-.017.025-.023.03-.038,0,.042-.013.08-.015.122a.26.26,0,0,1-.015-.084m-2.578,3.553c.869.207,1.722.466,2.6.6l.1-.011c2.022,1.553,4.606,1.9,6.807,3.07h0a2.039,2.039,0,0,0,2.327,1.175l2.368,1.118Q675,233.77,679,236.7a1.074,1.074,0,0,0,1.232,1q1.565,1.312,3.129,2.623h0a4.037,4.037,0,0,0,2.481,2.2,1.39,1.39,0,0,0,1.245,1.207,1.263,1.263,0,0,0,.793,1.053c0,.084,0,.171,0,.255.53,2.076,1.312,3.95,3.6,4.655a2.114,2.114,0,0,0,.445-.278,2,2,0,0,0,1.844,1.213c-.027.044-.067.076-.093.122.2,4.6,3.843,6.3,7.043,8.366.106-.017.2-.063.3-.084.329,4.478,3.235,6.813,7.054,8.377.127-.01.251-.029.376-.04,1.927,2.4,3.805,4.849,6.427,6.585h0a2.635,2.635,0,0,0,1.1,1.574,4.744,4.744,0,0,0-.228.85c.418,2.262,1.334,4.121,3.8,4.741.042-.008.076-.029.116-.036q1.329,2.1,2.655,4.21h0c1.7,2.541,2.714,5.522,4.822,7.8a3.946,3.946,0,0,0,.086,1.469,4.507,4.507,0,0,0,.9,1.325,5.451,5.451,0,0,0,1.009.633,1.569,1.569,0,0,0,.8.728l0,0q.339,1.115.681,2.233a.581.581,0,0,0,.492.815c.872,2.036.878,4.395,2.332,6.212a4.623,4.623,0,0,0,.838,2.994c-.061.148-.141.289-.2.439a2.893,2.893,0,0,0,.456,2.285,4.26,4.26,0,0,0,.513.188l.758,3.874,0,0h0c-2.756.85-4.712-1.11-6.976-1.981a36.6,36.6,0,0,0-7.976-2.087l-3.288-.4c-.979-1.114-2.473-.542-3.619-1.108-1.241-1.5-2.986-1.851-4.777-2.1q-1.611-.736-3.22-1.475c-2.171-1.817-4.142-3.954-7.155-4.4-.371-.04-.743-.08-1.114-.122l-8.082-5.721c-.044-.72-.441-1-1.141-.9l-1.19-.27c-2.1-1.352-3.288-3.815-5.735-4.75v0q-2.381-2.754-4.762-5.511c-1.88-2.368-3.452-5-5.86-6.921-.6-.973-1.047-2.089-2.3-2.443a21.9,21.9,0,0,0-4.271-4.845c-2.4-2.709-4.34-5.828-7.2-8.126a1.128,1.128,0,0,0-.9-1.188,5.8,5.8,0,0,0-2.849-3.2c-1.293-1.4-1.483-3.594-3.309-4.615l-.1-.044a2.671,2.671,0,0,0-.861-2.41q-.191-.556-.382-1.11a1.157,1.157,0,0,0-.878-1.264,2.605,2.605,0,0,0-1.306-2.121c-.6-2.3-2.148-4.007-3.612-5.765l-3.319-7.111a4.349,4.349,0,0,0-2.239-3.524l0,0c.133-.884-.158-1.962,1.066-2.351,2.021.49,2.954,2.53,4.756,3.33,1.623,2.73,5.14,3.431,6.685,6.242h0l0,0c.481,2.764,2.982,3.281,4.917,4.429,2.614,4.76,6.731,7.864,11.4,10.36l7.077,7.134c1.342,2.047,4.089,1.734,5.674,3.378.526,3.345,3.615,3.541,5.864,4.773a7.594,7.594,0,0,0,1.091,1.954c1.931,1.851,5.775,2.764,6.968,1.612,1.967-1.9,2.825-3.988.287-6.164a2.422,2.422,0,0,1-1.3-1.023q.647.513,1.3,1.023a1.173,1.173,0,0,0-1.3-1.023l-.017-.009h0c-3.3-1.625-4.562-5.588-8.033-7.024-.306-1.247-1.353-1.819-2.283-2.5-.12-.642-.4-1.121-1.141-1.158l-3.4-2.108a42.133,42.133,0,0,0-10.721-11.441l-.074-.053a1.1,1.1,0,0,0-1.093-.939l0,0,0,0q-.6-.693-1.211-1.39c-.03-.692-.5-1-1.072-1.217q-2.369-2.187-4.739-4.372l0,0a1.049,1.049,0,0,0-1.053-.283q-1.152-1.14-2.3-2.281a8.969,8.969,0,0,0-3.239-4.828,9.836,9.836,0,0,0,1.1-2.081l.236.177.532-.044a2.683,2.683,0,0,0,.319.433c.057.048.12.082.177.125a.339.339,0,0,0,.042.03,7.57,7.57,0,0,0,1.593.956,8.063,8.063,0,0,0,1.3.431m25.751-30,.042.013c-.013.015-.03.029-.044.044a.556.556,0,0,0,0-.057m.042.011-.013-.03h.042l-.029.03m6.575.027h0c.086,0,.169-.015.253-.021a1.711,1.711,0,0,0-.091.188c-.053-.057-.108-.112-.162-.167h0m29.218-8.55c-.2.011-.371.038-.555.057.044-.167.089-.335.116-.49.15.146.281.285.439.433m-5.041-5.132c-.4-.15-.812-.3-1.262-.462-5.077-.07-9.194,3.193-14.007,4.056a3.217,3.217,0,0,0-.947.935q-1.483-.031-2.963-.059-.585.006-1.167.01l-1.148.051q-.593.014-1.184.03a21.428,21.428,0,0,0-6.993.1,17,17,0,0,0-5.822.506c-.173-.182-.348-.363-.561-.555a75.114,75.114,0,0,0-13.224-1.409,6.313,6.313,0,0,0-1.268.312,31.272,31.272,0,0,0-9.287-.2l0,0a5.532,5.532,0,0,1-.158-1.08c-2.235-1.9-4.712-1.935-7.328-.933a4.677,4.677,0,0,0-.542.92l-.011-.021a7,7,0,0,0-4.638-.067,36.881,36.881,0,0,0-10.4.053,6.237,6.237,0,0,0-3.682-.1,56.425,56.425,0,0,0-10.261-.274c-1.9-.958-2.659-1.958-.055-2.977.872-.342,1.855-.447,2.433-1.319l14.908-6.8,0,0,0,0q1.833-.8,3.653-1.589v0l0,0,8.187-3.2h0c2.062-.422,4.161-.743,5.858-2.157a1.121,1.121,0,0,0,.907-.528,1.047,1.047,0,0,0,1.226-.861l-.152-.222c.009-.011.021-.017.03-.029.04.084.08.167.122.251a6.857,6.857,0,0,0,3.458-1.08c1.319.106,2.585.048,3.488-1.129l1.1-.359a1.348,1.348,0,0,0,1.53-.717.754.754,0,0,0,.768-.443l7.326-3.017q1.6-.79,3.2-1.583a2.743,2.743,0,0,0,2.323-.943c1.867-.082,3.94.9,5.446-1.061h0c2.494-2.024,5.9-.971,8.533-2.541a20.686,20.686,0,0,0,7-2.106c3.684.1,6.8-2.055,10.322-2.6a5.19,5.19,0,0,0,4.735-.937q1.115-.137,2.226-.27v0c2.4-.519,4.887-.73,7.107-1.926a6.386,6.386,0,0,0,3.429-.38,7.109,7.109,0,0,0,5.763-1.975c6.7-1.652,13.454-3.127,19.822-5.9l.54.082.46-.295,2.355-.051a3.673,3.673,0,0,0,3.5-.884,4,4,0,0,0,3.414-1.177,4.688,4.688,0,0,0,3.372-1.215l1.262-.044a10.722,10.722,0,0,0,8.006-2.15q4.69-1.354,9.379-2.711a.941.941,0,0,0,1.348-.72l.036-.023,11.409-3.644,10.685-3.216q2.76-.793,5.52-1.587c2.427-.515,4.973-.622,7.121-2.085a9.346,9.346,0,0,0,1.106-.07,1.94,1.94,0,0,1,1.146-.62q-.573.311-1.148.62c1.823.679,4.039-.8,5.649,1.036l-6.816,7.043v0l-5.921,4.959v0l0,0-4.5,4.218-3.8,3.551a.918.918,0,0,0-1.063.964c-.139-.057-.276-.12-.416-.171-3.043.623-6.237,1.051-6.657,5.1.027.034.057.059.086.093-1.4.787-3.087,1.285-3.326,3.287-5.035.884-9.052,3.638-12.764,6.953-1.255.257-1.511,1.564-2.367,2.243-3.9.639-6.993,3.15-10.553,4.579q-1.046.753-2.095,1.5c-2.378,1-4.942,1.758-5.991,4.52v0l0,0a1.906,1.906,0,0,0-.994.177c-.724-.35-1.061-.04-1.156.682a8.457,8.457,0,0,0-3.127,1.139c-.076-.057-.141-.122-.219-.179a3.973,3.973,0,0,0-3.988.823q-.5.433-.954.9a6.423,6.423,0,0,0-3.406,2.169c-1.228.281-2.657-.116-3.615,1.074a7.157,7.157,0,0,0-3.3,1.053,1.133,1.133,0,0,0-.973-.551c-4.391,1.049-9.122,1.277-12.481,4.83a4.844,4.844,0,0,0-.971-.428c-4.355.509-8.478,1.542-11.612,4.794" transform="translate(0 0)" fill="#f9c5b3"/>
      <path id="Caminho_38" data-name="Caminho 38" d="M85.072,123.883h0l.011.015,0,0-.01-.011Z" transform="translate(76.636 111.598)" fill="#f9c5b3"/>
    </g>
  </g>
</svg>
