<svg id="HEADER_FLOR" xmlns="http://www.w3.org/2000/svg" xmlns:xlink="http://www.w3.org/1999/xlink" width="64.061" height="119.237" viewBox="0 0 64.061 119.237">
  <defs>
    <clipPath id="clip-path">
      <rect id="Retângulo_5" data-name="Retângulo 5" width="64.061" height="119.237" fill="none"/>
    </clipPath>
  </defs>
  <g id="Grupo_9" data-name="Grupo 9" clip-path="url(#clip-path)">
    <path id="Caminho_35" data-name="Caminho 35" d="M63.97,21.149h0q-.168-.873-.335-1.747c-.128-.172-.018-.408-.154-.577l-.155-.21h0a.143.143,0,0,0-.043-.148.584.584,0,0,0-.143-.458h0l-.062-.26a6.527,6.527,0,0,0-.084-1.9,1.042,1.042,0,0,0-.042-.125.1.1,0,0,0-.022-.139,7.073,7.073,0,0,0-.538-2.316,2.9,2.9,0,0,0-.556-1.085,1.187,1.187,0,0,0-.328-.545,3.592,3.592,0,0,0-.367-.9.216.216,0,0,0-.028-.162,22.825,22.825,0,0,0-.125-2.38h0a1.419,1.419,0,0,0-.191-.866c-.019-.466-.115-.951-.648-1.012a4.237,4.237,0,0,0-2.132.064.716.716,0,0,0-.115.045h0a3.115,3.115,0,0,0-1.254.518c-.888-.011-1.618.577-2.485.662-.18.018-.237.247-.227.44l-.52.345c-.624-.016-.82-.521-1.036-.959a10.009,10.009,0,0,1-.42-1.179,5.686,5.686,0,0,0-.627-2.529,1.746,1.746,0,0,0-.9-1.08.689.689,0,0,0-.594-.331h0a4.051,4.051,0,0,0-4.138,1.068,1.078,1.078,0,0,0-.7.418,5.551,5.551,0,0,0-1.436,1.749.96.96,0,0,0-.929.541,6.984,6.984,0,0,0-.68,1.619,4.53,4.53,0,0,0-.672,1.329c-.134.323-.344.246-.569.234a2.051,2.051,0,0,0-.718-.343l-.719-.714-.413-.7a.166.166,0,0,0-.115-.2,1.338,1.338,0,0,0-.382-.706l0,0a2.546,2.546,0,0,0-.374-1.07l-.014-.18c0-.247.056-.507-.167-.7a17.212,17.212,0,0,0-.511-2.177.408.408,0,0,0-.194-.36c-.193-.618-.724-.766-1.261-.905a1.365,1.365,0,0,0-1.117-.149,23.866,23.866,0,0,1-4.267.193l-1.427-.227a2.943,2.943,0,0,0-.86-.354L27.583.343a.222.222,0,0,0-.3-.024.469.469,0,0,0-.191-.047A.123.123,0,0,0,27.1.241c.009-.032-.014-.056-.069-.071l.011,0C26.878,0,26.629.123,26.451,0c-.4.085-.821-.046-1.2.164A.935.935,0,0,0,24.522.3l-.174.059A.38.38,0,0,0,23.986.5a.174.174,0,0,0-.162.051A8.266,8.266,0,0,0,21.13,2.139a1.988,1.988,0,0,0-.721.565c-.153.039-.209.161-.252.294a2.654,2.654,0,0,0-.864,1.067.194.194,0,0,0-.147.218l0,0c-.336.257-.357.69-.566,1.017a.5.5,0,0,0-.139.421.12.12,0,0,0-.044.128,1.389,1.389,0,0,0-.336.942,7.464,7.464,0,0,0-.3,1.782,1.246,1.246,0,0,0,.1.935.126.126,0,0,0,.035.162h0a1.758,1.758,0,0,1,.026,1.262l-.428,1.38a.2.2,0,0,0-.136.229v0a5.34,5.34,0,0,0-.942,1.932,11.134,11.134,0,0,0-2.1-.147.837.837,0,0,0-.548-.005c-.693-.259-1.456-.093-2.149-.353a.893.893,0,0,0-1.106-.018.169.169,0,0,0-.156.027.3.3,0,0,0-.347.186l0,0c-.2.02-.216.167-.225.319L9.8,14.5c-.038.04-.115.108-.109.116.4.563.327,1.3.685,1.878a.939.939,0,0,0,0,.538.812.812,0,0,0,0,.521,11.544,11.544,0,0,1,.451,1.894,2.742,2.742,0,0,0,.735,1.548c.07.412-.128.835.055,1.242a.94.94,0,0,1-.37.846,1.73,1.73,0,0,0-.5.6l-.015.013a.156.156,0,0,0-.168.155,2.179,2.179,0,0,0-.581.678.263.263,0,0,0-.194.193h0a23.319,23.319,0,0,0-2.844,2.344.223.223,0,0,0-.177.183.219.219,0,0,0-.187.173.308.308,0,0,0-.238.16h0c-.274.029-.345.371-.618.4l-.413.49v0a.241.241,0,0,0-.2.191,2.7,2.7,0,0,0-.859.715c-.3.178-.5.516-.881.584L1.9,31.151a4.3,4.3,0,0,0-1.233.768.208.208,0,0,0-.178.179.647.647,0,0,0-.347.723.078.078,0,0,0-.031.119A1.962,1.962,0,0,0,.14,34.254a2.584,2.584,0,0,0,.331,1.462.392.392,0,0,1,.057-.075l.006,0-.063.073c.345,1.1.835,2.14,1.272,3.2A6.491,6.491,0,0,0,2.629,40.9h0a.444.444,0,0,0,.185.368.164.164,0,0,0,.122.2,4.234,4.234,0,0,0,2.218,2.289l.693.388a3.014,3.014,0,0,0,1.263.368c.214.217.48.168.741.144h0l1.059.026a.549.549,0,0,0,.553,0,3.837,3.837,0,0,0,1.792-.194,4.855,4.855,0,0,0,1.883-.3.612.612,0,0,0,.128-.043A1.274,1.274,0,0,0,14,43.979h0l1.74-.248.7.061a.2.2,0,0,0,.017.149c-.272.483.118.764.336,1.1a7.314,7.314,0,0,0,2.847,2.694.459.459,0,0,0,.37.2.212.212,0,0,0,.216.123l.012.006a.345.345,0,0,0,.339.171l.168.06a1.055,1.055,0,0,0,.546.267l.339.074a.467.467,0,0,0,.4.114,1.519,1.519,0,0,0,1.043.2h0l.218.026h0c.685.291,1.455.044,2.139.339.611.041,1.161.408,1.794.334.2.012.4.051.549-.13a8.156,8.156,0,0,1,2.27.726.522.522,0,0,1,.226.128l-.226-.128a.2.2,0,0,0,.226.128l.17.07c.062.138.186.158.316.166a2.108,2.108,0,0,0,.778.472l1.059.6c.208.836.353.931,1.279.846l.075.041.085-.012a2.547,2.547,0,0,1,.489.18c.746.462,1.783.493,2.186,1.466l1.078,1.764.726,1.806a2.875,2.875,0,0,0,.346,1.094h0l.881,3.6a.215.215,0,0,0,.036.146,2.731,2.731,0,0,0,.2,1.056,8.387,8.387,0,0,0,.319,2.023l.041.309a1.453,1.453,0,0,0,.187.894,6.725,6.725,0,0,0,.533,2.145l.556.907a.57.57,0,0,0,.175.355,1.244,1.244,0,0,0,.337.724,9.869,9.869,0,0,1,.8,2.976,9.437,9.437,0,0,0,.234,2.266h0a.145.145,0,0,0,.035.151,1.818,1.818,0,0,0,.159,1.093c-.019.735.35,1.4.381,2.125a14.909,14.909,0,0,1,.191,2.874.266.266,0,0,0-.041.158c-.138.194-.218.387.014.572h0a1.309,1.309,0,0,0-.162.887.375.375,0,0,0-.008.169.441.441,0,0,0-.081.283,18.1,18.1,0,0,0-.13,2.008.644.644,0,0,0-.112.421q-.009,2.237-.024,4.474c-.091.175-.048.411-.276.558L42.62,90.78c.012-.1-.013-.176-.121-.2a2.278,2.278,0,0,0-.372-1.063,9.367,9.367,0,0,0-.53-2.36,1.053,1.053,0,0,0-.272-.681h0a.517.517,0,0,0-.261-.367l-.1-.192c.014-.076-.02-.113-.095-.118a.96.96,0,0,0-.341-.423l-.719-.9-.772-1.415a.171.171,0,0,0-.128-.2h0A4.886,4.886,0,0,0,36.9,80.194a10.3,10.3,0,0,0-3.026-1.639.563.563,0,0,0-.374-.161.539.539,0,0,0-.521-.187.766.766,0,0,0-.546-.176.443.443,0,0,0-.367-.161l-.011-.005c-.21-.258-.542-.205-.813-.29a.92.92,0,0,0-1.1.733,6.755,6.755,0,0,0,.082,2.308.205.205,0,0,0,.04.134h0a2.034,2.034,0,0,0,.9,1.914,27.451,27.451,0,0,1,2.529,1.8h0l.205.2h0l.827.762h0l.186.189h0a.171.171,0,0,0,.191.162.924.924,0,0,0,.736.512,6.1,6.1,0,0,0,1.8.371,2.205,2.205,0,0,0,1.248.368.31.31,0,0,0,.36.124c.566-.038.79.391,1.051.77l.578,1.412h0a10.09,10.09,0,0,0,.3,1.536.237.237,0,0,0,.034.093h0a.224.224,0,0,0,.037.163.779.779,0,0,0,.132.567.134.134,0,0,0,.034.156l.566,2.512a3.979,3.979,0,0,0,.294,1.443c.021.2-.03.459.075.6a1.572,1.572,0,0,1,.124,1.377l.027.713a.178.178,0,0,0-.008.168h0q-.01.45-.02.9a.1.1,0,0,0-.016.128,1.567,1.567,0,0,0-.063.319,4.03,4.03,0,0,0-.056,1.156q-.007.184-.013.368a.8.8,0,0,0-.017.548h0c-.156.149-.285.344-.156.533.213.312.095.6.046.914-.054.342-.062.691-.09,1.036q-.163,1.27-.327,2.54h0a.122.122,0,0,0,.01.164c0,.067,0,.135,0,.2h0l-.038.51a3.78,3.78,0,0,0-.152,1.449,1.774,1.774,0,0,0,.019.725c.055.3-.2.64.133.9,0,.119,0,.238,0,.356h0c-.177,1.39-.4,2.771-.7,4.14a.7.7,0,0,1,.1-.029.978.978,0,0,0-.1.029.736.736,0,0,0-.187.533h0c-.367.749-.348,1.609-.693,2.374a.547.547,0,0,0,.424.753.578.578,0,0,0,.789-.486,9.564,9.564,0,0,0,.405-1.543,10.882,10.882,0,0,0,.546-1.981h0a.308.308,0,0,0,.128-.379q.019-.176.037-.351h0a11.556,11.556,0,0,0,.32-1.813,2.694,2.694,0,0,0,.226-1.421,3.338,3.338,0,0,0,.148-1.437,3.839,3.839,0,0,0,.023-1.086,11.328,11.328,0,0,0,.156-1.964l.039-.885a20.586,20.586,0,0,0,.5-4.68.152.152,0,0,0,.038-.146,3.417,3.417,0,0,0,.155-1.472l.026-.168h0a18.94,18.94,0,0,0,.348-3.232A17.333,17.333,0,0,1,45.533,93.1c.024-.045,0-.116,0-.175a3.7,3.7,0,0,0,.348-1.43l.546-2.515a.058.058,0,0,1-.065-.054v0a.351.351,0,0,0,.065.056.113.113,0,0,0,.047-.141.171.171,0,0,0,.093-.21l.056-.167a.791.791,0,0,0,.194-.525l.468-1.118.919-1.8a.243.243,0,0,0,.069-.09,6.813,6.813,0,0,0,.869-1.315,3.366,3.366,0,0,0,.484-1.8l.069-.352c.282-.32.753-.1,1.053-.365a.728.728,0,0,0,.7-.371c.163-.037.2-.167.233-.306h0a.246.246,0,0,0,.146-.211.767.767,0,0,0,.351-.547.731.731,0,0,0,.315-.382h0l.016-.016a.718.718,0,0,0,.373-.331l1.635-1.041a.945.945,0,0,0,.557-.344.869.869,0,0,0,.5-.408l.006,0a3.329,3.329,0,0,0,1.105-.879,2.912,2.912,0,0,0,1.232-1.617h0a1.959,1.959,0,0,1,.66-.16c.489.06.722-.233.954-.564a2.148,2.148,0,0,0,.716-1.44,3.536,3.536,0,0,0-.515-2.337q-.021-.355-.042-.711a2.934,2.934,0,0,0-.119-1.117A3.69,3.69,0,0,0,57.9,65.688a2.343,2.343,0,0,0-1.23-.594h0a11.762,11.762,0,0,0-1.6-.556,2.332,2.332,0,0,0-1.451-.722,1.931,1.931,0,0,0-.73-.321.194.194,0,0,0-.064-.04c-.5-.294-.8-.85-1.381-1.033a.867.867,0,0,0-.892-.188,7.841,7.841,0,0,0-1.646.506h0l-.151.089h0c-.319.187-.395.539-.561.83a.2.2,0,0,0-.151.2.784.784,0,0,0-.339.9q-.015.088-.031.176h0a.114.114,0,0,0-.037.145h0a1.8,1.8,0,0,0,0,1.453c.163.349-.151.384-.262.554a1.219,1.219,0,0,0-.425.534.219.219,0,0,0-.178.186c-.3.319-.181.7-.172,1.073a8.053,8.053,0,0,0,.157,4.155.716.716,0,0,0,.177.536l.085-.066.006.011-.09.055a10.482,10.482,0,0,0,.885,2.156,1.065,1.065,0,0,0,.211.512q.018.893.036,1.786-.023.188-.047.376a2.9,2.9,0,0,0,.379,2.681q.017.532.034,1.064h0l-.046.183a.39.39,0,0,0-.089.172l-.091.19a1.871,1.871,0,0,0-.51.729,1.231,1.231,0,0,0-.425.691h0a.189.189,0,0,0-.132.194,3.392,3.392,0,0,0-.58,1.052h0a1.218,1.218,0,0,0-.348.738,21.676,21.676,0,0,0-.7,1.769A5.133,5.133,0,0,0,45,89.7l-.019-.012a1.245,1.245,0,0,0-.36.571,2.94,2.94,0,0,0-.03-.834.783.783,0,0,0,.107-.117,3.424,3.424,0,0,0-.026-1.062l-.021-.334c.233-.453.063-.943.127-1.412q.012-.194.024-.389h0l.016-.524a3.18,3.18,0,0,0,.13-1.266h0l.365-2.327h0a3.115,3.115,0,0,0-.158-1.62,7.445,7.445,0,0,0-.275-1.481.534.534,0,0,0-.06-.137h0l-.01,0a1.542,1.542,0,0,0,.011-.352,23.728,23.728,0,0,1-.57-4.649.571.571,0,0,0-.122-.414l0,0h0a.378.378,0,0,0-.025-.324.62.62,0,0,1-.072-.048l.072.048a1.46,1.46,0,0,0-.169-.916,4.14,4.14,0,0,0-.7-1.614,2.573,2.573,0,0,0-.346-.812.2.2,0,0,0-.042-.066h0l-.015.006a.325.325,0,0,0-.171-.359v0l-.328-1.272q-.023-.349-.047-.7a12.373,12.373,0,0,0-.3-4.349c-.027-.183-.009-.381-.168-.522h0a1.02,1.02,0,0,0-.2-.581.07.07,0,0,0-.026-.116.809.809,0,0,0-.12-.5,8.677,8.677,0,0,1-.771-3.043,1.708,1.708,0,0,0-.191-.76.822.822,0,0,0-.057-.542.142.142,0,0,0-.1-.2,4.549,4.549,0,0,0-.184-1.243,7.777,7.777,0,0,0-.36-1.607,11.63,11.63,0,0,0-.366-2.505,1.875,1.875,0,0,0,.2-.894,5.753,5.753,0,0,0,.611-1.281,1.193,1.193,0,0,0,.306-.682.451.451,0,0,0,.166-.364,1.423,1.423,0,0,0,.359-.718l-.085-.025c0-.006,0-.011,0-.017l.087.041,1.363-1.812h0a1.675,1.675,0,0,0,.606-.679.2.2,0,0,0,.161-.206,3.443,3.443,0,0,0,.7-.757h0a9.016,9.016,0,0,0,1.244-1.588.946.946,0,0,0,.4-.489,4.165,4.165,0,0,0,.887-1.111.213.213,0,0,0,.18-.173c.289-.158.392-.464.57-.71h0a1.624,1.624,0,0,0,.525-.536,1.246,1.246,0,0,0,.5-.559l.187-.2L49.8,37.113a3,3,0,0,0,.767-.707h0l.51-.571a.128.128,0,0,0,.138-.146h0l.116-.158a1.39,1.39,0,0,0,.634-1.094,2.582,2.582,0,0,0,.187-.771,1.067,1.067,0,0,1,.9-1.2,1.818,1.818,0,0,0,.736-.529c.235-.121.53-.122.708-.356a2.547,2.547,0,0,0,1.623-.9,1.07,1.07,0,0,0,.542-.2,3.783,3.783,0,0,1,.883-.314,1.277,1.277,0,0,0,1.075-.756.2.2,0,0,0,.185-.174l-.063-.058s0-.008,0-.011l.061.069a4.935,4.935,0,0,0,1.063-1.98.151.151,0,0,0,.032-.164A3.335,3.335,0,0,0,60.261,26l.513-1.092a.206.206,0,0,0,.181-.174l1.956-1.8c.42-.3.983-.452,1.1-1.063h0a1.013,1.013,0,0,0-.044-.728M43.8,84.829c0,.008-.008.014-.011.022l0-.022H43.8m-6.77.625.07-.064a.315.315,0,0,0-.068.1.087.087,0,0,1,0-.034m.226-.184a.557.557,0,0,0-.143.1h0l-.062.021c.041-.076.113-.15,0-.233a1.926,1.926,0,0,0-1.34-.186c-.021.034-.031.061-.048.092,0-.011,0-.022,0-.032h0a.6.6,0,0,0-.221-.306.7.7,0,0,0-.026-.166c-.3-.445-.539-.957-1.178-.966.03-.376-.269-.411-.525-.49-.019,0-.037,0-.056,0a1.222,1.222,0,0,0-.342-.3,1.551,1.551,0,0,0-.1-.2c-.678-.718-1.658-1.182-1.912-2.259,0-.013-.054-.015-.083-.022h0a1.271,1.271,0,0,0-.009-.626c.013-.009.026-.017.038-.027a.765.765,0,0,1,1.178-.5,1.434,1.434,0,0,0,.862.168.442.442,0,0,0,.05-.059.328.328,0,0,0,.483.231l.014,0a.388.388,0,0,1-.016.046,1.091,1.091,0,0,0,1.012.559c.041-.014.081-.026.118-.036.024.063.082.087.166.083l.014.009a.483.483,0,0,1-.028.145c.315.347.627.7,1.148.633A2.834,2.834,0,0,0,37.2,82.2c.037,0,.072,0,.107,0a9.22,9.22,0,0,0,.876,1.573h.021a.49.49,0,0,1-.117.059.359.359,0,0,0,.256.467l-.072.058c-.182.708.363,1.074.721,1.528a.42.42,0,0,0,.035.03.079.079,0,0,1-.141-.06,2.387,2.387,0,0,0-1.634-.589m5.752,16.8c0,.009,0,.015-.008.024l-.02-.024h.028m3.384-13.224a.1.1,0,0,1,.069-.014v0a.432.432,0,0,0-.069.012M58.077,73.183a.358.358,0,0,0-.454-.056.417.417,0,0,0-.044.068.2.2,0,0,1-.011-.023h0c-.156-.378.237-.571.294-.877h0A1.915,1.915,0,0,0,58.3,71.4h0c.2-.123.073-.391.145-.571a.542.542,0,0,0,.372.388c.006,0,.009.011.015.016a.732.732,0,0,0-.143.066,7.615,7.615,0,0,1-.606,1.88h-.008m-5.531-7.365a1.709,1.709,0,0,0,.508.56.775.775,0,0,0,.622.54c.694.1,1.383.228,2.074.344h0a.414.414,0,0,0,.36.162l.067.054.086,0,.926.5a2.747,2.747,0,0,1,1.089,1.45c-.054.159.066.352-.093.489a5.329,5.329,0,0,0-.637-.246,1.479,1.479,0,0,0-.517-.021,1.572,1.572,0,0,1-.749-.18l-.7-.418h0a1.452,1.452,0,0,0-1.17-.7c-.455,0-.863-.183-1.3-.215-.675-.4-1.189,0-1.71.352-.319.031-.445.253-.52.526h0c-.513-.143-.421-.791-.843-1.011-.165-.248-.345-.468-.67-.409a.729.729,0,0,0-.143-.172.485.485,0,0,1-.059-.043.111.111,0,0,0-.011-.055,2.959,2.959,0,0,0,.049-1.812c0-.009.008-.018.011-.027a.714.714,0,0,0,.009-.249c.007-.073-.1-.114-.108-.18v-.014a.11.11,0,0,1,.035-.068.338.338,0,0,0,0-.051l.743-.449a.7.7,0,0,0,.135.036,1.1,1.1,0,0,1,1.385.405,2.347,2.347,0,0,0,1.128.9m-.039,11.169c-.212.089-.383.208-.366.471a1.864,1.864,0,0,0-1.605,1.25.319.319,0,0,0,.03.019l-.036,0h0a.28.28,0,0,0-.236.169c-.223.058-.3-.044-.3-.257.006-.138,0-.277,0-.416a.432.432,0,0,0,0-.365q0-.181-.006-.362c0-.059,0-.118,0-.177a12.546,12.546,0,0,0-.338-3.414.859.859,0,0,0-.157-.56,1.023,1.023,0,0,0-.211-.7l-.135-.553h0l-.026.013q-.021-.279-.041-.557h0a.925.925,0,0,0-.112-.629c.029-.037.061-.072.088-.112a1.522,1.522,0,0,0,.09-.627.885.885,0,0,0-.088-.365c.008-.025.018-.049.026-.074.064-.2-.12-.512.234-.59.32-.071.493.126.632.378a2.76,2.76,0,0,0,.205.284c.565,1.12.756,1.213,1.851.9h0a.8.8,0,0,0,.516-.06h0l.086.02.082-.032h0a3.758,3.758,0,0,1,1.094.193l0,.009a2.164,2.164,0,0,0,1.046.755.8.8,0,0,0,.547.34.5.5,0,0,0,.338.237.232.232,0,0,1,.026-.1h.012a.23.23,0,0,0-.039.1.59.59,0,0,1,.116.856c-.188.294-.385.582-.578.873-.182.251-.423.457-.609.705q-.137.107-.283.2c-.211.191-.511.331-.4.706l.044.011a.237.237,0,0,1-.041,0l-.006-.007a9.62,9.62,0,0,0-1.323,1.448c-.045.005-.09.011-.136.013M55,70.289h0m1.115,3.8h0s-.007.006-.01.01l-.008-.011h.017m1.779.34c0,.009,0,.017,0,.025l-.024.011c.007-.012.014-.023.022-.036m.736-5.9h0v-.006h.005l-.005.006m-10.4-4.663h0l-.012.006.012-.008h0Zm.343,16.857h0M58.624,7.34l-.006.007a.113.113,0,0,0-.006-.01h.013V7.33l.009.006-.008,0M52.88,9.49h-.02c0-.017,0-.033,0-.049.007.016.015.033.022.049m.452-.98c.029-.038.056-.076.082-.115a.422.422,0,0,1-.082.115M42.995,9.691a4.522,4.522,0,0,0,.632-2.1.2.2,0,0,0-.019-.035l.071-.036a.746.746,0,0,0,.136-.146,1.909,1.909,0,0,0,.1-.171,1.433,1.433,0,0,1,.383-.356c.362-.348.6-.8.939-1.167.206-.222.5-.441.3-.821l.012,0a.012.012,0,0,1,0,0l.013-.01.084-.054.034-.038a.787.787,0,0,0,.129-.143l.212-.235a.812.812,0,0,0,.088-.7l.026.007a14.068,14.068,0,0,1,2.86-.9.326.326,0,0,1,.089-.157l.035.044c0,.039,0,.078,0,.117a1.13,1.13,0,0,0,.08.221c.178.273.153.714.615.744,0,0,0,.01,0,.015h0a4.884,4.884,0,0,0,.359,1.111h0a2.5,2.5,0,0,0,.545,1.566.36.36,0,0,0-.043.03c-.227.636.173,1.095.505,1.52.416.532.881,1.031,1.316,1.551a.476.476,0,0,0,.062.023,1.435,1.435,0,0,1-.328.815l-.987,1.933a13.808,13.808,0,0,0-1.083,1.818,3.316,3.316,0,0,0-.378.6,9.627,9.627,0,0,1-.671,1.358,2.448,2.448,0,0,0-.357,1.658c.027.51-.3.937-.335,1.433a.136.136,0,0,0-.054.138h0a1.689,1.689,0,0,1-.74.817,19.361,19.361,0,0,0-3.568,2.789.2.2,0,0,0-.17.163.209.209,0,0,0-.188.189c-.529.276-.8.881-1.374,1.1l-.335-.384-.417-1.212q.007-.18.014-.361a2.808,2.808,0,0,0,.161-.5,29.735,29.735,0,0,1,.845-4.063,7.6,7.6,0,0,0,.442-2.784,4.74,4.74,0,0,0,.185-2.515A10.093,10.093,0,0,1,43,10.758c.155-.377-.148-.691-.146-1.047a.373.373,0,0,0,.141-.02m-20.919,8.2V17.9h-.02l.019-.011M15.192,14.7H15.16l.015-.02c.006.008.013.012.018.021m9.168,17.041v.044a.7.7,0,0,1-.06-.045h.06m17.411-13.3a.118.118,0,0,0-.021.012l-.009-.005.036-.015-.006.008m-9.68,7.206c-.006-.006-.012-.009-.017-.015H32.1l-.009.016M31.171,27.8H31.16a.178.178,0,0,0,.027-.025.141.141,0,0,0,.015-.02.392.392,0,0,1-.033.066c0-.007,0-.013,0-.02Zm-1.435,2.332h-.011l.016-.017,0,.017,0,0,0,.006v0m1.516-2.567a.3.3,0,0,1,.078-.247.753.753,0,0,0-.078.247m.453-.841v0h0l0,0m4.169-.65a1.57,1.57,0,0,1,.867,1.369l-.363.358h0a.209.209,0,0,0-.226.141h-.006a.1.1,0,0,0-.078,0c0-.008,0-.016,0-.024a4.7,4.7,0,0,1-.274-1.162,1.128,1.128,0,0,0-.067-.128,1.561,1.561,0,0,0,.154-.554m5.574-12.005h.076l-.076,0,.006,0-.006,0M32.83,28.674h0c.292-.131.589-.31.831.014a.4.4,0,0,0-.518.388,2.667,2.667,0,0,0-.309-.4m9.444-4.219-.059-.035h0a.2.2,0,0,1,.1-.049l-.044.085m-4.637.986s0,.007,0,.011l0,.005h0l0-.005-.014-.012h.013m-2.695-.515c0-.006,0-.013,0-.019l.019.015-.018,0M24.388.906c.381.121.706.1.86-.329a1.348,1.348,0,0,0,1.4.157l0,.017a.752.752,0,0,0,.147.2,1.559,1.559,0,0,0,.2.144c.106.069.211.141.321.2.475.162.937.458,1.456.176,0,.019,0,.034,0,.054a3.416,3.416,0,0,0,3.107.234c.021-.067.08-.093.144-.115a.455.455,0,0,1-.048.246,4.059,4.059,0,0,0,2.686-.174.42.42,0,0,1,.025-.159l.066.054.486.308a.935.935,0,0,0-.009.23,9.15,9.15,0,0,1,.7,2.1,8.749,8.749,0,0,0,.558,2.232c.337.7.536,1.533,1.425,1.807a.545.545,0,0,1,.043-.131c0,.043,0,.089,0,.14a.6.6,0,0,0,.555.719l.006,0a.832.832,0,0,0,.378.482c.005.11.056.173.173.169h0a3.092,3.092,0,0,0,.89.9.2.2,0,0,0,.121.209,9.5,9.5,0,0,1,.243,2.844c-.009.1-.018.2-.028.3a2.2,2.2,0,0,0-.066.239,4.291,4.291,0,0,0-.095,1.253.1.1,0,0,0-.017.146q.014,1.092.027,2.183a10.409,10.409,0,0,0-.03,3.375c-.156.21-.217.515-.549.549h0a.473.473,0,0,0-.5.217c-1.054-.025-1.235.106-1.42,1.126-.045.251-.053.472-.373.488a.9.9,0,0,0-.9-.006,2.638,2.638,0,0,0-.9,0l-.184-.006a.58.58,0,0,0-.721.176,2.1,2.1,0,0,0-.558,1.9c.018.085-.006.178.008.265.085.543-.214.653-.718.6v-.959a24.8,24.8,0,0,0,.205-3.479,2.768,2.768,0,0,0-.186-1.229.389.389,0,0,0-.405-.276,1.37,1.37,0,0,0-1.268,1.358c-.021.5-.083,1-.106,1.5a1.035,1.035,0,0,1-.435.829.053.053,0,0,0-.086-.013.335.335,0,0,0-.344-.228,1.3,1.3,0,0,0-1.325,1.415c-.01.183-.008.379-.206.45a.4.4,0,0,1-.455-.2,3.481,3.481,0,0,0-.983-.891c-.33-.215-.656-.435-1.055-.147a.118.118,0,0,0-.156.028h0c-.9.548-.889.571-.729,1.5a7.96,7.96,0,0,0,.539,1.5c.094.244.295.459.2.752l-.523.149a.2.2,0,0,0-.192-.153,7.652,7.652,0,0,0-2.14-1.963h0l-.041-.71a12.714,12.714,0,0,0-.134-3.246l-.084.017v-.009h0l.041-.021.044.013a4.043,4.043,0,0,0-.151-1.234,12.143,12.143,0,0,1-.436-2h0a3.567,3.567,0,0,0-.475-2.01,1.718,1.718,0,0,0-.738-1.043,5.082,5.082,0,0,0-2.708-1.231l-.381-.171a.707.707,0,0,0,.028-.076,9.152,9.152,0,0,0,.146-1.156.617.617,0,0,0-.053-.151.415.415,0,0,0,.082-.214.333.333,0,0,0,.085-.053.817.817,0,0,0,.162-.325.659.659,0,0,0,0-.08,3.679,3.679,0,0,0,.641-1.911h0a1.459,1.459,0,0,0,.227-.717h0c.268-.929.233-.991-.649-1.186a1.4,1.4,0,0,1-.216-.079.444.444,0,0,0,.079-.1,4.511,4.511,0,0,0,.259-2.505c.018-.016.036-.031.053-.049.106-.124.213-.247.314-.373.243-.468.636-.87.623-1.447a.569.569,0,0,0-.028-.083l.65-.868a.719.719,0,0,0,.136,0c.887-.607,1.693-1.322,2.586-1.917.066-.08.13-.161.188-.246a1.343,1.343,0,0,0,.461-.3h0l.007-.018a.358.358,0,0,0,.023.041M1.382,33.544h0v0m-.883.5h0v.016h0c-.012-.009-.02-.018-.031-.027l.031.012m12.75,9.193h0l0,.006-.008.017-.006-.014.014,0v-.006m2.371-.8a.292.292,0,0,0-.087.227l-1.949.383-.351.026a2.611,2.611,0,0,0-.753.009,2.161,2.161,0,0,1-.332-.034.635.635,0,0,0-.354.122.207.207,0,0,0-.034.068,1.268,1.268,0,0,0-.878.124c-.219-.2-.441-.312-.679.009-.006-.007-.01-.015-.017-.022a.493.493,0,0,0-.227-.057.514.514,0,0,0-.183.071.118.118,0,0,0-.045-.019.543.543,0,0,0-.2-.235,29.024,29.024,0,0,1-2.9-.567c-.034.009-.068.015-.1.022a1.644,1.644,0,0,0-.47-.249c-.023-.1-.079-.153-.188-.131a.174.174,0,0,0-.141-.065,1.433,1.433,0,0,0-.9-1.1H4.794c0-.017,0-.034,0-.051a.777.777,0,0,0-.02-.232.84.84,0,0,0-.62-.642H4.118A.088.088,0,0,0,4.1,40c.106-.242-.026-.39-.206-.519l-.3-.644a1.092,1.092,0,0,0,.054-.138.75.75,0,0,0-.413-.826c.005-.01.009-.02.015-.03a.723.723,0,0,0-.309-.76.318.318,0,0,0-.107.016,1.009,1.009,0,0,0-.213-.523h0a.154.154,0,0,0-.089-.2h0a.3.3,0,0,0,.043-.06A2.605,2.605,0,0,0,1.823,34.4a.416.416,0,0,0-.073-.019A4.529,4.529,0,0,0,1.6,33.272c.043-.1.076-.2.109-.306-.016-.565.452-.912.625-1.392-.005-.012-.013-.022-.018-.034a4,4,0,0,0,2.358-1.714c-.006-.02-.017-.037-.025-.056a2.555,2.555,0,0,0,.876-.709v-.005c.532.043.785-.4,1.131-.682a3.366,3.366,0,0,0,.183-.289c.04-.061.08-.122.117-.186.006-.011.015-.019.022-.03a2.121,2.121,0,0,0,.381-.325.732.732,0,0,0,.254-.012c.881-.627,1.653-1.388,2.52-2.031a.539.539,0,0,0,.258-.568c.243.092.367-.1.516-.237a1.168,1.168,0,0,0,.187-.365c0-.025.007-.049.011-.074,0-.007,0-.014,0-.021.016.006.028.015.045.02a3.058,3.058,0,0,0,1.762-1.843c-.014-.017-.03-.029-.045-.044a1.217,1.217,0,0,0,.014-1.75l-.643-1.743a1.162,1.162,0,0,0,.056-.312c.038-.263.066-.522-.232-.67-.031.013-.061.022-.092.033l.01-.01,0,0v-.007c.007-.041.014-.081.021-.122.025-.3.007-.6.024-.9-.03-.345.064-.729-.308-.967a.229.229,0,0,0-.078.01c0-.011,0-.021,0-.032a.327.327,0,0,0,.057-.3c-.011-.033-.027-.064-.041-.1a.276.276,0,0,1,.123-.06c.04.012.081.023.123.033a.32.32,0,0,0,.155-.015c.018.037.034.075.052.112a19.04,19.04,0,0,0,2.542,1.139l0-.006a3.261,3.261,0,0,0,3.442.7h0l.328-.025h0a1.727,1.727,0,0,0,.721-.01l.7.052.345.9a2.485,2.485,0,0,0,.38,1.232h0a3.067,3.067,0,0,0,.493,1.093h0l.066.341h0a8.033,8.033,0,0,0,.509,3.4c.05.105.127.208.025.325-.319.365-.034.734-.006,1.1.086.123.166.259.34.221a3.1,3.1,0,0,0,.226,1.342.213.213,0,0,0-.051.019c-.015,0-.026.026-.032.079a.132.132,0,0,0,.076.128c.2.246.12.555.153.83a1,1,0,0,0,.707.961c.017.1.046.187.159.214.106.228.228.455.037.7a5.579,5.579,0,0,0-.922,1.041.426.426,0,0,1,.1.265c-.066-.1-.138-.192-.1-.265a2.543,2.543,0,0,0-.9,2.181.351.351,0,0,0-.183.322,2.75,2.75,0,0,0-.517.927,5.137,5.137,0,0,0-1.086,2.344,4.729,4.729,0,0,0-.687,1.939.293.293,0,0,0-.049.015,1.115,1.115,0,0,0-.2.275,2.171,2.171,0,0,0-.1.193c-.051.1-.1.195-.149.293-.013.028-.022.058-.034.086a3.317,3.317,0,0,0-.551.949c-.006-.005-.01-.011-.017-.016-.714.265-.672,1.113-1.181,1.537l-.017.023a1.016,1.016,0,0,0-1.066.026m3.588-3.362-.014-.01a.178.178,0,0,1,.135-.029.53.53,0,0,1-.121.039M31.119,49.357l-.063-.022a.549.549,0,0,0-.113-.142c-.125-.1-.254-.2-.387-.288-.486-.252-.951-.6-1.551-.355,0,.025-.01.046-.015.068A2.467,2.467,0,0,0,27.8,48.4a8.988,8.988,0,0,0-1.8-.175l-1.389-.49a.442.442,0,0,0-.005-.108c-.138-.227-.3-.393-.58-.288a9.576,9.576,0,0,0-1.961-2.011.746.746,0,0,0-.057.062,2.085,2.085,0,0,0-.72-.546,2.928,2.928,0,0,0-.97-.83.81.81,0,0,0-.02-.083.661.661,0,0,0-.427-.316c-.01,0-.019,0-.029,0a1.273,1.273,0,0,1-.062-.811c.027-.158.044-.318.058-.478A.764.764,0,0,0,19.87,42c0-.057.009-.115.014-.172a.586.586,0,0,0,.05-.126,3.308,3.308,0,0,0,.287-1.165.1.1,0,0,0,.036-.123,2.762,2.762,0,0,0,.5-1.495,2.4,2.4,0,0,1,.222-.878h0a11.1,11.1,0,0,0,.9-1.948l0-.005h0a.57.57,0,0,0,.277-.4,1.97,1.97,0,0,0,.4-.733h0a2.547,2.547,0,0,0,.56-.869,3.868,3.868,0,0,0,.71-.89l1.992-1.979a.413.413,0,0,0,.333-.2h0l.088,0,.083-.029h0l.345.076a.3.3,0,0,0,.352.1l.222.014h0a17.047,17.047,0,0,0,3.334-.063,1.057,1.057,0,0,0,.446-.07l.074.024.073-.029a.713.713,0,0,0,.987.428,11.9,11.9,0,0,0,2.489-.952,5.018,5.018,0,0,0,1.924-.724h0a.377.377,0,0,0,.39-.186,6.935,6.935,0,0,0,2.14-1.263.137.137,0,0,0,.174-.117,8.594,8.594,0,0,0,1.993-1.457,11.851,11.851,0,0,0,2.127-1.811,1.182,1.182,0,0,0,.526-.565.2.2,0,0,0,.2-.162.489.489,0,0,0,.4-.352c.26-.085.342-.334.487-.525a2.089,2.089,0,0,0,.441-.283,17.426,17.426,0,0,1,3.281-2.554,2.485,2.485,0,0,0,.781-.57h0l2.3-.794a1.292,1.292,0,0,0,.767-.121h0l.255,0a10.918,10.918,0,0,0,1.647.189h0c.1.241.514.3.39.672a.14.14,0,0,0-.061.139.429.429,0,0,0-.311.289,19.966,19.966,0,0,1-1.8,2.482c-.327.338-.318.9-.682,1.175a2.967,2.967,0,0,0-.94,1.816.488.488,0,0,0-.169.39c-.1,1.145-.215,2.289-.288,3.435a6.956,6.956,0,0,0-.065,1.763l-.764,2.068a1.854,1.854,0,0,1-.195.193.806.806,0,0,0-.085.246,1.248,1.248,0,0,0,0,.17l-.784,1.233a.2.2,0,0,0-.158.209.89.89,0,0,0-.39.53.884.884,0,0,0-.32.4c-.1.015-.145.091-.178.176h0l-1.462,1.732a1.583,1.583,0,0,0-.537.552.177.177,0,0,0-.179.176l0,0h0a2.115,2.115,0,0,0-.707.632c-.442.466-.873.941-1.306,1.415a.7.7,0,0,0-.364.146.9.9,0,0,0-.559.649.513.513,0,0,0,.013.06,1.19,1.19,0,0,0-.675.679l-.169.181a.182.182,0,0,0-.172.184h0s0,.009-.007.013a.068.068,0,0,1,0-.008,6.956,6.956,0,0,0-1.39,1.815.12.12,0,0,0-.06.139l.046.006a.225.225,0,0,0-.032.039.369.369,0,0,1-.02-.038.464.464,0,0,0-.293.388l-.188.235a3.131,3.131,0,0,0-.913,1.378c-.512.084-.634.573-.924.889a.173.173,0,0,0-.152.188h0a2.757,2.757,0,0,1-.391.326,1.354,1.354,0,0,0-.693.368,2.862,2.862,0,0,0-1.061.577h0a1.216,1.216,0,0,0-.728.321,1.9,1.9,0,0,0-1.242.407.474.474,0,0,0-.056-.087,3.248,3.248,0,0,1-1.643-.487c-.2-.123-.421-.332-.694-.132M59.513,27.129l-.02-.014h0l.019.013v0M36.849,53.7l-.034-.025c-.069-.046-.179-.128-.079-.185.025-.015.05-.031.074-.049a1.746,1.746,0,0,0,.039.258m6.02-9.967-.018.017h0l.018-.02v0m3.2-4.093,0,0h0l0,0v.007l-.007-.006.007,0M40.508,61.7l0,0,0,0v0m-2.151-9.312c0-.036,0-.072,0-.108.05.008.1.019.139.03l-.137.078m-1.087-.9h0c0,.01,0,.019,0,.028l-.036,0,.032-.031m1.8,7.185c0,.005,0,.011,0,.016l-.01-.007.01-.009m1.387,7.347a1.242,1.242,0,0,1-.128,0,.211.211,0,0,1,.128,0m.948-1.065h0c0-.013,0-.027,0-.04l.015.006-.01.034m6.253-27.465.006,0v0h-.006m5.6-14.317-.014-.036h-.008l.007-.006s0,0,0,.006h0c.009,0,.016,0,.025,0a.335.335,0,0,1-.011.038M32.593,51.686h0m9.532,15.577-.006,0,.007-.006A.087.087,0,0,1,42.125,67.263Zm18-44.466a.265.265,0,0,1,0,.2l-.017.022a.329.329,0,0,1-.251.073,3.661,3.661,0,0,0-1.334,3.142.717.717,0,0,0,.131.121c-.1.2-.173.419-.393.531l-.173,0a.592.592,0,0,0-.735.347,6.128,6.128,0,0,0-2.494,1.091h0a.212.212,0,0,0-.2.144.569.569,0,0,1-.016.071.73.73,0,0,1-.04-.113,1.015,1.015,0,0,0-1.084.577.472.472,0,0,0,.006.056,2.828,2.828,0,0,0-.808.524h-.365c-.063-.711.12-1.42.015-2.131h0a1.842,1.842,0,0,0,.14-1.087l.044-.18a15.366,15.366,0,0,0,.877-1.98.463.463,0,0,0,.2-.354h0l1.765-2.16a3.349,3.349,0,0,0,.752-1.035c.589-.845.477-1.293-.418-1.62-.222-.081-.457-.125-.686-.186l-.306-.06a.935.935,0,0,0-.772-.145l-.308-.032a3.36,3.36,0,0,0-2.073-.008h0c-.471-.029-.893.279-1.372.2a.161.161,0,0,0-.022-.153.133.133,0,0,0,.042-.149l.551-1.612a.177.177,0,0,0,.122-.219l.035-.179a2.815,2.815,0,0,1,.189-.844.451.451,0,0,0,.161-.4L52.039,14l1.067-1.794a.722.722,0,0,0,.352-.548,1.776,1.776,0,0,0,.491-.916.734.734,0,0,0,.18-.683h.018c.246-.879,1.064-1.019,1.733-1.361.3-.152.753-.146.775-.622.018,0,.036,0,.054.009a.361.361,0,0,0,.243,0,.805.805,0,0,1,.077-.075l2.094-.466a.275.275,0,0,0,.019.049.97.97,0,0,0,1.045.3.423.423,0,0,0-.1.144,8.84,8.84,0,0,0-.081,1.871,2.433,2.433,0,0,0,.462,1.765.781.781,0,0,0,.1-.029c0,.013-.008.026-.011.04a.282.282,0,0,0-.059.263.49.49,0,0,0,.16.227l.016.008c.006,0,.015.007.022.011l.021.011c-.013.02-.029.039-.041.06a.809.809,0,0,0,.48.979c0,.013-.009.026-.015.038.039.277.13.507.448.537-.014.023-.027.045-.04.068a7.118,7.118,0,0,0,.688,2.442.4.4,0,0,0,.131-.032c0,.012,0,.024,0,.035a.555.555,0,0,0-.093.465c0,.011.008.025.012.037a1.181,1.181,0,0,0,.076,1.249.473.473,0,0,0,.187.05c-.137.23-.169.428.158.519a.426.426,0,0,0-.059.068,4.53,4.53,0,0,1-.832,2.472c-.015.021-.008.058-.011.087a.328.328,0,0,0,.023.033l-.023,0-.282.208c0-.006-.005-.012-.009-.019a1.751,1.751,0,0,0-1.4,1.3" transform="translate(0)" fill="#e4d5b5"/>
    <path id="Caminho_36" data-name="Caminho 36" d="M199.387,24.955v0h0l0,0h0" transform="translate(-140.763 -17.618)" fill="#e4d5b5"/>
  </g>
</svg>
