<svg xmlns="http://www.w3.org/2000/svg" xmlns:xlink="http://www.w3.org/1999/xlink" width="661" height="142.657" viewBox="0 0 661 142.657">
  <defs>
    <linearGradient id="linear-gradient" x1="-3.252" y1="0.25" x2="2.097" y2="0.788" gradientUnits="objectBoundingBox">
      <stop offset="0" stop-color="#f2bf5e"/>
      <stop offset="0.328" stop-color="#f2d46c"/>
      <stop offset="0.746" stop-color="#f2dd72"/>
      <stop offset="1" stop-color="#d99543"/>
    </linearGradient>
    <clipPath id="clip-path">
      <rect id="Retângulo_9" data-name="Retângulo 9" width="661" height="142.657" transform="translate(-11)" fill="url(#linear-gradient)"/>
    </clipPath>
  </defs>
  <g id="HEADER_NOME" transform="translate(11)" clip-path="url(#clip-path)">
    <path id="Caminho_41" data-name="Caminho 41" d="M32.042,62.2c3.888,0,5.183,1.06,5.183,2.121,0,.825-.707,1.178-1.767,1.3-17.906,1.532-29.1,9.778-29.1,30.746A31.264,31.264,0,0,0,37.7,128.284c14.843,0,24.385-9.778,24.621-62.2L49.241,55.6C29.45,40.169,24.385,34.632,24.385,28.035c0-8.364,6.126-14.725,15.786-14.725,12.369,0,27.918,8.364,28.39,47.12,14.254,11.545,27.565,23.678,35.222,35.1-.236-11.78-.471-27.212-.471-47.709,0-19.673,4.358-26.505,11.191-26.505,2.356,0,3.652,1.649,3.652,2.945,0,1.65-4,1.414-8.128,3.416-.589,3.181-.943,11.074-.943,19.437,0,9.542.118,23.207.118,56.662V105.9a53.583,53.583,0,0,1,3.3,17.081c0,5.655-2.592,8.953-5.3,8.953-1.649,0-2.827-2-2.827-11.073,0-2.945-.118-6.714-.235-11.309-6.6-10.72-18.141-23.207-35.576-38.168-1.532,52.068-16.139,62.552-35.576,62.552C19.908,133.938,0,123.454,0,98.951,0,73.388,15.668,62.2,32.042,62.2m29.921-7.068C59.725,25.8,47.12,17.315,38.285,17.315c-5.772,0-8.6,3.3-8.6,7.068,0,5.183,3.3,8.6,24.738,24.974,2.474,1.885,4.948,3.888,7.54,5.772" transform="translate(400 -6.36)" fill="url(#linear-gradient)"/>
    <path id="Caminho_42" data-name="Caminho 42" d="M261.614,135.9c.236-.825.353-1.414.707-1.414s.589.471.589,1.532a35.2,35.2,0,0,1-1.649,8.835c-3.3,10.484-6.243,15.079-10.484,15.079-3.181,0-5.537-3.3-6.715-16.492-2.238,10.366-5.3,14.961-9.188,14.961-4.83,0-8.835-6.6-8.835-18.495,0-18.259,5.772-28.861,12.958-28.861a9.169,9.169,0,0,1,5.772,1.885c2.121-4.123,4.359-5.772,5.89-5.772.943,0,1.65.943,1.65,3.063A78.932,78.932,0,0,1,249.834,126c.354,19.673,1.885,26.976,4.005,26.976,2.238,0,5.183-8.364,7.775-17.081m-28.508.589c0,12.722,2,15.9,3.77,15.9,2.12,0,4.947-5.3,6.714-16.728-.117-1.649-.236-5.537-.236-8.953a86.909,86.909,0,0,1,.707-10.6,5.663,5.663,0,0,0-4.358-2.239c-3.652,0-6.6,5.89-6.6,22.618" transform="translate(291.999 -51.198)" fill="url(#linear-gradient)"/>
    <path id="Caminho_43" data-name="Caminho 43" d="M267.321,68.813c0-1.06,1.532-2.709,5.3-2.945.707,0,4.241-.117,9.189-.236V65.4c.824-14.607,1.178-18.024,2.592-18.024s3.652,2.356,3.652,17.081v1.061c13.9-.236,32.513-.472,35.222-.472,1.767,0,2.356.472,2.356,1.3,0,1.414-2.592,4.476-8.952,4.476-6.6,0-18.377,0-28.626-.236-.118,14.254-.471,40.877-.471,45,0,9.071.707,10.484,2.238,10.484,2.474,0,6.479-6.126,9.542-17.081.236-.825.354-1.414.589-1.414s.471.354.471,1.178c0,5.89-3.181,14.254-6.95,18.377a7.4,7.4,0,0,1-5.654,2.71c-4.123,0-7.657-2.828-7.657-19.2,0-10.955.825-30.157,1.3-40.17l-11.544-.354c-2.121-.117-2.592-.471-2.592-1.3" transform="translate(272.274 -22.635)" fill="url(#linear-gradient)"/>
    <path id="Caminho_44" data-name="Caminho 44" d="M342.814,119.688c1.06.236,1.414,1.65,1.414,3.77.118,16.021,1.532,30.275,4.712,30.275,2.12,0,5.418-6.361,8.01-16.492.236-.825.354-1.414.707-1.414.236,0,.471.236.471,1.178a37.112,37.112,0,0,1-1.3,8.482c-3.181,10.838-6.832,14.489-10.6,14.489-3.181,0-6.479-2.827-7.775-13.076-2.238,7.893-4.83,11.78-8.835,11.78-4.83,0-8.835-6.125-8.835-18.377,0-18.259,3.888-31.571,12.958-31.571,4.83,0,8.128,5.183,9.071,10.955m-2.827,2.121c-.825-5.89-3.416-10.249-6.832-10.249-3.887,0-5.3,7.068-5.3,26.152,0,12.722,2,15.786,4.005,15.786,1.649,0,3.652-3.652,5.89-12.134,0-1.178-.118-2.474-.118-3.887,0-5.419.707-12.251,2.356-15.668" transform="translate(246.729 -51.953)" fill="url(#linear-gradient)"/>
    <path id="Caminho_45" data-name="Caminho 45" d="M392.991,156.269c-2.592,0-5.654-3.3-4.359-15.079V122.107c0-10.131,2.945-17.435,5.654-17.435,1.178,0,1.65.943,1.65,2.945,0,2.709-.707,19.673-.943,33.691,4.241-29.332,5.654-34.28,10.838-34.28,3.887,0,8.717,3.063,8.717,11.662,0,6.361-.354,13.311-.354,16.139,0,16.728.589,19.437,2.474,19.437,2.592,0,5.183-4.712,5.654-14.018.117-3.181,0-4.358,1.06-4.358.943,0,2,1.414,2,6.243,0,9.306-4.712,15.785-10.6,15.785-4.947,0-8.01-4.123-8.01-15.2,0-5.772,1.178-20.38,1.178-25.8,0-2.827-1.885-4.712-3.534-4.712-1.178,0-1.649.707-2.945,6.125s-2.592,14.489-4.476,29.45c-.824,6.95-2,8.482-4.005,8.482" transform="translate(214.458 -50.012)" fill="url(#linear-gradient)"/>
    <path id="Caminho_46" data-name="Caminho 46" d="M490.876,138.951c0-19.437,3.769-31.571,10.837-31.571,5.89,0,9.424,5.89,9.424,16.374,0,9.9-3.888,15.55-13.194,18.141.707,8.835,3.181,14.49,7.893,14.49s7.069-3.77,7.893-13.783c.353-3.887,1.06-4.829,2-4.829,1.06,0,1.414.825,1.414,3.3,0,13.665-5.066,19.673-13.312,19.673-9.188,0-12.957-8.127-12.957-21.792m6.832.235c5.537-1.767,8.128-5.183,8.128-12.722,0-11.545-2.238-16.021-4.358-16.021-2.356,0-4.005,4.123-4.005,22.029,0,3.416.236,6.714.236,6.714" transform="translate(-136.541 -51.306)" fill="url(#linear-gradient)"/>
    <g id="Grupo_16" data-name="Grupo 16" transform="translate(-302)">
      <path id="Caminho_47" data-name="Caminho 47" d="M657.124,116.152c-.943,17.434-12.6,26.505-30.864,26.505-31.1,0-51.243-25.327-51.243-45.943,0-4.712,2.474-6.479,6.95-6.479,12.84,0,41.23,17.081,68.206,21.439-.353-17.434-4.594-44.764-4.594-94.24-23.56,7.3-37.7,18.966-37.7,40.17,0,19.908,9.071,32.4,32.984,33.809.942,0,1.3.353,1.3.825,0,1.06-1.767,2.238-7.068,2.238-19.319,0-34.044-9.778-34.044-34.751,0-23.678,18.966-38.992,44.529-46.178C645.932,1.767,648.052,0,649.938,0c2.827,0,6.243,6.243,2.709,15.2,0,45.353,4.359,73.036,4.594,97.3,1.532.118,3.181.236,4.712.236,3.534,0,6.479-.472,7.3-.472.589,0,.824.236.824.707,0,1.532-4.948,3.181-12.958,3.181m-6.951-.354c-24.149-2.356-51.361-15.9-70.444-21.793C587.15,121.924,608,137.474,630.5,137.474c12.487,0,19.2-6.6,19.673-21.675" transform="translate(-274.743)" fill="url(#linear-gradient)"/>
      <path id="Caminho_48" data-name="Caminho 48" d="M782.716,135.9c.235-.825.353-1.414.706-1.414s.589.471.589,1.532a35.207,35.207,0,0,1-1.649,8.835c-3.3,10.484-6.243,15.079-10.484,15.079-3.181,0-5.537-3.3-6.715-16.492-2.238,10.366-5.3,14.961-9.188,14.961-4.83,0-8.835-6.6-8.835-18.495,0-18.259,5.772-28.861,12.958-28.861a9.169,9.169,0,0,1,5.772,1.885c2.121-4.123,4.359-5.772,5.89-5.772.942,0,1.649.943,1.649,3.063A78.927,78.927,0,0,1,770.936,126c.354,19.673,1.885,26.976,4.005,26.976,2.238,0,5.184-8.364,7.775-17.081m-28.508.589c0,12.722,2,15.9,3.77,15.9,2.12,0,4.947-5.3,6.715-16.728-.117-1.649-.236-5.537-.236-8.953a86.909,86.909,0,0,1,.707-10.6,5.663,5.663,0,0,0-4.358-2.239c-3.652,0-6.6,5.89-6.6,22.618" transform="translate(-356.984 -51.198)" fill="url(#linear-gradient)"/>
      <path id="Caminho_49" data-name="Caminho 49" d="M835.239,94.288c0,11.544.235,42.879.235,51.832,3.534-5.655,7.068-12.6,9.9-17.788.353-.707.824-1.649,1.178-1.649s.589.354.589,1.06a14.3,14.3,0,0,1-1.885,6.126c-2.591,4.712-5.419,9.542-9.66,16.139,0,0,.354,22.146.354,26.859,0,3.416-.589,4.476-1.885,4.476-3.652,0-7.893-6.715-7.893-13.783,0-4.947,1.3-9.306,2.827-14.371v-23.56c-2.945,10.249-5.419,14.489-9.307,14.489-5.3,0-8.482-6.243-8.482-17.788,0-20.144,5.183-28.743,12.37-28.743a7.618,7.618,0,0,1,5.3,2.238c0-9.542,1.532-18.612,4.241-18.612,1.767,0,2.121,2.827,2.121,13.076m-6.362,28.39V103.358a8.053,8.053,0,0,0-5.537-2.71c-3.063,0-5.536,5.772-5.536,23.443,0,12.016,2.474,15.314,3.77,15.314,1.649,0,2.709-2.474,7.3-16.728" transform="translate(-387.595 -38.803)" fill="url(#linear-gradient)"/>
      <path id="Caminho_50" data-name="Caminho 50" d="M889.943,150.217c0-.354.235-12.722.589-27.212-4.712,31.335-6.6,35.929-11.427,35.929-4.241,0-7.893-3.534-7.893-11.9,0-6.714.236-19.437.707-26.505.353-5.536,1.532-8.364,4.123-8.364,2.474,0,3.534,2.592,3.534,6.125,0,4.005-1.885,18.966-1.885,29.332,0,4.123,1.649,6.008,3.3,6.008,1.3,0,2.945-4.476,8.011-37.343.589-3.534.824-5.3,2.827-5.3,3.416,0,5.3,7.893,5.3,17.435,0,0-.354,9.66-.354,17.2,0,7.775.236,8.6,1.885,8.6,2.592,0,6.243-6.243,8.953-17.081.236-.943.353-1.178.471-1.178.235,0,.471.236.471,1.649,0,6.361-4.948,22.029-12.723,22.029-4.005,0-5.89-3.416-5.89-9.424" transform="translate(-416.266 -53.031)" fill="url(#linear-gradient)"/>
      <path id="Caminho_51" data-name="Caminho 51" d="M936.632,136.152c0-19.673,5.183-29.45,9.66-29.45,5.654,0,11.191,9.542,11.191,21.557,0,7.422-4.477,13.194-13.783,15.786.824,6.243,3.181,9.778,6.95,9.778,4.594,0,10.484-6.479,13.9-18.848.235-.825.354-1.414.589-1.414s.354.589.354,1.178a25.693,25.693,0,0,1-1.414,8.128c-4.123,11.427-10.013,16.021-16.375,16.021-7.3,0-11.073-5.772-11.073-22.736m6.832,4.476c1.3-2,3.416-2.356,6.008-2.356,1.767-1.767,2.592-5.183,2.592-8.011,0-14.253-3.652-20.261-6.008-20.261-2,0-2.827,7.185-2.827,24.62,0,3.416.235,6.008.235,6.008" transform="translate(-447.524 -50.982)" fill="url(#linear-gradient)"/>
      <path id="Caminho_52" data-name="Caminho 52" d="M1000.109,122.565c0,1.767-2.709,4.005-5.89,4.005-3.888,0-5.3-3.063-6.008-10.838-.707-6.714-.824-16.963-.824-31.806,0-34.162.707-42.644,4.005-42.644,2.238,0,3.887,4.123,3.887,11.9,0,6.95-1.06,15.078-1.06,30.628s.235,25.563.824,31.335c.354,4.476,1.178,5.537,2.356,5.89,1.3.354,2.709.236,2.709,1.532" transform="translate(-471.774 -19.725)" fill="url(#linear-gradient)"/>
      <path id="Caminho_53" data-name="Caminho 53" d="M1017.733,76.344a17.556,17.556,0,0,1-.118-2.238,5.158,5.158,0,0,1,5.065-5.3c1.414,0,2.121.707,2.121,3.77a77.261,77.261,0,0,1-.589,8.246c-.471,2.474-1.885,3.534-3.181,3.534-1.414,0-2.356-1.178-3.3-8.011m7.3,55.131c.118,1.885.353,2.945,1.06,2.945.354,0,1.061-.472,1.767-1.414a41.534,41.534,0,0,0,7.068-14.136c.707-2.474.824-2.827,1.06-2.827s.354.472.354,2a25.749,25.749,0,0,1-2.238,9.9c-2.945,7.068-7.893,11.9-11.544,11.9-4.594,0-4.594-4.477-4.594-39.228,0-6.361.707-8.953,2.474-8.953,2.592,0,4.83,4.594,4.83,8.6a49.879,49.879,0,0,1-.825,9.071c0,4.476.236,15.432.589,22.146" transform="translate(-486.217 -32.875)" fill="url(#linear-gradient)"/>
      <path id="Caminho_54" data-name="Caminho 54" d="M1067.551,139.632c.353-5.419.707-11.427.707-14.725,0-4.241-2-6.126-3.534-6.126-1.3,0-2.238,2.121-7.539,23.56,0,0,.236,7.539.236,12.723,0,3.534-.472,5.3-2.121,5.3-4.594,0-5.654-6.714-5.654-20.379V122.551c0-6.479,4.005-9.306,5.419-9.306,2.827,0,1.649,4.358,1.649,7.893l-.354,15.078c4.005-20.5,6.6-22.854,11.545-22.854,3.534,0,7.3,3.3,7.3,11.191,0,4.241-.825,11.427-1.178,16.728-.235,3.888-.471,8.835-.471,10.484,0,1.767.471,3.063,1.649,3.063,2.12,0,5.183-3.534,8.953-16.139.353-1.178.589-1.649.706-1.649.236,0,.354.354.354,1.767,0,8.364-6.244,21.322-12.251,21.322-3.77,0-5.89-2.356-5.89-9.9,0-1.885.118-6.126.471-10.6" transform="translate(-501.521 -54.109)" fill="url(#linear-gradient)"/>
      <path id="Caminho_55" data-name="Caminho 55" d="M1158.7,124.914c-.824-2.592-1.649-3.77-1.649-4.594s.472-1.414,1.767-1.414c3.181,0,6.126,5.183,6.126,11.9,0,19.791-13.429,31.806-30.746,31.806-14.607,0-22.971-10.249-22.971-26.858,0-20.969,5.183-30.629,9.659-30.629,6.126,0,11.78,9.189,11.78,17.906,0,8.364-3.534,14.372-12.84,22.618,2.592,7.422,8.129,12.369,17.788,12.369,14.372,0,22.5-9.424,22.5-23.442a29.808,29.808,0,0,0-1.414-9.66M1119,143.055c6.244-6.6,8.011-9.424,8.011-16.846,0-10.013-3.77-17.788-6.361-17.788-2,0-2.709,4.712-2.709,24.385a46.4,46.4,0,0,0,1.06,10.249" transform="translate(-530.946 -50.228)" fill="url(#linear-gradient)"/>
    </g>
  </g>
</svg>
