<svg xmlns="http://www.w3.org/2000/svg" xmlns:xlink="http://www.w3.org/1999/xlink" width="844" height="182.152" viewBox="0 0 844 182.152"><defs><clipPath id="a"><rect width="844" height="182.152" transform="translate(-11)" fill="#683545"/></clipPath></defs><g transform="translate(11)" clip-path="url(#a)"><path d="M40.912,75.732c4.964,0,6.618,1.354,6.618,2.708,0,1.053-.9,1.5-2.256,1.654C22.412,82.049,8.122,92.578,8.122,119.352c0,25.721,20.457,40.762,40.01,40.762,18.952,0,31.136-12.485,31.437-79.419l-16.7-13.387C37.6,47.6,31.136,40.535,31.136,32.112c0-10.679,7.822-18.8,20.156-18.8,15.793,0,35.648,10.68,36.25,60.165,18.2,14.741,35.2,30.233,44.974,44.824-.3-15.042-.6-34.745-.6-60.918,0-25.119,5.565-33.843,14.289-33.843,3.008,0,4.663,2.106,4.663,3.76,0,2.106-5.113,1.806-10.378,4.362-.752,4.061-1.2,14.14-1.2,24.819,0,12.184.151,29.632.151,72.349v2.708a68.418,68.418,0,0,1,4.211,21.809c0,7.221-3.309,11.432-6.768,11.432-2.106,0-3.61-2.557-3.61-14.139,0-3.761-.151-8.573-.3-14.44-8.423-13.688-23.164-29.632-45.425-48.734-1.956,66.483-20.607,79.87-45.425,79.87C25.42,167.334,0,153.948,0,122.661c0-32.64,20.005-46.929,40.912-46.929m38.205-9.025C76.26,29.254,60.165,18.424,48.884,18.424c-7.37,0-10.98,4.211-10.98,9.025,0,6.618,4.212,10.98,31.587,31.888,3.159,2.407,6.318,4.964,9.627,7.37" transform="translate(513.787 -4.435)" fill="#683545"/><path d="M271.463,143.855c.3-1.053.451-1.805.9-1.805s.752.6.752,1.956a44.948,44.948,0,0,1-2.106,11.281c-4.211,13.387-7.972,19.253-13.387,19.253-4.061,0-7.07-4.212-8.574-21.058-2.858,13.236-6.768,19.1-11.732,19.1-6.167,0-11.281-8.423-11.281-23.615,0-23.314,7.37-36.852,16.545-36.852a11.708,11.708,0,0,1,7.371,2.407c2.708-5.265,5.566-7.371,7.521-7.371,1.2,0,2.106,1.2,2.106,3.911,0,4.513-1.354,12.936-3.159,20.156.451,25.119,2.407,34.445,5.114,34.445,2.858,0,6.618-10.68,9.928-21.81m-36.4.752c0,16.245,2.557,20.306,4.813,20.306,2.707,0,6.317-6.768,8.573-21.359-.15-2.106-.3-7.07-.3-11.432a110.975,110.975,0,0,1,.9-13.537,7.231,7.231,0,0,0-5.565-2.858c-4.663,0-8.423,7.521-8.423,28.88" transform="translate(438.464 -35.707)" fill="#683545"/><path d="M267.321,74.749c0-1.354,1.956-3.459,6.768-3.761.9,0,5.415-.15,11.733-.3v-.3c1.053-18.652,1.5-23.014,3.309-23.014s4.663,3.008,4.663,21.81v1.354c17.749-.3,41.515-.6,44.974-.6,2.256,0,3.008.6,3.008,1.655,0,1.8-3.309,5.716-11.431,5.716-8.423,0-23.465,0-36.551-.3-.15,18.2-.6,52.194-.6,57.458,0,11.582.9,13.387,2.858,13.387,3.158,0,8.273-7.822,12.183-21.81.3-1.053.452-1.8.752-1.8s.6.451.6,1.5c0,7.52-4.061,18.2-8.875,23.464-2.256,2.406-4.512,3.46-7.22,3.46-5.265,0-9.777-3.611-9.777-24.518,0-13.988,1.053-38.506,1.654-51.291L270.63,76.4c-2.708-.15-3.309-.6-3.309-1.654" transform="translate(424.708 -15.786)" fill="#683545"/><path d="M348.913,122.721c1.354.3,1.8,2.106,1.8,4.813.151,20.457,1.956,38.657,6.017,38.657,2.707,0,6.918-8.123,10.228-21.058.3-1.053.451-1.8.9-1.8.3,0,.6.3.6,1.5a47.387,47.387,0,0,1-1.654,10.83c-4.061,13.838-8.724,18.5-13.538,18.5-4.061,0-8.273-3.61-9.928-16.7-2.858,10.078-6.167,15.041-11.281,15.041-6.167,0-11.281-7.821-11.281-23.464,0-23.314,4.964-40.311,16.546-40.311,6.167,0,10.378,6.618,11.582,13.988m-3.61,2.708c-1.053-7.521-4.362-13.086-8.724-13.086-4.963,0-6.768,9.025-6.768,33.392,0,16.245,2.557,20.156,5.114,20.156,2.106,0,4.663-4.663,7.52-15.493,0-1.5-.151-3.159-.151-4.963,0-6.919.9-15.643,3.008-20.005" transform="translate(406.892 -36.233)" fill="#683545"/><path d="M394.283,170.554c-3.309,0-7.22-4.211-5.566-19.253V126.933c0-12.935,3.761-22.261,7.22-22.261,1.5,0,2.106,1.2,2.106,3.761,0,3.459-.9,25.119-1.2,43.019,5.415-37.453,7.22-43.771,13.838-43.771,4.964,0,11.13,3.911,11.13,14.891,0,8.123-.451,17-.451,20.607,0,21.359.752,24.819,3.159,24.819,3.309,0,6.618-6.016,7.22-17.9.15-4.061,0-5.565,1.354-5.565,1.2,0,2.557,1.8,2.557,7.972,0,11.883-6.016,20.155-13.537,20.155-6.317,0-10.228-5.264-10.228-19.4,0-7.37,1.5-26.022,1.5-32.941,0-3.61-2.406-6.016-4.512-6.016-1.5,0-2.106.9-3.761,7.821s-3.309,18.5-5.716,37.6c-1.053,8.874-2.557,10.83-5.114,10.83" transform="translate(384.386 -34.88)" fill="#683545"/><path d="M490.876,147.691c0-24.819,4.813-40.311,13.837-40.311,7.521,0,12.033,7.521,12.033,20.907,0,12.635-4.964,19.855-16.847,23.164.9,11.281,4.061,18.5,10.078,18.5s9.025-4.813,10.078-17.6c.451-4.963,1.354-6.166,2.557-6.166,1.354,0,1.8,1.053,1.8,4.211,0,17.448-6.468,25.119-17,25.119-11.732,0-16.545-10.378-16.545-27.826m8.724.3c7.07-2.256,10.378-6.618,10.378-16.245,0-14.741-2.858-20.456-5.565-20.456-3.009,0-5.114,5.265-5.114,28.128,0,4.362.3,8.573.3,8.573" transform="translate(-35.397 -35.782)" fill="#683545"/><g transform="translate(0.84 0)"><path d="M679.855,148.309c-1.2,22.261-16.094,33.843-39.409,33.843-39.709,0-65.43-32.339-65.43-58.662,0-6.016,3.158-8.273,8.875-8.273,16.4,0,52.645,21.81,87.09,27.375-.451-22.261-5.866-57.157-5.866-120.331-30.083,9.325-48.132,24.216-48.132,51.291,0,25.42,11.582,41.364,42.116,43.169,1.2,0,1.655.451,1.655,1.053,0,1.354-2.256,2.858-9.025,2.858-24.668,0-43.47-12.485-43.47-44.372,0-30.233,24.217-49.787,56.856-58.963C665.565,2.256,668.273,0,670.68,0c3.61,0,7.972,7.972,3.459,19.4,0,57.909,5.565,93.257,5.866,124.242,1.956.15,4.061.3,6.017.3,4.512,0,8.273-.6,9.325-.6.752,0,1.053.3,1.053.9,0,1.956-6.318,4.061-16.545,4.061m-8.875-.451c-30.835-3.008-65.58-20.306-89.947-27.826,9.476,35.648,36.1,55.5,64.828,55.5,15.944,0,24.518-8.423,25.119-27.676" transform="translate(-575.016 0)" fill="#683545"/><path d="M792.565,143.855c.3-1.053.451-1.805.9-1.805s.752.6.752,1.956a44.956,44.956,0,0,1-2.106,11.281c-4.211,13.387-7.972,19.253-13.387,19.253-4.061,0-7.07-4.212-8.574-21.058-2.858,13.236-6.768,19.1-11.732,19.1-6.167,0-11.281-8.423-11.281-23.615,0-23.314,7.37-36.852,16.545-36.852a11.708,11.708,0,0,1,7.37,2.407c2.708-5.265,5.565-7.371,7.521-7.371,1.2,0,2.106,1.2,2.106,3.911,0,4.513-1.354,12.936-3.159,20.156.451,25.119,2.407,34.445,5.114,34.445,2.858,0,6.619-10.68,9.928-21.81m-36.4.752c0,16.245,2.557,20.306,4.813,20.306,2.707,0,6.317-6.768,8.573-21.359-.15-2.106-.3-7.07-.3-11.432a110.972,110.972,0,0,1,.9-13.537,7.231,7.231,0,0,0-5.565-2.858c-4.663,0-8.423,7.521-8.423,28.88" transform="translate(-632.372 -35.707)" fill="#683545"/><path d="M841.892,97.908c0,14.74.3,54.751.3,66.182,4.512-7.22,9.025-16.095,12.635-22.713.451-.9,1.053-2.106,1.5-2.106s.752.451.752,1.354a18.256,18.256,0,0,1-2.407,7.822c-3.309,6.016-6.919,12.183-12.334,20.607,0,0,.451,28.278.451,34.295,0,4.362-.752,5.716-2.406,5.716-4.663,0-10.078-8.574-10.078-17.6,0-6.317,1.654-11.883,3.61-18.35V143.032c-3.761,13.086-6.919,18.5-11.883,18.5-6.768,0-10.83-7.972-10.83-22.713,0-25.721,6.619-36.7,15.794-36.7a9.727,9.727,0,0,1,6.768,2.858c0-12.183,1.956-23.765,5.415-23.765,2.256,0,2.708,3.61,2.708,16.7m-8.123,36.25V109.49c-1.955-1.956-4.362-3.46-7.07-3.46-3.911,0-7.069,7.371-7.069,29.933,0,15.342,3.159,19.554,4.813,19.554,2.106,0,3.459-3.159,9.325-21.359" transform="translate(-653.721 -27.062)" fill="#683545"/><path d="M895.129,161.077c0-.451.3-16.245.752-34.745-6.017,40.01-8.424,45.876-14.59,45.876-5.415,0-10.078-4.512-10.078-15.192,0-8.573.3-24.819.9-33.843.451-7.069,1.956-10.679,5.265-10.679,3.158,0,4.512,3.309,4.512,7.821,0,5.114-2.406,24.217-2.406,37.453,0,5.265,2.106,7.671,4.211,7.671,1.655,0,3.76-5.716,10.229-47.682.752-4.512,1.053-6.768,3.61-6.768,4.362,0,6.769,10.078,6.769,22.262,0,0-.452,12.334-.452,21.96,0,9.928.3,10.98,2.406,10.98,3.309,0,7.972-7.972,11.432-21.81.3-1.2.451-1.5.6-1.5.3,0,.6.3.6,2.106,0,8.123-6.318,28.128-16.245,28.128-5.114,0-7.521-4.362-7.521-12.033" transform="translate(-673.717 -36.985)" fill="#683545"/><path d="M936.632,144.306c0-25.119,6.618-37.6,12.334-37.6,7.22,0,14.289,12.184,14.289,27.526,0,9.476-5.716,16.847-17.6,20.156,1.053,7.972,4.061,12.485,8.875,12.485,5.866,0,13.387-8.273,17.749-24.066.3-1.053.452-1.8.752-1.8s.452.752.452,1.5a32.808,32.808,0,0,1-1.8,10.378c-5.265,14.59-12.786,20.457-20.908,20.457-9.325,0-14.139-7.37-14.139-29.03m8.724,5.716c1.654-2.557,4.362-3.008,7.671-3.008,2.256-2.256,3.309-6.618,3.309-10.228,0-18.2-4.663-25.871-7.671-25.871-2.557,0-3.61,9.175-3.61,31.436,0,4.362.3,7.671.3,7.671" transform="translate(-695.517 -35.556)" fill="#683545"/><path d="M1003.632,145.069c0,2.256-3.459,5.114-7.52,5.114-4.964,0-6.769-3.911-7.672-13.838-.9-8.573-1.053-21.659-1.053-40.612,0-43.62.9-54.45,5.114-54.45,2.858,0,4.963,5.264,4.963,15.192,0,8.874-1.353,19.253-1.353,39.107s.3,32.64,1.052,40.01c.452,5.716,1.5,7.07,3.009,7.521,1.654.451,3.459.3,3.459,1.956" transform="translate(-712.429 -13.757)" fill="#683545"/><path d="M1017.766,78.431a22.411,22.411,0,0,1-.151-2.858,6.586,6.586,0,0,1,6.468-6.769c1.805,0,2.708.9,2.708,4.813a98.644,98.644,0,0,1-.752,10.529c-.6,3.158-2.406,4.513-4.061,4.513-1.8,0-3.009-1.5-4.211-10.228m9.326,70.394c.15,2.406.451,3.761,1.353,3.761.452,0,1.354-.6,2.257-1.8a53.033,53.033,0,0,0,9.024-18.05c.9-3.159,1.053-3.61,1.354-3.61s.452.6.452,2.557a32.876,32.876,0,0,1-2.858,12.635c-3.761,9.025-10.078,15.192-14.74,15.192-5.866,0-5.866-5.716-5.866-50.089,0-8.122.9-11.431,3.158-11.431,3.309,0,6.167,5.866,6.167,10.98a63.7,63.7,0,0,1-1.053,11.582c0,5.716.3,19.7.752,28.278" transform="translate(-722.502 -22.927)" fill="#683545"/><path d="M1072.508,146.938c.451-6.919.9-14.59.9-18.8,0-5.415-2.557-7.822-4.513-7.822-1.655,0-2.858,2.708-9.627,30.083,0,0,.3,9.627.3,16.245,0,4.512-.6,6.768-2.708,6.768-5.866,0-7.219-8.573-7.219-26.021V125.128c0-8.273,5.114-11.883,6.919-11.883,3.61,0,2.106,5.565,2.106,10.078l-.452,19.253c5.114-26.172,8.423-29.181,14.741-29.181,4.512,0,9.326,4.212,9.326,14.29,0,5.415-1.053,14.59-1.5,21.359-.3,4.964-.6,11.281-.6,13.387,0,2.256.6,3.911,2.106,3.911,2.707,0,6.618-4.513,11.432-20.607.451-1.5.752-2.106.9-2.106.3,0,.452.451.452,2.256,0,10.68-7.972,27.225-15.643,27.225-4.814,0-7.521-3.009-7.521-12.635,0-2.407.15-7.822.6-13.537" transform="translate(-733.176 -37.736)" fill="#683545"/><path d="M1171.846,130.393c-1.053-3.309-2.106-4.813-2.106-5.866s.6-1.8,2.256-1.8c4.061,0,7.822,6.618,7.822,15.192,0,25.27-17.147,40.612-39.258,40.612-18.652,0-29.331-13.086-29.331-34.294,0-26.774,6.618-39.108,12.333-39.108,7.822,0,15.042,11.733,15.042,22.863,0,10.68-4.512,18.351-16.395,28.88,3.309,9.476,10.379,15.793,22.713,15.793,18.35,0,28.729-12.033,28.729-29.932a38.059,38.059,0,0,0-1.8-12.334m-50.689,23.164c7.972-8.423,10.229-12.033,10.229-21.509,0-12.785-4.814-22.712-8.123-22.712-2.557,0-3.46,6.016-3.46,31.136a59.254,59.254,0,0,0,1.354,13.086" transform="translate(-753.697 -35.03)" fill="#683545"/></g></g></svg>