<svg xmlns="http://www.w3.org/2000/svg" xmlns:xlink="http://www.w3.org/1999/xlink" width="268" height="57.84" viewBox="0 0 268 57.84">
  <defs>
    <clipPath id="clip-path">
      <rect id="Retângulo_10" data-name="Retângulo 10" width="268" height="57.84" transform="translate(-11)" fill="#683545"/>
    </clipPath>
  </defs>
  <g id="NOME_TOP_BAR" transform="translate(11)" clip-path="url(#clip-path)">
    <path id="Caminho_56" data-name="Caminho 56" d="M12.991,33.131c1.576,0,2.1.43,2.1.86,0,.334-.287.478-.716.525-7.26.621-11.8,3.964-11.8,12.466a12.676,12.676,0,0,0,12.7,12.944c6.018,0,9.887-3.964,9.982-25.218l-5.3-4.251C11.94,24.2,9.887,21.955,9.887,19.28c0-3.391,2.484-5.97,6.4-5.97,5.015,0,11.319,3.391,11.511,19.1,5.779,4.681,11.176,9.6,14.281,14.233-.1-4.776-.191-11.033-.191-19.344,0-7.976,1.767-10.746,4.537-10.746a1.362,1.362,0,0,1,1.481,1.194c0,.669-1.624.573-3.3,1.385a58.643,58.643,0,0,0-.382,7.881c0,3.869.048,9.409.048,22.974v.86a21.725,21.725,0,0,1,1.337,6.925c0,2.293-1.051,3.63-2.149,3.63-.669,0-1.146-.812-1.146-4.49,0-1.194-.048-2.722-.1-4.585-2.675-4.346-7.355-9.409-14.424-15.475-.621,21.111-6.543,25.362-14.424,25.362A13.712,13.712,0,0,1,0,48.033c0-10.364,6.352-14.9,12.991-14.9m12.132-2.866c-.907-11.893-6.018-15.332-9.6-15.332-2.34,0-3.487,1.337-3.487,2.866,0,2.1,1.337,3.487,10.03,10.125,1,.764,2.006,1.576,3.057,2.34" transform="translate(155.638 -10.492)" fill="#683545"/>
    <path id="Caminho_57" data-name="Caminho 57" d="M240.462,118.808c.1-.334.143-.573.286-.573s.239.191.239.621a14.273,14.273,0,0,1-.669,3.582c-1.337,4.251-2.531,6.114-4.251,6.114-1.29,0-2.245-1.337-2.723-6.687-.907,4.2-2.149,6.066-3.725,6.066-1.958,0-3.582-2.675-3.582-7.5,0-7.4,2.34-11.7,5.254-11.7a3.718,3.718,0,0,1,2.34.764c.86-1.672,1.767-2.34,2.388-2.34.382,0,.669.382.669,1.242a32,32,0,0,1-1,6.4c.143,7.976.764,10.937,1.624,10.937.907,0,2.1-3.391,3.152-6.925m-11.558.239c0,5.158.812,6.448,1.528,6.448.86,0,2.006-2.149,2.722-6.782-.048-.669-.1-2.245-.1-3.63a35.234,35.234,0,0,1,.286-4.3,2.3,2.3,0,0,0-1.767-.908c-1.481,0-2.675,2.388-2.675,9.17" transform="translate(-22.542 -84.467)" fill="#683545"/>
    <path id="Caminho_58" data-name="Caminho 58" d="M267.321,56.066c0-.43.621-1.1,2.149-1.194.287,0,1.719-.048,3.726-.1v-.1c.334-5.923.478-7.308,1.051-7.308s1.481.955,1.481,6.925v.43c5.636-.1,13.182-.191,14.281-.191.716,0,.955.191.955.525,0,.573-1.051,1.815-3.63,1.815-2.675,0-7.451,0-11.606-.1-.048,5.779-.191,16.573-.191,18.245,0,3.678.286,4.251.907,4.251,1,0,2.627-2.484,3.869-6.925.1-.334.143-.573.239-.573s.191.143.191.478a12.881,12.881,0,0,1-2.818,7.451,3,3,0,0,1-2.293,1.1c-1.672,0-3.1-1.146-3.1-7.785,0-4.442.334-12.227.525-16.287l-4.681-.143c-.86-.048-1.051-.191-1.051-.525" transform="translate(-55.084 -37.343)" fill="#683545"/>
    <path id="Caminho_59" data-name="Caminho 59" d="M329.717,113.175c.43.1.573.669.573,1.528.048,6.5.621,12.275,1.911,12.275.86,0,2.2-2.579,3.248-6.687.1-.334.143-.573.287-.573.1,0,.191.1.191.478a15.048,15.048,0,0,1-.525,3.439c-1.29,4.394-2.77,5.875-4.3,5.875-1.29,0-2.627-1.146-3.152-5.3-.907,3.2-1.958,4.776-3.582,4.776-1.958,0-3.582-2.484-3.582-7.451,0-7.4,1.576-12.8,5.254-12.8,1.958,0,3.3,2.1,3.678,4.442m-1.146.86c-.334-2.388-1.385-4.155-2.77-4.155-1.576,0-2.149,2.866-2.149,10.6,0,5.158.812,6.4,1.624,6.4.669,0,1.481-1.481,2.388-4.92,0-.478-.048-1-.048-1.576a17.62,17.62,0,0,1,.955-6.352" transform="translate(-97.229 -85.712)" fill="#683545"/>
    <path id="Caminho_60" data-name="Caminho 60" d="M390.217,125.592c-1.051,0-2.293-1.337-1.767-6.114v-7.737c0-4.107,1.194-7.069,2.293-7.069.478,0,.669.382.669,1.194,0,1.1-.287,7.976-.382,13.66,1.719-11.893,2.293-13.9,4.394-13.9,1.576,0,3.534,1.242,3.534,4.728,0,2.579-.143,5.4-.143,6.543,0,6.782.239,7.881,1,7.881,1.051,0,2.1-1.91,2.293-5.684.048-1.29,0-1.767.43-1.767.382,0,.812.573.812,2.531,0,3.773-1.91,6.4-4.3,6.4-2.006,0-3.248-1.672-3.248-6.161,0-2.34.477-8.263.477-10.46a1.754,1.754,0,0,0-1.433-1.91c-.478,0-.669.286-1.194,2.484s-1.051,5.875-1.815,11.941c-.334,2.818-.812,3.439-1.624,3.439" transform="translate(-150.469 -82.51)" fill="#683545"/>
    <path id="Caminho_61" data-name="Caminho 61" d="M490.876,120.18c0-7.881,1.528-12.8,4.394-12.8,2.388,0,3.821,2.388,3.821,6.639,0,4.012-1.576,6.3-5.349,7.355.287,3.582,1.29,5.875,3.2,5.875s2.866-1.528,3.2-5.588c.143-1.576.43-1.958.812-1.958.43,0,.573.334.573,1.337,0,5.54-2.054,7.976-5.4,7.976-3.725,0-5.253-3.3-5.253-8.836m2.77.1c2.245-.716,3.3-2.1,3.3-5.158,0-4.681-.907-6.5-1.767-6.5-.955,0-1.624,1.672-1.624,8.932,0,1.385.1,2.722.1,2.722" transform="translate(-353.752 -84.645)" fill="#683545"/>
    <g id="Grupo_18" data-name="Grupo 18" transform="translate(-7.24 0)">
      <path id="Caminho_62" data-name="Caminho 62" d="M608.306,47.093c-.382,7.069-5.111,10.746-12.514,10.746-12.609,0-20.776-10.269-20.776-18.627,0-1.91,1-2.627,2.818-2.627,5.206,0,16.717,6.925,27.654,8.693-.143-7.069-1.863-18.149-1.863-38.209-9.552,2.961-15.284,7.69-15.284,16.287,0,8.072,3.678,13.134,13.373,13.708.382,0,.525.143.525.334,0,.43-.717.907-2.866.907-7.833,0-13.8-3.964-13.8-14.09,0-9.6,7.69-15.809,18.054-18.723.143-4.776,1-5.493,1.767-5.493,1.146,0,2.531,2.531,1.1,6.161,0,18.388,1.767,29.612,1.863,39.451.621.048,1.29.1,1.911.1,1.433,0,2.627-.191,2.961-.191.239,0,.334.1.334.287,0,.621-2.006,1.29-5.254,1.29m-2.818-.143c-9.791-.955-20.824-6.448-28.561-8.836,3.009,11.319,11.463,17.624,20.585,17.624,5.063,0,7.785-2.675,7.976-8.788" transform="translate(-575.016 0)" fill="#683545"/>
      <path id="Caminho_63" data-name="Caminho 63" d="M761.564,118.808c.1-.334.143-.573.286-.573s.239.191.239.621a14.274,14.274,0,0,1-.669,3.582c-1.337,4.251-2.531,6.114-4.251,6.114-1.29,0-2.245-1.337-2.723-6.687-.907,4.2-2.149,6.066-3.725,6.066-1.958,0-3.582-2.675-3.582-7.5,0-7.4,2.34-11.7,5.254-11.7a3.718,3.718,0,0,1,2.34.764c.86-1.672,1.767-2.34,2.388-2.34.382,0,.669.382.669,1.242a32,32,0,0,1-1,6.4c.143,7.976.764,10.937,1.624,10.937.907,0,2.1-3.391,3.152-6.925m-11.558.239c0,5.158.812,6.448,1.528,6.448.86,0,2.006-2.149,2.722-6.782-.048-.669-.1-2.245-.1-3.63a35.234,35.234,0,0,1,.286-4.3,2.3,2.3,0,0,0-1.767-.908c-1.481,0-2.675,2.388-2.675,9.17" transform="translate(-710.697 -84.467)" fill="#683545"/>
      <path id="Caminho_64" data-name="Caminho 64" d="M820.951,86.514c0,4.681.1,17.385.1,21.015,1.433-2.293,2.866-5.111,4.012-7.212.143-.286.334-.669.478-.669s.239.143.239.43a5.8,5.8,0,0,1-.764,2.484c-1.051,1.91-2.2,3.869-3.917,6.543,0,0,.143,8.979.143,10.89,0,1.385-.239,1.815-.764,1.815-1.481,0-3.2-2.723-3.2-5.588a19.694,19.694,0,0,1,1.146-5.827v-9.552c-1.194,4.155-2.2,5.875-3.773,5.875-2.149,0-3.439-2.531-3.439-7.212,0-8.167,2.1-11.654,5.015-11.654a3.089,3.089,0,0,1,2.149.907c0-3.869.621-7.546,1.719-7.546.716,0,.86,1.146.86,5.3m-2.579,11.511V90.191a3.265,3.265,0,0,0-2.245-1.1c-1.242,0-2.245,2.34-2.245,9.5,0,4.872,1,6.209,1.529,6.209.669,0,1.1-1,2.961-6.782" transform="translate(-761.2 -64.017)" fill="#683545"/>
      <path id="Caminho_65" data-name="Caminho 65" d="M878.807,126.894c0-.143.1-5.158.239-11.033-1.911,12.7-2.675,14.567-4.633,14.567-1.719,0-3.2-1.433-3.2-4.824,0-2.722.1-7.881.286-10.746.143-2.245.621-3.391,1.672-3.391,1,0,1.433,1.051,1.433,2.484,0,1.624-.764,7.69-.764,11.893,0,1.672.669,2.436,1.337,2.436.526,0,1.194-1.815,3.248-15.141.239-1.433.334-2.149,1.146-2.149,1.385,0,2.15,3.2,2.15,7.069,0,0-.143,3.916-.143,6.973,0,3.152.1,3.487.764,3.487,1.051,0,2.531-2.531,3.63-6.925.1-.382.143-.478.191-.478.1,0,.191.1.191.669,0,2.579-2.006,8.932-5.158,8.932-1.624,0-2.388-1.385-2.388-3.821" transform="translate(-808.501 -87.49)" fill="#683545"/>
      <path id="Caminho_66" data-name="Caminho 66" d="M936.632,118.643c0-7.976,2.1-11.941,3.916-11.941,2.293,0,4.537,3.869,4.537,8.74,0,3.009-1.815,5.349-5.588,6.4.334,2.531,1.29,3.964,2.818,3.964,1.863,0,4.251-2.627,5.636-7.642.1-.334.143-.573.239-.573s.143.239.143.478a10.418,10.418,0,0,1-.573,3.3c-1.672,4.633-4.06,6.5-6.639,6.5-2.961,0-4.49-2.34-4.49-9.218m2.77,1.815a2.579,2.579,0,0,1,2.436-.955,4.917,4.917,0,0,0,1.051-3.248c0-5.779-1.481-8.215-2.436-8.215-.812,0-1.146,2.913-1.146,9.982,0,1.385.1,2.436.1,2.436" transform="translate(-860.069 -84.111)" fill="#683545"/>
      <path id="Caminho_67" data-name="Caminho 67" d="M992.545,74.239c0,.716-1.1,1.624-2.388,1.624-1.576,0-2.149-1.242-2.436-4.394-.287-2.722-.334-6.878-.334-12.9,0-13.851.286-17.29,1.624-17.29.907,0,1.576,1.672,1.576,4.824,0,2.818-.43,6.114-.43,12.418s.1,10.364.334,12.7c.143,1.815.478,2.245.955,2.388.525.143,1.1.1,1.1.621" transform="translate(-900.078 -32.542)" fill="#683545"/>
      <path id="Caminho_68" data-name="Caminho 68" d="M1017.663,71.861a7.119,7.119,0,0,1-.048-.907,2.091,2.091,0,0,1,2.054-2.149c.573,0,.86.287.86,1.528a31.332,31.332,0,0,1-.239,3.343c-.191,1-.764,1.433-1.29,1.433-.573,0-.955-.478-1.337-3.248m2.961,22.353c.048.764.143,1.194.43,1.194.143,0,.43-.191.717-.573a16.841,16.841,0,0,0,2.866-5.732c.287-1,.334-1.146.43-1.146s.143.191.143.812a10.439,10.439,0,0,1-.907,4.012c-1.194,2.866-3.2,4.824-4.681,4.824-1.863,0-1.863-1.815-1.863-15.9,0-2.579.286-3.63,1-3.63,1.051,0,1.958,1.863,1.958,3.487a20.223,20.223,0,0,1-.334,3.678c0,1.815.1,6.257.239,8.979" transform="translate(-923.906 -54.237)" fill="#683545"/>
      <path id="Caminho_69" data-name="Caminho 69" d="M1056.905,123.944c.143-2.2.286-4.633.286-5.97,0-1.719-.812-2.484-1.433-2.484-.525,0-.907.86-3.057,9.552,0,0,.1,3.057.1,5.158,0,1.433-.191,2.149-.86,2.149-1.863,0-2.292-2.722-2.292-8.263v-7.069c0-2.627,1.624-3.773,2.2-3.773,1.146,0,.669,1.767.669,3.2l-.143,6.114c1.624-8.311,2.675-9.266,4.681-9.266,1.433,0,2.961,1.337,2.961,4.537,0,1.719-.334,4.633-.478,6.782-.1,1.576-.191,3.582-.191,4.251,0,.716.191,1.242.669,1.242.86,0,2.1-1.433,3.63-6.544.143-.478.239-.669.286-.669.1,0,.143.143.143.716,0,3.391-2.531,8.645-4.967,8.645-1.529,0-2.388-.955-2.388-4.012,0-.764.048-2.484.191-4.3" transform="translate(-949.155 -89.268)" fill="#683545"/>
      <path id="Caminho_70" data-name="Caminho 70" d="M1130.477,113.147a16.4,16.4,0,0,1-.669-1.863c0-.334.191-.573.717-.573,1.29,0,2.484,2.1,2.484,4.824,0,8.024-5.445,12.9-12.466,12.9-5.923,0-9.314-4.155-9.314-10.89,0-8.5,2.1-12.418,3.916-12.418,2.484,0,4.776,3.725,4.776,7.26,0,3.391-1.433,5.827-5.206,9.17a7.019,7.019,0,0,0,7.212,5.015c5.827,0,9.122-3.821,9.122-9.5a12.087,12.087,0,0,0-.573-3.916m-16.1,7.355c2.531-2.675,3.248-3.821,3.248-6.83,0-4.06-1.529-7.212-2.579-7.212-.812,0-1.1,1.91-1.1,9.887a18.809,18.809,0,0,0,.43,4.155" transform="translate(-997.7 -82.866)" fill="#683545"/>
    </g>
  </g>
</svg>
